<?xml version="1.0" encoding="UTF-8"?>
<svg version="1.1" xmlns="http://www.w3.org/2000/svg" width="192" height="192">
<path d="M0 0 C63.36 0 126.72 0 192 0 C192 63.36 192 126.72 192 192 C128.64 192 65.28 192 0 192 C0 128.64 0 65.28 0 0 Z " fill="#FDFDFE" transform="translate(0,0)"/>
<path d="M0 0 C0 0.66 0 1.32 0 2 C0.53625 2.061875 1.0725 2.12375 1.625 2.1875 C9.30330128 4.81428728 14.52054708 13.04109416 18 20 C18.59761534 28.21721093 16.23964725 35.35152125 13.625 43.0625 C11.68575231 48.84644354 10.00447609 54.7023991 8.3125 60.5625 C7.99216797 61.66658203 7.67183594 62.77066406 7.34179688 63.90820312 C6.55960559 66.60501188 5.77904286 69.30228039 5 72 C4.34 72 3.68 72 3 72 C3.495 77.94 3.495 77.94 4 84 C5.65 84 7.3 84 9 84 C8.39284114 91.20521421 7.34770697 98.26181893 6.0625 105.375 C5.70412965 107.39447849 5.34605396 109.4140093 4.98828125 111.43359375 C4.73232178 112.87001221 4.73232178 112.87001221 4.47119141 114.33544922 C3.6079404 119.21706657 2.7996205 124.10758509 2 129 C1.01 129.33 0.02 129.66 -1 130 C-1 130.66 -1 131.32 -1 132 C-5.43056602 134.50233376 -9.2643361 134.36731793 -14.25 134.375 C-15.07113281 134.39949219 -15.89226562 134.42398438 -16.73828125 134.44921875 C-22.63957488 134.47727561 -27.08521913 133.3381553 -32 130 C-32.52110352 129.45649902 -33.04220703 128.91299805 -33.57910156 128.35302734 C-34.04799805 127.90652832 -34.51689453 127.4600293 -35 127 C-37.76854709 127.22447679 -39.95887723 127.98328394 -42.52734375 129.02734375 C-47.14657499 130.32114418 -51.47380028 130.38175857 -56.25 130.375 C-57.65028442 130.37693359 -57.65028442 130.37693359 -59.07885742 130.37890625 C-65.67673711 130.27737378 -71.24969552 129.47188195 -77 126 C-77 125.34 -77 124.68 -77 124 C-77.58265625 123.7421875 -78.1653125 123.484375 -78.765625 123.21875 C-81.1802903 121.90165983 -82.81740177 120.44911616 -84.75 118.5 C-85.36359375 117.8915625 -85.9771875 117.283125 -86.609375 116.65625 C-88 115 -88 115 -88 113 C-88.66 113 -89.32 113 -90 113 C-90.226875 112.34 -90.45375 111.68 -90.6875 111 C-91.79997093 108.45720931 -92.94474686 106.57426931 -94.5 104.3125 C-99.47911709 96.44551427 -99.36345944 87.1160715 -99.375 78.0625 C-99.39949219 77.05509766 -99.42398438 76.04769531 -99.44921875 75.00976562 C-99.50415011 60.77338859 -92.85797981 47.86290974 -83.515625 37.36328125 C-82 36 -82 36 -80 36 C-80 35.34 -80 34.68 -80 34 C-79.01 34 -78.02 34 -77 34 C-77 33.34 -77 32.68 -77 32 C-74 30 -74 30 -71 30 C-71 29.34 -71 28.68 -71 28 C-66.02988327 26.00881759 -61.87666865 25.75154305 -56.625 25.875 C-55.52091797 25.88853516 -55.52091797 25.88853516 -54.39453125 25.90234375 C-52.5962112 25.92569856 -50.79806089 25.96156164 -49 26 C-48.7215625 25.11828125 -48.443125 24.2365625 -48.15625 23.328125 C-47.11288821 20.324935 -45.92672199 17.58604494 -44.5 14.75 C-44.0771875 13.89921875 -43.654375 13.0484375 -43.21875 12.171875 C-42 10 -42 10 -40 8 C-39.01 8 -38.02 8 -37 8 C-36.93425781 7.40703125 -36.86851563 6.8140625 -36.80078125 6.203125 C-35.31822701 2.12429284 -31.68573117 0.98799704 -27.94921875 -0.796875 C-20.03416871 -3.65086939 -7.4394572 -4.194677 0 0 Z " fill="#103475" transform="translate(112,23)"/>
<path d="M0 0 C5.78333013 -0.26213394 8.23389123 0.94969039 13 4 C13 4.66 13 5.32 13 6 C13.66 6 14.32 6 15 6 C15 6.66 15 7.32 15 8 C15.66 8 16.32 8 17 8 C17 8.66 17 9.32 17 10 C17.59554687 10.07605469 18.19109375 10.15210938 18.8046875 10.23046875 C21.75585057 11.26495118 22.48389759 12.68759536 24.125 15.3125 C24.62257812 16.09238281 25.12015625 16.87226562 25.6328125 17.67578125 C28.25596957 22.13514826 29.23990809 24.72202201 29 30 C29.66 30 30.32 30 31 30 C33.0567625 37.65938354 33.36654465 44.90252257 33.375 52.8125 C33.39949219 54.00681641 33.42398438 55.20113281 33.44921875 56.43164062 C33.4892397 68.68472089 29.95079451 82.3207719 22 92 C21.505 92.9075 21.01 93.815 20.5 94.75 C20.005 95.4925 19.51 96.235 19 97 C18.01 97 17.02 97 16 97 C16 97.66 16 98.32 16 99 C8.39443425 104.07037716 -1.17493392 103.67200951 -10 103 C-12.95703125 101.984375 -12.95703125 101.984375 -15 101 C-14.55765413 93.25044069 -12.38531342 86.30027393 -9.93527222 78.98443604 C-9.24083101 76.91011186 -8.55757364 74.83239453 -7.87719727 72.75341797 C-6.59276085 68.83295145 -5.29730032 64.91622865 -4 61 C0.13417864 48.74976499 0.13417864 48.74976499 2 36 C-0.31 36 -2.62 36 -5 36 C-4.70580584 23.55558709 -3.06563873 12.06293192 0 0 Z " fill="#053575" transform="translate(135,50)"/>
<path d="M0 0 C6 0 6 0 8.375 1.625 C10.4131192 4.6037896 10.32152515 6.46322336 10 10 C10.66 10 11.32 10 12 10 C12.33 7.03 12.66 4.06 13 1 C13.99 1 14.98 1 16 1 C16.50449402 3.58252893 17.00374301 6.16588703 17.5 8.75 C17.71462891 9.84441406 17.71462891 9.84441406 17.93359375 10.9609375 C18.58888879 14.39343532 19 17.49169491 19 21 C19.66 21 20.32 21 21 21 C21 14.4 21 7.8 21 1 C23.64 1 26.28 1 29 1 C29.33 0.67 29.66 0.34 30 0 C32.62257373 -0.20743521 35.18639318 -0.32445376 37.8125 -0.375 C38.53759766 -0.41238281 39.26269531 -0.44976562 40.00976562 -0.48828125 C42.14453125 -0.5234375 42.14453125 -0.5234375 46 0 C48.38671875 2.4609375 48.38671875 2.4609375 50 5 C50.66 5.33 51.32 5.66 52 6 C52 4.68 52 3.36 52 2 C52.66 2 53.32 2 54 2 C54 1.34 54 0.68 54 0 C55.32 0 56.64 0 58 0 C58.495 2.475 58.495 2.475 59 5 C59.66 5 60.32 5 61 5 C61 3.68 61 2.36 61 1 C64.3 1 67.6 1 71 1 C71.09765625 7.15234375 71.09765625 7.15234375 71 9 C70.67 9.33 70.34 9.66 70 10 C69.87413093 12.2890608 69.82422029 14.58251118 69.8125 16.875 C69.79832031 18.13054687 69.78414063 19.38609375 69.76953125 20.6796875 C69.73390958 24.13793042 69.73390958 24.13793042 72 27 C72.23046875 29.4453125 72.23046875 29.4453125 72.1875 32.125 C72.18105469 33.01445313 72.17460938 33.90390625 72.16796875 34.8203125 C72 37 72 37 71 38 C69.31391034 38.07205511 67.62499341 38.08386068 65.9375 38.0625 C65.01839844 38.05347656 64.09929687 38.04445312 63.15234375 38.03515625 C62.44207031 38.02355469 61.73179688 38.01195312 61 38 C60.94610913 36.04196493 60.90725783 34.08351091 60.875 32.125 C60.85179687 31.03445312 60.82859375 29.94390625 60.8046875 28.8203125 C61 26 61 26 63 24 C63.14497985 21.41935871 63.18677545 18.95056116 63.125 16.375 C63.11597656 15.66859375 63.10695313 14.9621875 63.09765625 14.234375 C63.07407603 12.48943902 63.03820461 10.74467705 63 9 C62.34 9 61.68 9 61 9 C61.02320313 9.58007812 61.04640625 10.16015625 61.0703125 10.7578125 C61.18250423 15.61411166 60.87514915 19.42932395 59 24 C59.33 24.33 59.66 24.66 60 25 C60.07258946 27.18639453 60.08373783 29.37500389 60.0625 31.5625 C60.05347656 32.76003906 60.04445312 33.95757812 60.03515625 35.19140625 C60.02355469 36.11824219 60.01195312 37.04507813 60 38 C57.03 38 54.06 38 51 38 C51 37.01 51 36.02 51 35 C50.34 35 49.68 35 49 35 C49 35.99 49 36.98 49 38 C45.7 38 42.4 38 39 38 C39 34.37 39 30.74 39 27 C39.66 27 40.32 27 41 27 C41 28.98 41 30.96 41 33 C41.66 33 42.32 33 43 33 C42.979375 32.236875 42.95875 31.47375 42.9375 30.6875 C43 28 43 28 44 25 C42.68 24.67 41.36 24.34 40 24 C40 19.05 40 14.1 40 9 C39.01 8.67 38.02 8.34 37 8 C36.67 12.95 36.34 17.9 36 23 C35.01 23 34.02 23 33 23 C32.505 15.575 32.505 15.575 32 8 C31.34 8.33 30.68 8.66 30 9 C29.34444881 11.52733235 29.34444881 11.52733235 29 14 C27.35 14 25.7 14 24 14 C24.01160156 14.69867188 24.02320312 15.39734375 24.03515625 16.1171875 C24.04417969 17.02726562 24.05320312 17.93734375 24.0625 18.875 C24.07410156 19.77992187 24.08570312 20.68484375 24.09765625 21.6171875 C24 24 24 24 23 26 C26.465 25.505 26.465 25.505 30 25 C30 29.29 30 33.58 30 38 C26.04 38 22.08 38 18 38 C18 33.71 18 29.42 18 25 C17.34 24.67 16.68 24.34 16 24 C16 21.69 16 19.38 16 17 C15.01 17 14.02 17 13 17 C13 19.31 13 21.62 13 24 C12.01 24.33 11.02 24.66 10 25 C10.33 26.65 10.66 28.3 11 30 C11.33 29.01 11.66 28.02 12 27 C13.65 27 15.3 27 17 27 C17 27.99 17 28.98 17 30 C16.34 30 15.68 30 15 30 C14.505 32.475 14.505 32.475 14 35 C14.66 35 15.32 35 16 35 C16 35.99 16 36.98 16 38 C15.0409375 37.7215625 15.0409375 37.7215625 14.0625 37.4375 C13.381875 37.293125 12.70125 37.14875 12 37 C11.505 37.495 11.505 37.495 11 38 C9.00041636 38.04080783 6.99954746 38.04254356 5 38 C5 35.36 5 32.72 5 30 C4.34 30 3.68 30 3 30 C3 32.64 3 35.28 3 38 C2.34 38 1.68 38 1 38 C1 35.36 1 32.72 1 30 C0.34 30 -0.32 30 -1 30 C-0.67 20.1 -0.34 10.2 0 0 Z " fill="#234480" transform="translate(36,80)"/>
<path d="M0 0 C0.66 0 1.32 0 2 0 C2.33 2.64 2.66 5.28 3 8 C3.66 7.67 4.32 7.34 5 7 C7.3329866 6.95977609 9.66706666 6.95679753 12 7 C12 7.33 12 7.66 12 8 C10.02 8 8.04 8 6 8 C3.77839508 19.918257 2.45631012 31.97011959 1 44 C3.31 44 5.62 44 8 44 C8.69604216 52.59706129 6.11260722 59.85723919 3.375 67.875 C2.91477974 69.254824 2.45596638 70.63511803 1.99853516 72.01586914 C1.09285397 74.74659496 0.18148361 77.47530854 -0.734375 80.20263672 C-2.42755767 85.2610834 -4.03343572 90.34629721 -5.625 95.4375 C-6.09628927 96.93621833 -6.56763532 98.4349188 -7.0390625 99.93359375 C-7.51472656 101.45146484 -7.51472656 101.45146484 -8 103 C-8.66 103 -9.32 103 -10 103 C-12.12153042 104.85633912 -13.41328692 106.61993038 -15 109 C-15.11424735 104.43010616 -14.81467477 100.43992031 -13.75 96 C-12.21804984 89.2418275 -10.98499298 82.45440458 -9.8125 75.625 C-9.63364258 74.5834375 -9.45478516 73.541875 -9.27050781 72.46875 C-8.84485043 69.97952552 -8.4212177 67.48997902 -8 65 C-9.65 65 -11.3 65 -13 65 C-14.26237731 62.47524538 -14.09856404 60.68799534 -14.0625 57.875 C-14.05347656 56.96492188 -14.04445313 56.05484375 -14.03515625 55.1171875 C-14.02355469 54.41851562 -14.01195313 53.71984375 -14 53 C-13.34 53 -12.68 53 -12 53 C-11.90460938 52.10152344 -11.80921875 51.20304687 -11.7109375 50.27734375 C-10.89409321 44.57806353 -9.1960201 39.09028353 -7.625 33.5625 C-7.32078125 32.46873047 -7.0165625 31.37496094 -6.703125 30.24804688 C-5.0482821 24.37476896 -3.19437669 18.69126353 -1 13 C-0.15795942 9.98253959 0.10865071 7.38824859 0.0625 4.25 C0.05347656 3.45078125 0.04445312 2.6515625 0.03515625 1.828125 C0.02355469 1.22484375 0.01195312 0.6215625 0 0 Z " fill="#D9D7D1" transform="translate(129,42)"/>
<path d="M0 0 C6 0 6 0 8.375 1.625 C10.4131192 4.6037896 10.32152515 6.46322336 10 10 C10.66 10 11.32 10 12 10 C12.33 7.03 12.66 4.06 13 1 C13.99 1 14.98 1 16 1 C16.50449402 3.58252893 17.00374301 6.16588703 17.5 8.75 C17.71462891 9.84441406 17.71462891 9.84441406 17.93359375 10.9609375 C18.58888879 14.39343532 19 17.49169491 19 21 C19.66 21 20.32 21 21 21 C21 14.4 21 7.8 21 1 C23.64 1 26.28 1 29 1 C29.33 0.67 29.66 0.34 30 0 C31.51928038 -0.07179964 33.04167482 -0.08392007 34.5625 -0.0625 C35.38878906 -0.05347656 36.21507812 -0.04445313 37.06640625 -0.03515625 C37.70449219 -0.02355469 38.34257813 -0.01195313 39 0 C39 2.31 39 4.62 39 7 C38.34 6.67 37.68 6.34 37 6 C36.67 11.61 36.34 17.22 36 23 C35.01 23 34.02 23 33 23 C32.505 15.575 32.505 15.575 32 8 C31.34 8.33 30.68 8.66 30 9 C29.34444881 11.52733235 29.34444881 11.52733235 29 14 C27.35 14 25.7 14 24 14 C24.01160156 14.69867188 24.02320312 15.39734375 24.03515625 16.1171875 C24.04417969 17.02726562 24.05320312 17.93734375 24.0625 18.875 C24.07410156 19.77992187 24.08570312 20.68484375 24.09765625 21.6171875 C24 24 24 24 23 26 C26.465 25.505 26.465 25.505 30 25 C30 29.29 30 33.58 30 38 C26.04 38 22.08 38 18 38 C18 33.71 18 29.42 18 25 C17.34 24.67 16.68 24.34 16 24 C16 21.69 16 19.38 16 17 C15.01 17 14.02 17 13 17 C13 19.31 13 21.62 13 24 C12.01 24.33 11.02 24.66 10 25 C10.33 26.65 10.66 28.3 11 30 C11.33 29.01 11.66 28.02 12 27 C13.65 27 15.3 27 17 27 C17 27.99 17 28.98 17 30 C16.34 30 15.68 30 15 30 C14.505 32.475 14.505 32.475 14 35 C14.66 35 15.32 35 16 35 C16 35.99 16 36.98 16 38 C15.0409375 37.7215625 15.0409375 37.7215625 14.0625 37.4375 C13.381875 37.293125 12.70125 37.14875 12 37 C11.505 37.495 11.505 37.495 11 38 C9.00041636 38.04080783 6.99954746 38.04254356 5 38 C5 35.36 5 32.72 5 30 C4.34 30 3.68 30 3 30 C3 32.64 3 35.28 3 38 C2.34 38 1.68 38 1 38 C1 35.36 1 32.72 1 30 C0.34 30 -0.32 30 -1 30 C-0.67 20.1 -0.34 10.2 0 0 Z " fill="#325088" transform="translate(36,80)"/>
<path d="M0 0 C1.32 0 2.64 0 4 0 C4.33 1.65 4.66 3.3 5 5 C5.66 5 6.32 5 7 5 C7 3.68 7 2.36 7 1 C10.3 1 13.6 1 17 1 C17.09765625 7.15234375 17.09765625 7.15234375 17 9 C16.67 9.33 16.34 9.66 16 10 C15.87413093 12.2890608 15.82422029 14.58251118 15.8125 16.875 C15.79123047 18.75832031 15.79123047 18.75832031 15.76953125 20.6796875 C15.73390958 24.13793042 15.73390958 24.13793042 18 27 C18.23046875 29.4453125 18.23046875 29.4453125 18.1875 32.125 C18.18105469 33.01445313 18.17460938 33.90390625 18.16796875 34.8203125 C18 37 18 37 17 38 C15.31391034 38.07205511 13.62499341 38.08386068 11.9375 38.0625 C11.01839844 38.05347656 10.09929687 38.04445312 9.15234375 38.03515625 C8.44207031 38.02355469 7.73179688 38.01195312 7 38 C6.94610913 36.04196493 6.90725783 34.08351091 6.875 32.125 C6.85179688 31.03445312 6.82859375 29.94390625 6.8046875 28.8203125 C7 26 7 26 9 24 C9.14497985 21.41935871 9.18677545 18.95056116 9.125 16.375 C9.11597656 15.66859375 9.10695313 14.9621875 9.09765625 14.234375 C9.07407603 12.48943902 9.03820461 10.74467705 9 9 C8.34 9 7.68 9 7 9 C7.03480469 9.59167969 7.06960937 10.18335937 7.10546875 10.79296875 C7.23653508 14.61885731 7.21086359 17.45619389 5.8125 21.0625 C4 23 4 23 1.3125 23.3125 C0.549375 23.209375 -0.21375 23.10625 -1 23 C-2.78889265 19.160598 -3.24622412 16.16029776 -3.1875 11.9375 C-3.18105469 10.91527344 -3.17460938 9.89304687 -3.16796875 8.83984375 C-3.02361581 6.39927201 -2.69892207 4.33160404 -2 2 C-1.34 2 -0.68 2 0 2 C0 1.34 0 0.68 0 0 Z " fill="#3F5B8F" transform="translate(90,80)"/>
<path d="M0 0 C0.33 0 0.66 0 1 0 C1.31524665 6.78765447 0.12385578 13.25891111 -1 19.9375 C-1.19078125 21.09830078 -1.3815625 22.25910156 -1.578125 23.45507812 C-2.04712362 26.30424475 -2.52121917 29.15246375 -3 32 C-0.36 32.33 2.28 32.66 5 33 C4.67 35.97 4.34 38.94 4 42 C3.34 42 2.68 42 2 42 C1.91621094 42.91136719 1.83242187 43.82273438 1.74609375 44.76171875 C0.79905355 51.38434256 -1.82903721 57.64574673 -4.02929688 63.93164062 C-6.19529856 70.23817593 -7.89776425 76.42037403 -9 83 C-9.66 83 -10.32 83 -11 83 C-11.21011541 77.02187777 -10.49977607 71.9125806 -9.0625 66.125 C-7.55147973 59.73535517 -6.42385445 53.56974393 -6 47 C-8.31 47 -10.62 47 -13 47 C-12.67 44.36 -12.34 41.72 -12 39 C-11.34 39 -10.68 39 -10 39 C-9.89042969 38.34370605 -9.78085938 37.68741211 -9.66796875 37.01123047 C-8.4424809 29.94848497 -6.8362644 23.05189837 -5 16.125 C-4.73960938 15.11953125 -4.47921875 14.1140625 -4.2109375 13.078125 C-3.03126233 8.58582664 -1.79271271 4.29231588 0 0 Z " fill="#F8B01A" transform="translate(130,56)"/>
<path d="M0 0 C0.33 0 0.66 0 1 0 C1 5.94 1 11.88 1 18 C1.99 18 2.98 18 4 18 C4 12.06 4 6.12 4 0 C8 4 8 4 8.390625 7.671875 C8.36421866 9.0318016 8.31677149 10.39145695 8.25 11.75 C8.23195313 12.44738281 8.21390625 13.14476563 8.1953125 13.86328125 C8.14838554 15.57611539 8.07664605 17.28823824 8 19 C9.65 19.33 11.3 19.66 13 20 C12.34 22.64 11.68 25.28 11 28 C10.34 28 9.68 28 9 28 C9 26.02 9 24.04 9 22 C8.34 22 7.68 22 7 22 C7 25.63 7 29.26 7 33 C4.66705225 33.04241723 2.33297433 33.04092937 0 33 C-1.81115956 31.18884044 -1.38199448 28.38721773 -1.5625 25.9375 C-1.64628906 24.83277344 -1.73007813 23.72804688 -1.81640625 22.58984375 C-1.90728516 21.30787109 -1.90728516 21.30787109 -2 20 C-4.31 20.33 -6.62 20.66 -9 21 C-8.67 17.04 -8.34 13.08 -8 9 C-6.35 9 -4.7 9 -3 9 C-3 7.35 -3 5.7 -3 4 C-2.01 3.67 -1.02 3.34 0 3 C0 2.01 0 1.02 0 0 Z " fill="#153877" transform="translate(68,85)"/>
<path d="M0 0 C1.23556641 0.01740234 1.23556641 0.01740234 2.49609375 0.03515625 C3.32238281 0.04417969 4.14867188 0.05320312 5 0.0625 C5.63808594 0.07410156 6.27617188 0.08570312 6.93359375 0.09765625 C6.93359375 2.40765625 6.93359375 4.71765625 6.93359375 7.09765625 C6.27359375 6.76765625 5.61359375 6.43765625 4.93359375 6.09765625 C4.60359375 11.70765625 4.27359375 17.31765625 3.93359375 23.09765625 C2.94359375 23.09765625 1.95359375 23.09765625 0.93359375 23.09765625 C0.60359375 18.14765625 0.27359375 13.19765625 -0.06640625 8.09765625 C-1.05640625 8.59265625 -1.05640625 8.59265625 -2.06640625 9.09765625 C-2.72195744 11.6249886 -2.72195744 11.6249886 -3.06640625 14.09765625 C-4.71640625 14.09765625 -6.36640625 14.09765625 -8.06640625 14.09765625 C-8.06640625 17.06765625 -8.06640625 20.03765625 -8.06640625 23.09765625 C-9.05640625 23.09765625 -10.04640625 23.09765625 -11.06640625 23.09765625 C-11.06640625 15.83765625 -11.06640625 8.57765625 -11.06640625 1.09765625 C-8.42640625 1.09765625 -5.78640625 1.09765625 -3.06640625 1.09765625 C-2.06640625 0.09765625 -2.06640625 0.09765625 0 0 Z " fill="#7287AD" transform="translate(68.06640625,79.90234375)"/>
<path d="M0 0 C0.66 0 1.32 0 2 0 C4.13391403 6.25948114 4.58955515 12.42208127 5 19 C5.66 19 6.32 19 7 19 C7 19.66 7 20.32 7 21 C7.99 21.33 8.98 21.66 10 22 C9.67 22.66 9.34 23.32 9 24 C12.465 23.505 12.465 23.505 16 23 C16 27.29 16 31.58 16 36 C12.04 36 8.08 36 4 36 C4 31.71 4 27.42 4 23 C3.34 22.67 2.68 22.34 2 22 C2 19.69 2 17.38 2 15 C1.01 15 0.02 15 -1 15 C-1 16.98 -1 18.96 -1 21 C-1.66 21 -2.32 21 -3 21 C-2.67 18.36 -2.34 15.72 -2 13 C-1.01 13 -0.02 13 1 13 C0.67 8.71 0.34 4.42 0 0 Z " fill="#335189" transform="translate(50,82)"/>
<path d="M0 0 C1.05994631 3.34594992 0.97506299 6.085523 0.625 9.5625 C0.53476563 10.51253906 0.44453125 11.46257812 0.3515625 12.44140625 C0 15 0 15 -1 18 C-1.66 18 -2.32 18 -3 18 C-3.33 20.64 -3.66 23.28 -4 26 C-1.69 26 0.62 26 3 26 C3.35054925 33.49580904 2.35823043 40.15890593 0.625 47.4375 C0.17778622 49.37325965 -0.2675327 51.30945807 -0.7109375 53.24609375 C-0.93104492 54.19210449 -1.15115234 55.13811523 -1.37792969 56.11279297 C-2.19847741 59.92119066 -2.79872265 63.75538871 -3.36181641 67.60961914 C-4.08135465 70.30472203 -5.20413399 71.89179619 -7 74 C-7.11424735 69.43010616 -6.81467477 65.43992031 -5.75 61 C-4.21804984 54.2418275 -2.98499298 47.45440458 -1.8125 40.625 C-1.63364258 39.5834375 -1.45478516 38.541875 -1.27050781 37.46875 C-0.84485043 34.97952552 -0.4212177 32.48997902 0 30 C-1.65 30 -3.3 30 -5 30 C-6.26237731 27.47524538 -6.09856404 25.68799534 -6.0625 22.875 C-6.05347656 21.96492188 -6.04445313 21.05484375 -6.03515625 20.1171875 C-6.02355469 19.41851562 -6.01195313 18.71984375 -6 18 C-5.34 18 -4.68 18 -4 18 C-3.896875 17.071875 -3.79375 16.14375 -3.6875 15.1875 C-2.96237678 10.00500168 -1.44330995 5.01981384 0 0 Z " fill="#BDC1C7" transform="translate(121,77)"/>
<path d="M0 0 C1.32 0 2.64 0 4 0 C7.19012218 5.98147909 7.75797207 11.26131682 7 18 C5.8125 21.1875 5.8125 21.1875 4 23 C1.3125 23.3125 1.3125 23.3125 -1 23 C-2.78889265 19.160598 -3.24622412 16.16029776 -3.1875 11.9375 C-3.18105469 10.91527344 -3.17460938 9.89304687 -3.16796875 8.83984375 C-3.02361581 6.39927201 -2.69892207 4.33160404 -2 2 C-1.34 2 -0.68 2 0 2 C0 1.34 0 0.68 0 0 Z " fill="#AEBAD0" transform="translate(90,80)"/>
<path d="M0 0 C0.33 0.99 0.66 1.98 1 3 C2.65 3.33 4.3 3.66 6 4 C5.34 6.64 4.68 9.28 4 12 C3.34 12 2.68 12 2 12 C2 10.02 2 8.04 2 6 C1.34 6 0.68 6 0 6 C0 9.63 0 13.26 0 17 C-2.33294775 17.04241723 -4.66702567 17.04092937 -7 17 C-8.55923778 15.44076222 -8.35685611 13.91147277 -8.5 11.75 C-8.49536363 8.83372373 -8.48758078 7.52249705 -6.47265625 5.36328125 C-4.5625 4.0625 -4.5625 4.0625 -2.62890625 2.97265625 C-0.82143523 2.09175521 -0.82143523 2.09175521 0 0 Z " fill="#183A79" transform="translate(75,101)"/>
<path d="M0 0 C0.66 0 1.32 0 2 0 C2 2.64 2 5.28 2 8 C2.66 7.67 3.32 7.34 4 7 C4 4.69 4 2.38 4 0 C4.99 0 5.98 0 7 0 C7.2210949 2.95789127 7.42740245 5.91552764 7.625 8.875 C7.68945312 9.71675781 7.75390625 10.55851562 7.8203125 11.42578125 C7.871875 12.23144531 7.9234375 13.03710938 7.9765625 13.8671875 C8.02893066 14.61081543 8.08129883 15.35444336 8.13525391 16.12060547 C8 18 8 18 6 20 C4.02 20 2.04 20 0 20 C0 13.4 0 6.8 0 0 Z " fill="#A1AFC8" transform="translate(77,83)"/>
<path d="M0 0 C0.99 0 1.98 0 3 0 C3 2.64 3 5.28 3 8 C3.66 8 4.32 8 5 8 C5 5.69 5 3.38 5 1 C5.66 1 6.32 1 7 1 C6.98839844 1.85722656 6.97679687 2.71445313 6.96484375 3.59765625 C6.9181959 9.50860552 6.91750084 15.18156704 8 21 C7.34 21 6.68 21 6 21 C5.34 19.68 4.68 18.36 4 17 C3.67 18.65 3.34 20.3 3 22 C2.01 22 1.02 22 0 22 C0 14.74 0 7.48 0 0 Z " fill="#AEBAD0" transform="translate(37,82)"/>
<path d="M0 0 C0.33 0 0.66 0 1 0 C1 1.65 1 3.3 1 5 C2.98 5.66 4.96 6.32 7 7 C7 10.63 7 14.26 7 18 C7.66 18 8.32 18 9 18 C8.54812709 23.0609766 7.67170746 27.14547968 5.765625 31.8359375 C4.37132298 35.77697484 3.71580705 39.89042539 3 44 C2.34 44 1.68 44 1 44 C0.78988459 38.02187777 1.50022393 32.9125806 2.9375 27.125 C4.44852027 20.73535517 5.57614555 14.56974393 6 8 C3.69 8 1.38 8 -1 8 C-0.67 5.36 -0.34 2.72 0 0 Z " fill="#F8B426" transform="translate(118,95)"/>
<path d="M0 0 C0.33 0 0.66 0 1 0 C1.31524665 6.78765447 0.12385578 13.25891111 -1 19.9375 C-1.19078125 21.09830078 -1.3815625 22.25910156 -1.578125 23.45507812 C-2.04712362 26.30424475 -2.52121917 29.15246375 -3 32 C-0.36 32.33 2.28 32.66 5 33 C4.67 35.97 4.34 38.94 4 42 C3.07461831 38.29847322 2.91825838 37.36541838 4 34 C2.2984375 34.0309375 2.2984375 34.0309375 0.5625 34.0625 C-3 34 -3 34 -4 33 C-4.20912703 31.56806079 -4.36791979 30.12858946 -4.5 28.6875 C-4.7942684 25.37085434 -4.7942684 25.37085434 -5.64453125 22.171875 C-6.19791343 18.79077066 -5.1184528 15.79085496 -4.1875 12.5625 C-3.91969727 11.57926758 -3.91969727 11.57926758 -3.64648438 10.57617188 C-2.63923175 6.95078969 -1.47402078 3.4616144 0 0 Z " fill="#F9C65C" transform="translate(130,56)"/>
<path d="M0 0 C2.64 0 5.28 0 8 0 C8 1.98 8 3.96 8 6 C7.34 5.67 6.68 5.34 6 5 C5.67 10.61 5.34 16.22 5 22 C4.01 22 3.02 22 2 22 C1.92652344 20.28490234 1.92652344 20.28490234 1.8515625 18.53515625 C1.77654811 17.04424527 1.70099972 15.55336108 1.625 14.0625 C1.5940625 13.30775391 1.563125 12.55300781 1.53125 11.77539062 C1.4273685 9.84492605 1.22104386 7.92057919 1 6 C0.34 5.67 -0.32 5.34 -1 5 C-0.67 3.35 -0.34 1.7 0 0 Z " fill="#A5B2CB" transform="translate(67,81)"/>
<path d="M0 0 C2.9264391 10.75371448 -3.63874836 23.79997536 -7 34 C-7.66 34 -8.32 34 -9 34 C-9.66 34.66 -10.32 35.32 -11 36 C-10.67 32.37 -10.34 28.74 -10 25 C-9.67 25.99 -9.34 26.98 -9 28 C-8.34 28 -7.68 28 -7 28 C-6.95875 26.72125 -6.9175 25.4425 -6.875 24.125 C-6.08909332 15.75811653 -2.80143608 7.86458203 0 0 Z " fill="#DED7C6" transform="translate(128,111)"/>
<path d="M0 0 C1.32 0 2.64 0 4 0 C4.33 1.32 4.66 2.64 5 4 C5.33 3.01 5.66 2.02 6 1 C7.65 1 9.3 1 11 1 C11 1.99 11 2.98 11 4 C10.34 4 9.68 4 9 4 C8.67 5.65 8.34 7.3 8 9 C8.66 9 9.32 9 10 9 C10 9.99 10 10.98 10 12 C9.360625 11.814375 8.72125 11.62875 8.0625 11.4375 C7.0415625 11.2209375 7.0415625 11.2209375 6 11 C5.67 11.33 5.34 11.66 5 12 C3.35 12 1.7 12 0 12 C0 8.04 0 4.08 0 0 Z " fill="#59719E" transform="translate(42,106)"/>
<path d="M0 0 C1.62610337 4.22786875 0.65453403 5.03639791 -1 10 C7.25 10 15.5 10 24 10 C24 9.34 24 8.68 24 8 C25.32 8 26.64 8 28 8 C28 7.34 28 6.68 28 6 C28.66 6 29.32 6 30 6 C30 5.34 30 4.68 30 4 C30.66 4 31.32 4 32 4 C32.66 2.68 33.32 1.36 34 0 C34.495 0.99 34.495 0.99 35 2 C33.75 4.625 33.75 4.625 32 7 C31.01 7 30.02 7 29 7 C29 7.66 29 8.32 29 9 C21.39443425 14.07037716 11.82506608 13.67200951 3 13 C0.04296875 11.984375 0.04296875 11.984375 -2 11 C-1.85892253 9.54119891 -1.71197585 8.08296449 -1.5625 6.625 C-1.48128906 5.81289062 -1.40007812 5.00078125 -1.31640625 4.1640625 C-1 2 -1 2 0 0 Z " fill="#466999" transform="translate(122,140)"/>
<path d="M0 0 C0.99 0 1.98 0 3 0 C3 2.31 3 4.62 3 7 C4.32 7.33 5.64 7.66 7 8 C6.34 8 5.68 8 5 8 C5 12.29 5 16.58 5 21 C4.34 21 3.68 21 3 21 C3 20.01 3 19.02 3 18 C2.34 18 1.68 18 1 18 C1 16.02 1 14.04 1 12 C1.99 12.33 2.98 12.66 4 13 C4 12.01 4 11.02 4 10 C2.35 10 0.7 10 -1 10 C-1.33 12.31 -1.66 14.62 -2 17 C-2.33 17 -2.66 17 -3 17 C-3 14.03 -3 11.06 -3 8 C-3.99 7.67 -4.98 7.34 -6 7 C-4.02 7 -2.04 7 0 7 C0 4.69 0 2.38 0 0 Z " fill="#244480" transform="translate(49,97)"/>
<path d="M0 0 C1.4540625 0.0309375 1.4540625 0.0309375 2.9375 0.0625 C3.2675 1.0525 3.5975 2.0425 3.9375 3.0625 C3.6075 3.3925 3.2775 3.7225 2.9375 4.0625 C2.89669217 6.06208364 2.89495644 8.06295254 2.9375 10.0625 C1.9475 10.3925 0.9575 10.7225 -0.0625 11.0625 C-0.0625 8.4225 -0.0625 5.7825 -0.0625 3.0625 C-0.7225 3.0625 -1.3825 3.0625 -2.0625 3.0625 C-2.0625 9.6625 -2.0625 16.2625 -2.0625 23.0625 C0.5775 22.4025 3.2175 21.7425 5.9375 21.0625 C5.6075 22.0525 5.2775 23.0425 4.9375 24.0625 C2.2975 24.0625 -0.3425 24.0625 -3.0625 24.0625 C-3.0625 19.1125 -3.0625 14.1625 -3.0625 9.0625 C-4.0525 8.7325 -5.0425 8.4025 -6.0625 8.0625 C-3.88526119 0.07929104 -3.88526119 0.07929104 0 0 Z " fill="#446093" transform="translate(79.0625,79.9375)"/>
<path d="M0 0 C0.66 0 1.32 0 2 0 C2 1.98 2 3.96 2 6 C2.66 6 3.32 6 4 6 C4 4.35 4 2.7 4 1 C5.98 1 7.96 1 10 1 C10 4.3 10 7.6 10 11 C6.7 11 3.4 11 0 11 C0 7.37 0 3.74 0 0 Z " fill="#7186AC" transform="translate(75,107)"/>
<path d="M0 0 C0.33 1.32 0.66 2.64 1 4 C0.21753906 4.06058594 -0.56492187 4.12117188 -1.37109375 4.18359375 C-2.88896484 4.30927734 -2.88896484 4.30927734 -4.4375 4.4375 C-5.44683594 4.51871094 -6.45617187 4.59992187 -7.49609375 4.68359375 C-9.93640779 4.73211468 -9.93640779 4.73211468 -11 6 C-13.1183133 6.37347673 -15.24516595 6.69909629 -17.375 7 C-20.73946018 7.47744002 -23.77494297 7.92498099 -27 9 C-27 9.66 -27 10.32 -27 11 C-28.32 11.33 -29.64 11.66 -31 12 C-31 11.34 -31 10.68 -31 10 C-30.01 10 -29.02 10 -28 10 C-28 9.34 -28 8.68 -28 8 C-25 6 -25 6 -22 6 C-22 5.34 -22 4.68 -22 4 C-17.02988327 2.00881759 -12.87666865 1.75154305 -7.625 1.875 C-6.52091797 1.88853516 -6.52091797 1.88853516 -5.39453125 1.90234375 C-3.5962112 1.92569856 -1.79806089 1.96156164 0 2 C0 1.34 0 0.68 0 0 Z " fill="#6B81A9" transform="translate(63,47)"/>
<path d="M0 0 C0.66 0 1.32 0 2 0 C4.4420792 6.83782175 4.62022758 13.79431807 5 21 C4.01 21 3.02 21 2 21 C2 19.02 2 17.04 2 15 C1.01 15 0.02 15 -1 15 C-1 16.98 -1 18.96 -1 21 C-1.66 21 -2.32 21 -3 21 C-2.67 18.36 -2.34 15.72 -2 13 C-1.01 13 -0.02 13 1 13 C0.67 8.71 0.34 4.42 0 0 Z " fill="#B8C2D5" transform="translate(50,82)"/>
<path d="M0 0 C0.99 0.33 1.98 0.66 3 1 C3 5.95 3 10.9 3 16 C1.68 16.33 0.36 16.66 -1 17 C-1.02684679 14.35409986 -1.04676357 11.70846904 -1.0625 9.0625 C-1.07087891 8.30775391 -1.07925781 7.55300781 -1.08789062 6.77539062 C-1.09652441 4.85005687 -1.05224333 2.92464419 -1 1 C-0.67 0.67 -0.34 0.34 0 0 Z " fill="#1E407D" transform="translate(91,84)"/>
<path d="M0 0 C2.64 0 5.28 0 8 0 C7.67 1.32 7.34 2.64 7 4 C6.34 3.67 5.68 3.34 5 3 C5 8.94 5 14.88 5 21 C4.34 21 3.68 21 3 21 C3 15.06 3 9.12 3 3 C2.01 3.33 1.02 3.66 0 4 C0 2.68 0 1.36 0 0 Z " fill="#B8C2D5" transform="translate(98,82)"/>
<path d="M0 0 C0.33 0 0.66 0 1 0 C-0.10778941 28.13202064 -0.10778941 28.13202064 -5 34 C-5.13345889 29.20761248 -4.72730184 25.0352266 -3.625 20.375 C-2.09547866 13.61901 -0.96815292 6.8568007 0 0 Z " fill="#B3BCCC" transform="translate(119,117)"/>
<path d="M0 0 C2.31 0 4.62 0 7 0 C7.6283815 9.73991324 5.29192372 18.60720547 3 28 C2.67 28 2.34 28 2 28 C2.14058476 25.54126232 2.28722999 23.08314825 2.4375 20.625 C2.49647461 19.57699219 2.49647461 19.57699219 2.55664062 18.5078125 C2.88671875 13.2265625 2.88671875 13.2265625 4 11 C4.22622081 9.29636178 4.40888473 7.58671299 4.5625 5.875 C4.64628906 4.96492188 4.73007813 4.05484375 4.81640625 3.1171875 C4.87699219 2.41851562 4.93757813 1.71984375 5 1 C3.35 1 1.7 1 0 1 C0 0.67 0 0.34 0 0 Z " fill="#F3E5C6" transform="translate(117,103)"/>
<path d="M0 0 C1.65 0 3.3 0 5 0 C5 3.63 5 7.26 5 11 C3.35 11 1.7 11 0 11 C0 7.37 0 3.74 0 0 Z " fill="#627AA4" transform="translate(87,107)"/>
<path d="M0 0 C0.33 0 0.66 0 1 0 C1 2.64 1 5.28 1 8 C1.99 8 2.98 8 4 8 C4 5.36 4 2.72 4 0 C4.66 0 5.32 0 6 0 C6 2.97 6 5.94 6 9 C4.68 9.33 3.36 9.66 2 10 C2 13.3 2 16.6 2 20 C1.34 20 0.68 20 0 20 C0 13.4 0 6.8 0 0 Z " fill="#C9D1DF" transform="translate(58,83)"/>
<path d="M0 0 C2.475 0.495 2.475 0.495 5 1 C5 4.3 5 7.6 5 11 C3.35 11 1.7 11 0 11 C0 7.37 0 3.74 0 0 Z " fill="#6F85AC" transform="translate(61,107)"/>
<path d="M0 0 C1.32 0 2.64 0 4 0 C4 3.63 4 7.26 4 11 C2.35 11 0.7 11 -1 11 C-1.02688151 9.35425434 -1.04634123 7.70838587 -1.0625 6.0625 C-1.07410156 5.14597656 -1.08570313 4.22945313 -1.09765625 3.28515625 C-1 1 -1 1 0 0 Z " fill="#7489AE" transform="translate(55,107)"/>
<path d="M0 0 C1.98 0 3.96 0 6 0 C7.231394 3.69418201 6.64432764 6.2056261 6 10 C5.34 10 4.68 10 4 10 C4 7.36 4 4.72 4 2 C3.01 2 2.02 2 1 2 C1 8.93 1 15.86 1 23 C0.67 23 0.34 23 0 23 C0 15.41 0 7.82 0 0 Z " fill="#335188" transform="translate(36,80)"/>
<path d="M0 0 C0.66 0 1.32 0 2 0 C2.33 2.64 2.66 5.28 3 8 C3.66 7.67 4.32 7.34 5 7 C7.3329866 6.95977609 9.66706666 6.95679753 12 7 C12 7.33 12 7.66 12 8 C10.02 8 8.04 8 6 8 C5.34 11.96 4.68 15.92 4 20 C3.67 20 3.34 20 3 20 C3 16.7 3 13.4 3 10 C2.01 10.33 1.02 10.66 0 11 C0 7.37 0 3.74 0 0 Z " fill="#C7CED9" transform="translate(129,42)"/>
<path d="M0 0 C1.485 0.99 1.485 0.99 3 2 C3.4765625 4.64453125 3.4765625 4.64453125 3.625 7.8125 C3.82502723 11.64635517 4.15463489 15.25129079 5 19 C3.0625 18.5 3.0625 18.5 1 17 C-0.18687052 11.36236501 -0.11966553 5.74394522 0 0 Z " fill="#2D4C85" transform="translate(84,84)"/>
<path d="M0 0 C0.66 0 1.32 0 2 0 C2 1.98 2 3.96 2 6 C2.66 6 3.32 6 4 6 C4 4.35 4 2.7 4 1 C4.33 1 4.66 1 5 1 C5.125 8.75 5.125 8.75 4 11 C2.68 11 1.36 11 0 11 C0 7.37 0 3.74 0 0 Z " fill="#647BA5" transform="translate(75,107)"/>
<path d="M0 0 C0.33 0 0.66 0 1 0 C1.31620422 6.79839071 0.12676382 13.30983984 -1 20 C-3.553182 17.01026357 -4.01289576 16.38687283 -3.875 12.25 C-3.15130118 7.92406995 -1.6623987 4.04757945 0 0 Z " fill="#F9CB6C" transform="translate(130,56)"/>
<path d="M0 0 C2.31 0.33 4.62 0.66 7 1 C7 1.66 7 2.32 7 3 C12.28 3 17.56 3 23 3 C23 2.34 23 1.68 23 1 C24.98 0.67 26.96 0.34 29 0 C29 0.66 29 1.32 29 2 C24.53725616 4.53258507 20.64717208 4.33163938 15.625 4.3125 C14.78710938 4.32861328 13.94921875 4.34472656 13.0859375 4.36132812 C7.9504273 4.36536548 4.48885439 3.77080752 0 1 C0 0.67 0 0.34 0 0 Z " fill="#5C75A0" transform="translate(82,153)"/>
<path d="M0 0 C1.65 0 3.3 0 5 0 C5 3.3 5 6.6 5 10 C3.68 9.67 2.36 9.34 1 9 C1.66 9 2.32 9 3 9 C2.505 8.2575 2.01 7.515 1.5 6.75 C0 4 0 4 0 0 Z " fill="#647BA5" transform="translate(103,107)"/>
<path d="M0 0 C1.32 0 2.64 0 4 0 C4.33 0.99 4.66 1.98 5 3 C4.03320312 3.27457031 4.03320312 3.27457031 3.046875 3.5546875 C0.62555056 4.90811895 0.62555056 4.90811895 0.390625 8.2578125 C0.34421875 9.53398438 0.2978125 10.81015625 0.25 12.125 C0.19328125 13.40632813 0.1365625 14.68765625 0.078125 16.0078125 C0.05234375 16.99523437 0.0265625 17.98265625 0 19 C-0.33 19 -0.66 19 -1 19 C-1.33 13.39 -1.66 7.78 -2 2 C-1.34 2 -0.68 2 0 2 C0 1.34 0 0.68 0 0 Z " fill="#8697B9" transform="translate(90,80)"/>
<path d="M0 0 C1.21816406 0.03480469 1.21816406 0.03480469 2.4609375 0.0703125 C3.68683594 0.09738281 3.68683594 0.09738281 4.9375 0.125 C5.87722656 0.15980469 5.87722656 0.15980469 6.8359375 0.1953125 C6.8359375 0.5253125 6.8359375 0.8553125 6.8359375 1.1953125 C4.1959375 1.5253125 1.5559375 1.8553125 -1.1640625 2.1953125 C-0.8340625 4.1753125 -0.5040625 6.1553125 -0.1640625 8.1953125 C-1.1540625 8.6903125 -1.1540625 8.6903125 -2.1640625 9.1953125 C-2.81961369 11.72264485 -2.81961369 11.72264485 -3.1640625 14.1953125 C-4.8140625 14.1953125 -6.4640625 14.1953125 -8.1640625 14.1953125 C-7.1740625 13.5353125 -6.1840625 12.8753125 -5.1640625 12.1953125 C-4.65625143 9.83437024 -4.65625143 9.83437024 -4.6015625 7.1953125 C-4.27494466 0.38582533 -4.27494466 0.38582533 0 0 Z " fill="#476394" transform="translate(68.1640625,79.8046875)"/>
<path d="M0 0 C1.20220203 3.53094302 0.79532349 6.12898982 0.0625 9.75 C-0.13214844 10.73484375 -0.32679688 11.7196875 -0.52734375 12.734375 C-0.68332031 13.48203125 -0.83929688 14.2296875 -1 15 C-1.99 15.33 -2.98 15.66 -4 16 C-4.33 16.99 -4.66 17.98 -5 19 C-4.39297368 12.3227105 -2.22368606 6.29872004 0 0 Z " fill="#35548A" transform="translate(131,111)"/>
<path d="M0 0 C1.1373985 4.25693004 1.02410242 7.70767509 0 12 C-1.4375 14.125 -1.4375 14.125 -3 16 C-3.72351427 17.98014432 -4.40265389 19.97821315 -5 22 C-6.08557892 18.74004193 -5.91310151 16.89457573 -4.78515625 13.671875 C-4.51123047 12.87265625 -4.23730469 12.0734375 -3.95507812 11.25 C-3.51325195 10.0125 -3.51325195 10.0125 -3.0625 8.75 C-2.77181641 7.90953125 -2.48113281 7.0690625 -2.18164062 6.203125 C-1.46378767 4.13194269 -0.73633881 2.06466738 0 0 Z " fill="#F2DAA5" transform="translate(128,111)"/>
<path d="M0 0 C0.99 0 1.98 0 3 0 C3.33 3.63 3.66 7.26 4 11 C2.68 11 1.36 11 0 11 C0 7.37 0 3.74 0 0 Z " fill="#7589AF" transform="translate(98,107)"/>
<path d="M0 0 C0.33 0 0.66 0 1 0 C2.32528788 6.09632423 1.46619907 10.97767819 0 17 C-0.66 17 -1.32 17 -2 17 C-2.21824777 10.9981863 -1.5056904 5.80766296 0 0 Z " fill="#F9C559" transform="translate(121,122)"/>
<path d="M0 0 C0.99 0.33 1.98 0.66 3 1 C2.34 1 1.68 1 1 1 C1.33 5.29 1.66 9.58 2 14 C1.01 14 0.02 14 -1 14 C-1 15.65 -1 17.3 -1 19 C-1.33 19 -1.66 19 -2 19 C-2.125 12.25 -2.125 12.25 -1 10 C-0.77377919 8.29636178 -0.59111527 6.58671299 -0.4375 4.875 C-0.35371094 3.96492188 -0.26992188 3.05484375 -0.18359375 2.1171875 C-0.12300781 1.41851562 -0.06242187 0.71984375 0 0 Z " fill="#687FA7" transform="translate(49,81)"/>
<path d="M0 0 C0.66 0.33 1.32 0.66 2 1 C2 3.64 2 6.28 2 9 C0.35 9.33 -1.3 9.66 -3 10 C-3 7.03 -3 4.06 -3 1 C-2.67 1 -2.34 1 -2 1 C-2 2.98 -2 4.96 -2 7 C-1.34 7 -0.68 7 0 7 C0 4.69 0 2.38 0 0 Z " fill="#7B8FB3" transform="translate(71,108)"/>
<path d="M0 0 C1.32 0.33 2.64 0.66 4 1 C3.34 3.64 2.68 6.28 2 9 C1.34 9 0.68 9 0 9 C-0.66 9.66 -1.32 10.32 -2 11 C-2.05399736 9.54207116 -2.09279177 8.08357288 -2.125 6.625 C-2.15980469 5.40683594 -2.15980469 5.40683594 -2.1953125 4.1640625 C-2 2 -2 2 0 0 Z " fill="#3D5A8E" transform="translate(69,106)"/>
<path d="M0 0 C1.65 0 3.3 0 5 0 C5 3 5 6 5 9 C4.01 9.33 3.02 9.66 2 10 C2 7.36 2 4.72 2 2 C1.34 2 0.68 2 0 2 C0 1.34 0 0.68 0 0 Z " fill="#697FA8" transform="translate(77,81)"/>
<path d="M0 0 C0.99 0.33 1.98 0.66 3 1 C3 4.3 3 7.6 3 11 C2.01 11 1.02 11 0 11 C0 7.37 0 3.74 0 0 Z " fill="#5F77A2" transform="translate(93,107)"/>
<path d="M0 0 C0.33 0 0.66 0 1 0 C1 1.65 1 3.3 1 5 C2.98 5.66 4.96 6.32 7 7 C7 8.98 7 10.96 7 13 C6.67 13 6.34 13 6 13 C6 11.35 6 9.7 6 8 C3.69 8 1.38 8 -1 8 C-0.67 5.36 -0.34 2.72 0 0 Z " fill="#F9CA67" transform="translate(118,95)"/>
<path d="M0 0 C2.42479736 3.63719605 2.38662577 5.85703482 2.625 10.1875 C2.69976562 11.45980469 2.77453125 12.73210937 2.8515625 14.04296875 C2.92503906 15.50669922 2.92503906 15.50669922 3 17 C2.01 17 1.02 17 0 17 C0 11.39 0 5.78 0 0 Z " fill="#9CABC6" transform="translate(52,86)"/>
<path d="M0 0 C0.845625 0.474375 1.69125 0.94875 2.5625 1.4375 C8.56143413 4.07603534 15.5396499 3.75888011 22 4 C22 4.33 22 4.66 22 5 C16.06 5 10.12 5 4 5 C4 4.34 4 3.68 4 3 C2.68 2.67 1.36 2.34 0 2 C0 1.34 0 0.68 0 0 Z " fill="#B6C1D5" transform="translate(81,153)"/>
<path d="M0 0 C0.33 0.66 0.66 1.32 1 2 C-0.25 4.625 -0.25 4.625 -2 7 C-2.99 7 -3.98 7 -5 7 C-5 7.66 -5 8.32 -5 9 C-6.65 9.66 -8.3 10.32 -10 11 C-10 10.01 -10 9.02 -10 8 C-8.68 8 -7.36 8 -6 8 C-6 7.34 -6 6.68 -6 6 C-5.34 6 -4.68 6 -4 6 C-4 5.34 -4 4.68 -4 4 C-3.34 4 -2.68 4 -2 4 C-1.34 2.68 -0.68 1.36 0 0 Z " fill="#97ABC5" transform="translate(156,140)"/>
<path d="M0 0 C0.93423645 3.01031744 1.04449911 3.86650268 0 7 C-2.31 6.67 -4.62 6.34 -7 6 C-6.875 4.125 -6.875 4.125 -6 2 C-2.9375 0.75 -2.9375 0.75 0 0 Z " fill="#345289" transform="translate(95,101)"/>
<path d="M0 0 C1.32 0 2.64 0 4 0 C3.67 3.63 3.34 7.26 3 11 C2.34 11 1.68 11 1 11 C0.67 7.37 0.34 3.74 0 0 Z " fill="#788CB1" transform="translate(36,107)"/>
<path d="M0 0 C0.66 0 1.32 0 2 0 C2 4.62 2 9.24 2 14 C1.01 14.495 1.01 14.495 0 15 C0 12.36 0 9.72 0 7 C-0.33 7 -0.66 7 -1 7 C-1.04254356 5.00045254 -1.04080783 2.99958364 -1 1 C-0.67 0.67 -0.34 0.34 0 0 Z " fill="#F5E9CE" transform="translate(130,52)"/>
<path d="M0 0 C0.99 0 1.98 0 3 0 C3.125 6.75 3.125 6.75 2 9 C2.66 9.33 3.32 9.66 4 10 C2.68 10 1.36 10 0 10 C0 6.7 0 3.4 0 0 Z " fill="#7F92B5" transform="translate(42,107)"/>
<path d="M0 0 C1.57156655 3.1431331 0.11705576 5.365464 -0.9375 8.625 C-1.31777344 9.81351563 -1.69804687 11.00203125 -2.08984375 12.2265625 C-2.39019531 13.14179687 -2.69054687 14.05703125 -3 15 C-3.33 15 -3.66 15 -4 15 C-3.67 11.37 -3.34 7.74 -3 4 C-2.34 4 -1.68 4 -1 4 C-0.67 2.68 -0.34 1.36 0 0 Z " fill="#CDD1D6" transform="translate(132,105)"/>
<path d="M0 0 C0.66 0 1.32 0 2 0 C2 2.97 2 5.94 2 9 C0.68 9.33 -0.64 9.66 -2 10 C-2 9.34 -2 8.68 -2 8 C-1.34 8 -0.68 8 0 8 C0 5.36 0 2.72 0 0 Z " fill="#B3BED3" transform="translate(62,83)"/>
<path d="M0 0 C0.66 0.33 1.32 0.66 2 1 C1.67 1.99 1.34 2.98 1 4 C0.34 4 -0.32 4 -1 4 C-1 4.66 -1 5.32 -1 6 C-1.66 6 -2.32 6 -3 6 C-3 6.66 -3 7.32 -3 8 C-4.32 8.33 -5.64 8.66 -7 9 C-6.34 7.68 -5.68 6.36 -5 5 C-4.01 5 -3.02 5 -2 5 C-1.855625 4.360625 -1.71125 3.72125 -1.5625 3.0625 C-1 1 -1 1 0 0 Z " fill="#697FA8" transform="translate(77,26)"/>
<path d="M0 0 C1.98 0 3.96 0 6 0 C5.34 3.3 4.68 6.6 4 10 C3.67 10 3.34 10 3 10 C3 7.03 3 4.06 3 1 C2.01 0.67 1.02 0.34 0 0 Z " fill="#1B3D7B" transform="translate(43,104)"/>
<path d="M0 0 C2.5 1.3125 2.5 1.3125 5 3 C5 3.99 5 4.98 5 6 C3.68 6 2.36 6 1 6 C0.67 6.99 0.34 7.98 0 9 C0 6.03 0 3.06 0 0 Z " fill="#284882" transform="translate(35,101)"/>
<path d="M0 0 C1.65 0 3.3 0 5 0 C6.53445094 3.06890187 5.54984289 5.70094266 5 9 C4.34 9 3.68 9 3 9 C3 6.36 3 3.72 3 1 C2.01 0.67 1.02 0.34 0 0 Z " fill="#506A9A" transform="translate(37,81)"/>
<path d="M0 0 C0.66 0 1.32 0 2 0 C2.36630156 3.93774177 2.30233203 5.56539771 0 8.875 C-0.66 9.57625 -1.32 10.2775 -2 11 C-1 3.57142857 -1 3.57142857 0 0 Z " fill="#EEE1C6" transform="translate(132,98)"/>
<path d="M0 0 C2.64 0 5.28 0 8 0 C8 1.98 8 3.96 8 6 C7.01 5.34 6.02 4.68 5 4 C5 3.01 5 2.02 5 1 C3.35 1 1.7 1 0 1 C0 0.67 0 0.34 0 0 Z " fill="#7E92B4" transform="translate(67,81)"/>
<path d="M0 0 C0.66 0.33 1.32 0.66 2 1 C1.67 1.99 1.34 2.98 1 4 C0.34 4 -0.32 4 -1 4 C-1 4.66 -1 5.32 -1 6 C-2.32 6.33 -3.64 6.66 -5 7 C-3.70700306 4.11562221 -2.34058637 2.12780579 0 0 Z " fill="#7186AD" transform="translate(30,59)"/>
<path d="M0 0 C1.32 0 2.64 0 4 0 C4.33 0.99 4.66 1.98 5 3 C2.69 3.33 0.38 3.66 -2 4 C-2 3.34 -2 2.68 -2 2 C-1.34 2 -0.68 2 0 2 C0 1.34 0 0.68 0 0 Z " fill="#5D75A1" transform="translate(90,80)"/>
</svg>
