<?xml version="1.0" encoding="UTF-8"?>
<svg version="1.1" xmlns="http://www.w3.org/2000/svg" width="1080" height="1080">
<path d="M0 0 C0.68126953 -0.01224609 1.36253906 -0.02449219 2.06445312 -0.03710938 C5.79079809 -0.04805848 7.38241571 0.06744381 10.5625 2.1875 C11.265625 4.71875 11.265625 4.71875 11.8125 7.6875 C12.93036147 12.35093391 12.93036147 12.35093391 16.75 15.25 C21.58499428 15.1707378 23.01136984 13.54211227 26.59765625 10.5546875 C28.5625 9.1875 28.5625 9.1875 32 8.875 C36.92537973 10.68961359 40.82202114 13.51123537 44.5625 17.1875 C45.72064487 20.66193462 45.35916026 21.28731504 44.0625 24.5625 C42.7651233 28.19515477 42.23972686 30.43964277 43.5625 34.1875 C43.8925 35.1775 44.2225 36.1675 44.5625 37.1875 C49.1825 37.1875 53.8025 37.1875 58.5625 37.1875 C64.47031315 50.33714862 64.47031315 50.33714862 63.5625 56.1875 C60.77716085 58.73173918 57.43218164 61.1875 53.5625 61.1875 C53.38467295 64.3883869 53.52180577 67.1397526 54.5625 70.1875 C57.2858719 72.73102659 60.2595324 74.48597124 63.5625 76.1875 C63.12949236 83.00737029 61.65462176 88.10393021 58.5625 94.1875 C57.58667969 94.21328125 56.61085938 94.2390625 55.60546875 94.265625 C54.33316406 94.32234375 53.06085938 94.3790625 51.75 94.4375 C50.48542969 94.48390625 49.22085938 94.5303125 47.91796875 94.578125 C44.56239568 94.90133406 44.56239568 94.90133406 42.52734375 96.89453125 C41.21653355 100.00969557 41.84240217 101.46673785 42.9375 104.625 C44.28540292 108.56460245 45.13064922 111.22250483 43.5625 115.1875 C41.015625 117.49609375 41.015625 117.49609375 37.8125 119.625 C36.76578125 120.34558594 35.7190625 121.06617188 34.640625 121.80859375 C31.5625 123.1875 31.5625 123.1875 28.81640625 122.51171875 C26.59230851 121.20501315 24.56192271 119.81665924 22.5625 118.1875 C23.10588103 122.398703 24.66806892 125.89640909 26.4296875 129.7109375 C26.80351563 130.52820313 27.17734375 131.34546875 27.5625 132.1875 C28.17738281 133.26773438 28.79226563 134.34796875 29.42578125 135.4609375 C30.79957119 139.96470246 30.19152892 141.33914457 28.08007812 145.34375 C27.68240234 146.0346875 27.28472656 146.725625 26.875 147.4375 C26.49666016 148.14390625 26.11832031 148.8503125 25.72851562 149.578125 C24.12131445 152.55046203 22.43871169 155.37318246 20.5625 158.1875 C17.75609893 158.4099948 15.23133108 158.46838481 12.4375 158.375 C9.83875 158.313125 7.24 158.25125 4.5625 158.1875 C4.5625 165.4475 4.5625 172.7075 4.5625 180.1875 C6.42777344 180.17589844 8.29304687 180.16429687 10.21484375 180.15234375 C12.64322817 180.14296775 15.07161367 180.13386735 17.5 180.125 C18.73169922 180.11662109 19.96339844 180.10824219 21.23242188 180.09960938 C22.40224609 180.09638672 23.57207031 180.09316406 24.77734375 180.08984375 C25.86136475 180.08460693 26.94538574 180.07937012 28.06225586 180.07397461 C30.5625 180.1875 30.5625 180.1875 31.5625 181.1875 C31.78082989 185.58748945 31.74829146 189.99284812 31.74780273 194.39770508 C31.74998751 196.61233782 31.76813531 198.82647123 31.78710938 201.04101562 C31.79004356 202.44270662 31.79202819 203.8444 31.79296875 205.24609375 C31.79707764 206.52798584 31.80118652 207.80987793 31.80541992 209.13061523 C31.5625 212.1875 31.5625 212.1875 29.5625 214.1875 C27.04052734 214.41455078 27.04052734 214.41455078 23.8984375 214.3828125 C22.77695312 214.37636719 21.65546875 214.36992188 20.5 214.36328125 C18.7365625 214.33814453 18.7365625 214.33814453 16.9375 214.3125 C15.75414062 214.30347656 14.57078125 214.29445313 13.3515625 214.28515625 C10.42167477 214.26152812 7.4921866 214.22858514 4.5625 214.1875 C3.54707611 219.42193863 2.93595195 224.39798037 5.5625 229.1875 C11.09703703 234.00827794 18.09660392 236.93837368 24.76416016 239.86987305 C27.5625 241.1875 27.5625 241.1875 30.59765625 243.30712891 C35.80868958 246.31300556 41.60996099 245.77113633 47.4609375 245.76171875 C48.69163971 245.77588333 49.92234192 245.79004791 51.19033813 245.80464172 C55.10614867 245.8464613 59.02149773 245.86177514 62.9375 245.875 C66.87471692 245.90136957 70.8118209 245.93847868 74.74893188 245.97749329 C77.19612296 246.0000569 79.64338742 246.01582962 82.09066772 246.02433777 C83.18916046 246.03137222 84.2876532 246.03840668 85.41943359 246.0456543 C86.8766835 246.05087349 86.8766835 246.05087349 88.3633728 246.05619812 C90.5625 246.1875 90.5625 246.1875 91.5625 247.1875 C91.65111992 249.9991338 91.67772355 252.78608255 91.66015625 255.59765625 C91.65803383 256.86070839 91.65803383 256.86070839 91.65586853 258.14927673 C91.65025263 260.84955335 91.63769748 263.54974828 91.625 266.25 C91.61998705 268.07617068 91.61542379 269.90234266 91.61132812 271.72851562 C91.60027804 276.21487542 91.58300279 280.70117384 91.5625 285.1875 C92.57570313 285.15269531 93.58890625 285.11789062 94.6328125 285.08203125 C95.9843583 285.05387405 97.33592219 285.02657597 98.6875 285 C99.68523437 284.96229492 99.68523437 284.96229492 100.703125 284.92382812 C105.44593661 284.8540809 108.54434051 285.6922581 112.5625 288.1875 C116.72497736 292.44457911 119.5058076 296.25446476 119.59375 302.35546875 C119.2417566 307.60897022 118.13154008 311.14884938 114.5625 315.1875 C109.02929346 319.03255746 104.99726289 319.78448735 98.33984375 319.71875 C97.47613663 319.7225769 96.6124295 319.72640381 95.72254944 319.73034668 C93.90641099 319.73305524 92.09023283 319.72576839 90.27416992 319.70898438 C87.50415737 319.6875322 84.73673031 319.70883434 81.96679688 319.734375 C80.19530682 319.73173205 78.42381835 319.72660773 76.65234375 319.71875 C75.83031967 319.72684692 75.00829559 319.73494385 74.16136169 319.74328613 C67.63129691 319.63742724 63.97963155 317.60463155 59.3125 312.9375 C56.28644486 308.18227049 55.00072909 303.66243988 56.125 298.0625 C57.43377831 293.81939071 59.38813945 291.289716 62.5625 288.1875 C68.5625 285.1875 68.5625 285.1875 83.5625 285.1875 C83.5625 274.6275 83.5625 264.0675 83.5625 253.1875 C45.86482285 251.00519089 45.86482285 251.00519089 12.43237305 265.76733398 C10.5625 267.1875 10.5625 267.1875 7.53515625 268.62109375 C5.1684133 270.15327769 5.1684133 270.15327769 4.85546875 273.76171875 C4.79589267 275.13196863 4.76152518 276.50350403 4.75 277.875 C4.72486328 278.57689453 4.69972656 279.27878906 4.67382812 280.00195312 C4.61505552 281.72986781 4.5858903 283.4587443 4.5625 285.1875 C5.4803125 285.14109375 6.398125 285.0946875 7.34375 285.046875 C21.22959501 284.63846779 21.22959501 284.63846779 26.5625 289.1875 C30.27930363 293.15087292 31.86613794 296.87981645 32.0625 302.3125 C31.7733882 307.28065806 30.73581571 311.00230825 27.1328125 314.625 C21.92243878 319.18731728 17.62984437 319.3655954 10.984375 319.42578125 C10.13957581 319.433853 9.29477661 319.44192474 8.42437744 319.45024109 C6.63564091 319.46406834 4.84687814 319.47479657 3.05810547 319.48266602 C0.33639826 319.49984912 -2.3840844 319.54374274 -5.10546875 319.58789062 C-6.84634527 319.59802085 -8.58723208 319.60653593 -10.328125 319.61328125 C-11.13566223 319.63078934 -11.94319946 319.64829742 -12.77520752 319.66633606 C-18.47276569 319.64470532 -21.75726788 318.47798669 -26.4375 315.1875 C-30.68931534 309.704896 -32.13537281 305.10039107 -31.4375 298.1875 C-29.58830845 292.74870134 -26.06163162 289.41388275 -21.4375 286.1875 C-17.81668537 284.98056179 -14.5124281 285.07967921 -10.75 285.125 C-8.336875 285.145625 -5.92375 285.16625 -3.4375 285.1875 C-3.4375 280.2375 -3.4375 275.2875 -3.4375 270.1875 C-5.0875 269.5275 -6.7375 268.8675 -8.4375 268.1875 C-10.35169265 267.21157388 -12.25200566 266.20813377 -14.140625 265.18359375 C-15.2028125 264.60802734 -16.265 264.03246094 -17.359375 263.43945312 C-19.00679687 262.54129883 -19.00679687 262.54129883 -20.6875 261.625 C-21.80125 261.02236328 -22.915 260.41972656 -24.0625 259.79882812 C-32.30338368 255.32161632 -32.30338368 255.32161632 -33.4375 254.1875 C-35.00198383 254.06486612 -36.57182772 254.00970478 -38.14086914 253.98217773 C-39.14183121 253.96223251 -40.14279327 253.94228729 -41.17408752 253.92173767 C-42.2626152 253.90502518 -43.35114288 253.88831268 -44.47265625 253.87109375 C-46.1352372 253.8399221 -46.1352372 253.8399221 -47.83140564 253.80812073 C-51.38753808 253.74250377 -54.94374703 253.68368404 -58.5 253.625 C-60.90430493 253.58182632 -63.30860199 253.53821242 -65.71289062 253.49414062 C-71.62101635 253.38597805 -77.5291964 253.2869949 -83.4375 253.1875 C-83.4375 263.7475 -83.4375 274.3075 -83.4375 285.1875 C-78.8175 285.1875 -74.1975 285.1875 -69.4375 285.1875 C-63.51864438 287.13342514 -60.30827292 289.42488417 -57.28125 294.90625 C-55.31657161 300.21815824 -55.76848761 305.21763018 -57.5625 310.5 C-60.44105716 314.62593192 -63.57112953 317.56537651 -68.4375 319.1875 C-71.30484279 319.32072376 -74.14702776 319.3998013 -77.015625 319.42578125 C-77.86042419 319.433853 -78.70522339 319.44192474 -79.57562256 319.45024109 C-81.36435909 319.46406834 -83.15312186 319.47479657 -84.94189453 319.48266602 C-87.66360174 319.49984912 -90.3840844 319.54374274 -93.10546875 319.58789062 C-94.84634527 319.59802085 -96.58723208 319.60653593 -98.328125 319.61328125 C-99.13566223 319.63078934 -99.94319946 319.64829742 -100.77520752 319.66633606 C-106.47276569 319.64470532 -109.75726788 318.47798669 -114.4375 315.1875 C-118.68931534 309.704896 -120.13537281 305.10039107 -119.4375 298.1875 C-117.58830845 292.74870134 -114.06163162 289.41388275 -109.4375 286.1875 C-105.81882441 284.9812748 -102.51243749 285.07933082 -98.75 285.125 C-98.04810547 285.12951172 -97.34621094 285.13402344 -96.62304688 285.13867188 C-94.89449462 285.15043073 -93.16598635 285.16836546 -91.4375 285.1875 C-91.44535522 283.46865601 -91.44535522 283.46865601 -91.45336914 281.71508789 C-91.47141717 277.47909318 -91.48293128 273.24310188 -91.49243164 269.00708008 C-91.49747231 267.17081125 -91.50430477 265.33454646 -91.51293945 263.49829102 C-91.52501672 260.86473599 -91.53073081 258.23123384 -91.53515625 255.59765625 C-91.54031754 254.77161392 -91.54547882 253.94557159 -91.55079651 253.09449768 C-91.55099205 251.12513632 -91.49954152 249.15588386 -91.4375 247.1875 C-90.4375 246.1875 -90.4375 246.1875 -88.31480408 246.12348938 C-86.90782005 246.16351326 -86.90782005 246.16351326 -85.47241211 246.2043457 C-79.42356226 246.34789754 -73.37779733 246.41366413 -67.32739258 246.45385742 C-64.73325654 246.48414291 -62.13926629 246.53742737 -59.54614258 246.6159668 C-40.29976375 247.16820347 -27.55728464 244.06216269 -11.84669495 232.67887878 C-9.4375 231.1875 -9.4375 231.1875 -3.4375 229.1875 C-3.4375 224.2375 -3.4375 219.2875 -3.4375 214.1875 C-5.20738281 214.21070313 -6.97726562 214.23390625 -8.80078125 214.2578125 C-11.11718329 214.27656879 -13.43358988 214.29476914 -15.75 214.3125 C-16.91724609 214.32925781 -18.08449219 214.34601563 -19.28710938 214.36328125 C-20.96450195 214.37294922 -20.96450195 214.37294922 -22.67578125 214.3828125 C-24.2232605 214.39852295 -24.2232605 214.39852295 -25.80200195 214.41455078 C-28.4375 214.1875 -28.4375 214.1875 -31.4375 212.1875 C-31.82568359 209.14648438 -31.82568359 209.14648438 -31.8359375 205.28125 C-31.83880768 204.60074585 -31.84167786 203.9202417 -31.84463501 203.21911621 C-31.84667695 201.78002084 -31.84113786 200.34089779 -31.82861328 198.90185547 C-31.81255937 196.6956594 -31.82845531 194.49129516 -31.84765625 192.28515625 C-31.84567384 190.88801678 -31.8418302 189.49087845 -31.8359375 188.09375 C-31.83255371 186.81822266 -31.82916992 185.54269531 -31.82568359 184.22851562 C-31.63353271 182.72321289 -31.63353271 182.72321289 -31.4375 181.1875 C-27.99116118 178.88994078 -26.72681609 178.95106024 -22.67578125 178.9921875 C-20.99838867 179.00185547 -20.99838867 179.00185547 -19.28710938 179.01171875 C-17.53624023 179.03685547 -17.53624023 179.03685547 -15.75 179.0625 C-13.98172852 179.07603516 -13.98172852 179.07603516 -12.17773438 179.08984375 C-9.26423658 179.11343483 -6.35084296 179.14930614 -3.4375 179.1875 C-3.4375 172.2575 -3.4375 165.3275 -3.4375 158.1875 C-8.89790124 158.34539851 -8.89790124 158.34539851 -14.35668945 158.54785156 C-19.93228177 158.62942955 -19.93228177 158.62942955 -22.24609375 156.60546875 C-22.63925781 155.80753906 -23.03242188 155.00960937 -23.4375 154.1875 C-24.35789062 152.56521484 -24.35789062 152.56521484 -25.296875 150.91015625 C-25.93144257 149.69236578 -26.56156402 148.47224947 -27.1875 147.25 C-27.51621094 146.64220703 -27.84492188 146.03441406 -28.18359375 145.40820312 C-29.56330216 142.70991262 -30.45820668 140.67410707 -30.328125 137.6171875 C-28.86192823 133.61729983 -26.82367188 129.96943078 -24.8125 126.22265625 C-23.42420628 123.15815563 -22.834117 120.51412512 -22.4375 117.1875 C-23.10845703 117.74630859 -23.10845703 117.74630859 -23.79296875 118.31640625 C-24.39753906 118.78949219 -25.00210938 119.26257813 -25.625 119.75 C-26.21667969 120.22566406 -26.80835938 120.70132813 -27.41796875 121.19140625 C-29.4375 122.1875 -29.4375 122.1875 -31.8125 122.09375 C-35.12371797 120.95059141 -37.46345218 119.24009051 -40.25 117.125 C-41.22582031 116.39152344 -42.20164062 115.65804687 -43.20703125 114.90234375 C-43.94308594 114.33644531 -44.67914063 113.77054687 -45.4375 113.1875 C-45.03267808 109.7465137 -44.65558913 106.7084907 -43.3125 103.5 C-42.3010091 100.82677404 -42.39002329 99.80619177 -43.4375 97.1875 C-44.0975 96.1975 -44.7575 95.2075 -45.4375 94.1875 C-48.78363512 93.60062216 -48.78363512 93.60062216 -52.5625 93.5 C-53.84382813 93.43425781 -55.12515625 93.36851562 -56.4453125 93.30078125 C-57.43273437 93.26339844 -58.42015625 93.22601563 -59.4375 93.1875 C-62.09788099 87.6248852 -63.39982949 82.25482052 -64.4375 76.1875 C-62.98384731 75.01500647 -61.52442581 73.84966184 -60.0625 72.6875 C-59.25039063 72.0378125 -58.43828125 71.388125 -57.6015625 70.71875 C-55.4375 69.1875 -55.4375 69.1875 -53.4375 69.1875 C-53.36014893 65.05835178 -53.36014893 65.05835178 -54.4375 61.1875 C-56.50624423 59.4899977 -56.50624423 59.4899977 -59 58.125 C-63.3489104 55.5350438 -63.3489104 55.5350438 -64.25 52 C-61.54166667 39.29166667 -61.54166667 39.29166667 -58.4375 36.1875 C-54.87781275 36.02362693 -51.32049157 35.93253063 -47.7578125 35.859375 C-44.31066417 35.50952697 -44.31066417 35.50952697 -42.41015625 32.890625 C-41.23626786 30.33061339 -41.23626786 30.33061339 -41.80078125 28.125 C-42.11402344 27.485625 -42.42726563 26.84625 -42.75 26.1875 C-44.26331513 23.02039322 -44.99057693 20.71404994 -44.4375 17.1875 C-42.4609375 14.984375 -42.4609375 14.984375 -39.8125 12.9375 C-38.95398438 12.25171875 -38.09546875 11.5659375 -37.2109375 10.859375 C-34.11822682 8.99503673 -32.04542365 8.28435701 -28.4375 8.1875 C-26.34765625 9.4375 -26.34765625 9.4375 -24.5 11.1875 C-21.76702893 13.54878483 -21.76702893 13.54878483 -18.37109375 14.3671875 C-16.23620722 14.07277739 -16.23620722 14.07277739 -13.4375 13.1875 C-13.17195313 12.33285156 -12.90640625 11.47820312 -12.6328125 10.59765625 C-12.27960938 9.49292969 -11.92640625 8.38820313 -11.5625 7.25 C-11.21445312 6.14785156 -10.86640625 5.04570312 -10.5078125 3.91015625 C-8.56084269 -1.04253702 -4.68322357 0.00440567 0 0 Z M-3.4375 7.1875 C-3.94309908 8.62304025 -4.4417749 10.0610202 -4.9375 11.5 C-5.2159375 12.30050781 -5.494375 13.10101563 -5.78125 13.92578125 C-6.57683107 16.27519422 -6.57683107 16.27519422 -6.4375 19.1875 C-18.50295455 23.04931818 -18.50295455 23.04931818 -24.4375 21.1875 C-26.67333843 19.6720984 -28.46730532 18.06158762 -30.4375 16.1875 C-32.4175 17.5075 -34.3975 18.8275 -36.4375 20.1875 C-36.1075 21.38375 -35.7775 22.58 -35.4375 23.8125 C-33.46747398 32.14498042 -33.46747398 32.14498042 -35.546875 36.5234375 C-38.15058055 40.60945067 -39.97077776 42.83957984 -44.796875 43.984375 C-48.03820711 44.22499791 -51.19077996 44.30955714 -54.4375 44.1875 C-54.7675 46.4975 -55.0975 48.8075 -55.4375 51.1875 C-54.86 51.435 -54.2825 51.6825 -53.6875 51.9375 C-50.954762 53.45568778 -49.34931559 54.68774972 -47.4375 57.1875 C-46.17108746 62.79006239 -46.12586903 67.59120786 -47.4375 73.1875 C-50.04000423 76.22458747 -52.72291739 77.77242091 -56.4375 79.1875 C-55.4475 82.6525 -55.4475 82.6525 -54.4375 86.1875 C-53.58027344 86.14367187 -52.72304688 86.09984375 -51.83984375 86.0546875 C-42.84024296 86.07497972 -42.84024296 86.07497972 -38.9453125 89.1640625 C-36.33376951 92.5517267 -34.44035697 95.34189925 -34.43359375 99.7109375 C-34.92118416 101.98635939 -35.59478718 104.02172805 -36.4375 106.1875 C-36.78704119 107.51667638 -37.12539251 108.84903902 -37.4375 110.1875 C-35.23470925 112.22712107 -34.12382116 113.20556108 -31.0625 113.125 C-27.79604258 111.95840806 -25.27673526 110.16262018 -22.4375 108.1875 C-21.4475 107.8575 -20.4575 107.5275 -19.4375 107.1875 C-19.1075 105.2075 -18.7775 103.2275 -18.4375 101.1875 C-19.00597656 100.85878906 -19.57445312 100.53007812 -20.16015625 100.19140625 C-29.85178812 94.22110214 -35.54675601 86.17224483 -39.015625 75.390625 C-41.105532 64.47666623 -39.64622826 53.99961783 -34.4375 44.1875 C-32.89296518 41.97923265 -31.29468775 40.15081276 -29.4375 38.1875 C-29.4375 37.5275 -29.4375 36.8675 -29.4375 36.1875 C-28.87804687 35.919375 -28.31859375 35.65125 -27.7421875 35.375 C-24.39825573 33.65202499 -21.25596743 31.62227582 -18.0703125 29.625 C-9.09305396 24.72347012 1.9881987 24.88973603 11.8671875 26.83984375 C22.49425629 30.3470775 30.63015388 37.66310694 35.78125 47.51953125 C40.38561124 57.43535206 41.15792318 67.97015158 37.9375 78.5 C34.47996032 87.66790137 27.50162688 96.71793656 18.5625 101.1875 C18.12760554 103.49947176 18.12760554 103.49947176 18.5625 106.1875 C20.78073291 108.62023423 20.78073291 108.62023423 23.75 110.625 C24.71292969 111.34558594 25.67585938 112.06617188 26.66796875 112.80859375 C29.46158311 114.50080491 29.46158311 114.50080491 32.30078125 113.59765625 C34.826021 112.23917752 34.826021 112.23917752 36.5625 109.1875 C35.86869349 106.75051245 35.86869349 106.75051245 34.75 104.125 C33.72121519 100.6289937 33.37831372 98.78670865 34.45703125 95.27734375 C36.24742618 92.24979028 37.74154368 90.30431064 40.5625 88.1875 C44.08849596 87.43640027 47.17124024 87.30452781 50.76953125 87.4453125 C51.69121094 87.36023438 52.61289062 87.27515625 53.5625 87.1875 C55.33453392 85.03813271 55.60000112 83.8407453 55.44140625 81.078125 C54.27213682 78.56289654 52.95264625 78.16598595 50.5 76.9375 C48.30859375 75.4453125 48.30859375 75.4453125 46.5625 73.1875 C45.83894649 67.77424778 46.09837351 62.61520143 46.5625 57.1875 C47.33980469 56.89101563 48.11710937 56.59453125 48.91796875 56.2890625 C51.51000259 55.20936746 53.39626775 53.95257813 55.5625 52.1875 C55.37785634 47.84565798 55.37785634 47.84565798 53.5625 44.1875 C52.66144531 44.1875 51.76039063 44.1875 50.83203125 44.1875 C41.78782189 44.1875 41.78782189 44.1875 38.33203125 41.3671875 C35.67143504 37.63856098 34.54531065 35.18448244 34.625 30.5625 C35.0890625 28.891875 35.0890625 28.891875 35.5625 27.1875 C35.8409375 25.2384375 35.8409375 25.2384375 36.125 23.25 C36.269375 22.239375 36.41375 21.22875 36.5625 20.1875 C34.88761472 18.45102052 34.88761472 18.45102052 32.5625 17.1875 C29.21218943 18.00244041 27.23687375 19.44002648 24.5 21.5625 C21.85530391 23.1154562 20.65449072 23.19823822 17.55078125 22.8359375 C9.58592776 20.62614703 9.58592776 20.62614703 7.1953125 17.265625 C6.4580577 15.24387472 5.98147572 13.2953366 5.5625 11.1875 C4.92289986 9.8409734 4.272501 8.49827107 3.5625 7.1875 C1.2525 7.1875 -1.0575 7.1875 -3.4375 7.1875 Z M-26.9375 45.0625 C-27.4325 45.76375 -27.9275 46.465 -28.4375 47.1875 C-28.1075 47.8475 -27.7775 48.5075 -27.4375 49.1875 C-27.1075 48.8575 -26.7775 48.5275 -26.4375 48.1875 C-23.91153741 47.95096477 -21.40642793 47.76576308 -18.875 47.625 C-18.16408203 47.58181641 -17.45316406 47.53863281 -16.72070312 47.49414062 C-14.95988088 47.38778223 -13.1987168 47.28711154 -11.4375 47.1875 C-11.1075 50.4875 -10.7775 53.7875 -10.4375 57.1875 C-10.1075 57.1875 -9.7775 57.1875 -9.4375 57.1875 C-9.1075 54.2175 -8.7775 51.2475 -8.4375 48.1875 C-0.0225 47.6925 -0.0225 47.6925 8.5625 47.1875 C9.0575 52.1375 9.0575 52.1375 9.5625 57.1875 C9.8925 57.1875 10.2225 57.1875 10.5625 57.1875 C10.8925 54.2175 11.2225 51.2475 11.5625 48.1875 C16.5125 48.1875 21.4625 48.1875 26.5625 48.1875 C28.09304375 65.21054766 28.09304375 65.21054766 24.40625 69.97265625 C21.84505402 71.70587939 19.42643897 73.03253445 16.5625 74.1875 C15.5725 74.6825 15.5725 74.6825 14.5625 75.1875 C14.5625 76.5075 14.5625 77.8275 14.5625 79.1875 C16.8725 79.5175 19.1825 79.8475 21.5625 80.1875 C22.0575 82.1675 22.0575 82.1675 22.5625 84.1875 C20.5825 84.8475 18.6025 85.5075 16.5625 86.1875 C16.5625 88.4975 16.5625 90.8075 16.5625 93.1875 C22.19445767 91.82217693 25.31501395 87.70775375 28.5625 83.1875 C33.339129 74.55227281 34.74054263 66.51237368 32.4375 56.8125 C29.76211472 47.74107735 24.82691846 40.8916413 16.5625 36.1875 C0.87317044 28.53358694 -15.44172215 31.84235547 -26.9375 45.0625 Z M-29.4375 49.1875 C-34.00816179 58.41044254 -35.0406939 66.87769829 -32 76.8125 C-29.51088271 82.97261761 -25.35936599 87.78229397 -20.4375 92.1875 C-19.4475 92.5175 -18.4575 92.8475 -17.4375 93.1875 C-17.1075 90.8775 -16.7775 88.5675 -16.4375 86.1875 C-18.4175 85.8575 -20.3975 85.5275 -22.4375 85.1875 C-22.1075 83.5375 -21.7775 81.8875 -21.4375 80.1875 C-19.1275 79.5275 -16.8175 78.8675 -14.4375 78.1875 C-14.4375 77.1975 -14.4375 76.2075 -14.4375 75.1875 C-16.82057466 73.25579458 -16.82057466 73.25579458 -19.8125 71.5 C-20.81023437 70.87738281 -21.80796875 70.25476563 -22.8359375 69.61328125 C-25.23537183 68.02729866 -25.23537183 68.02729866 -27.4375 68.1875 C-27.7675 61.9175 -28.0975 55.6475 -28.4375 49.1875 C-28.7675 49.1875 -29.0975 49.1875 -29.4375 49.1875 Z M-20.4375 54.1875 C-20.4375 57.1575 -20.4375 60.1275 -20.4375 63.1875 C-19.4475 63.1875 -18.4575 63.1875 -17.4375 63.1875 C-17.7675 60.2175 -18.0975 57.2475 -18.4375 54.1875 C-19.0975 54.1875 -19.7575 54.1875 -20.4375 54.1875 Z M-1.4375 54.1875 C-1.48648438 54.82558594 -1.53546875 55.46367187 -1.5859375 56.12109375 C-1.66070313 56.94738281 -1.73546875 57.77367187 -1.8125 58.625 C-1.88210938 59.44871094 -1.95171875 60.27242188 -2.0234375 61.12109375 C-2.16007813 61.80300781 -2.29671875 62.48492187 -2.4375 63.1875 C-5.13933055 64.53841528 -7.55558206 64.52608058 -10.5625 64.75 C-11.65820312 64.83378906 -12.75390625 64.91757812 -13.8828125 65.00390625 C-14.72585938 65.06449219 -15.56890625 65.12507813 -16.4375 65.1875 C-15.633125 65.826875 -14.82875 66.46625 -14 67.125 C-11.4375 69.1875 -11.4375 69.1875 -10.4375 70.1875 C-7.0725669 70.52373794 -3.69205843 70.51266737 -0.3125 70.5625 C0.6259375 70.59988281 1.564375 70.63726562 2.53125 70.67578125 C9.23121617 70.76023461 12.51260075 69.62189906 17.5625 65.1875 C14.80664908 63.80957454 12.56913529 64.1289706 9.5 64.1875 C7.52119142 64.22514677 5.54111741 64.23412427 3.5625 64.1875 C1.97977399 62.60477399 2.21514253 60.80715997 2 58.625 C1.87431641 57.38556641 1.87431641 57.38556641 1.74609375 56.12109375 C1.68550781 55.48300781 1.62492188 54.84492188 1.5625 54.1875 C0.5725 54.1875 -0.4175 54.1875 -1.4375 54.1875 Z M18.5625 54.1875 C18.2325 57.4875 17.9025 60.7875 17.5625 64.1875 C18.2225 64.1875 18.8825 64.1875 19.5625 64.1875 C19.5625 60.8875 19.5625 57.5875 19.5625 54.1875 C19.2325 54.1875 18.9025 54.1875 18.5625 54.1875 Z M-7.4375 77.1875 C-7.4375 77.8475 -7.4375 78.5075 -7.4375 79.1875 C-2.4875 79.1875 2.4625 79.1875 7.5625 79.1875 C7.2325 78.5275 6.9025 77.8675 6.5625 77.1875 C1.9425 77.1875 -2.6775 77.1875 -7.4375 77.1875 Z M-8.4375 86.1875 C-8.67984375 87.49460937 -8.9221875 88.80171875 -9.171875 90.1484375 C-10.85206099 99.13933705 -12.56958924 108.12155038 -14.5 117.0625 C-14.64985352 117.77970215 -14.79970703 118.4969043 -14.95410156 119.23583984 C-15.71054305 122.66736293 -16.62493387 125.79405998 -18.05859375 129.0078125 C-19.63643023 132.06858903 -19.63643023 132.06858903 -19.4375 135.1875 C-6.5675 135.1875 6.3025 135.1875 19.5625 135.1875 C18.5725 132.2175 17.5825 129.2475 16.5625 126.1875 C15.86882148 123.45762446 15.21670962 120.75049535 14.625 118 C14.3789502 116.87779053 14.3789502 116.87779053 14.12792969 115.73291016 C12.02046571 105.9334026 10.2968434 96.05849704 8.5625 86.1875 C2.9525 86.1875 -2.6575 86.1875 -8.4375 86.1875 Z M-20.4375 142.1875 C-18.38346069 147.00893028 -18.38346069 147.00893028 -15.4375 151.1875 C-13.14598583 151.27540975 -10.85177476 151.29444038 -8.55859375 151.28515625 C-7.8719313 151.2837413 -7.18526886 151.28232635 -6.47779846 151.28086853 C-4.27682199 151.27525479 -2.07594591 151.26270007 0.125 151.25 C1.61393083 151.24498676 3.10286324 151.24042355 4.59179688 151.23632812 C8.24873075 151.22528093 11.90560558 151.20800713 15.5625 151.1875 C17.2125 148.2175 18.8625 145.2475 20.5625 142.1875 C7.0325 142.1875 -6.4975 142.1875 -20.4375 142.1875 Z M-23.4375 187.1875 C-23.4375 193.4575 -23.4375 199.7275 -23.4375 206.1875 C-7.9275 206.1875 7.5825 206.1875 23.5625 206.1875 C23.5625 199.9175 23.5625 193.6475 23.5625 187.1875 C8.0525 187.1875 -7.4575 187.1875 -23.4375 187.1875 Z M-10.8125 241 C-11.78445313 241.54720703 -12.75640625 242.09441406 -13.7578125 242.65820312 C-14.69109375 243.18994141 -15.624375 243.72167969 -16.5859375 244.26953125 C-17.87250244 245.00006714 -17.87250244 245.00006714 -19.18505859 245.74536133 C-21.24630406 247.06508569 -22.79875061 248.38327102 -24.4375 250.1875 C-20.72188346 252.39865568 -16.98809892 254.57710387 -13.25 256.75 C-12.19490234 257.37841797 -11.13980469 258.00683594 -10.05273438 258.65429688 C-9.03115234 259.24404297 -8.00957031 259.83378906 -6.95703125 260.44140625 C-6.01964111 260.99127197 -5.08225098 261.5411377 -4.11645508 262.10766602 C-0.92955834 263.39224127 0.34096095 263.28424829 3.5625 262.1875 C6.10683433 260.98688557 6.10683433 260.98688557 8.64453125 259.46484375 C9.57587891 258.92666016 10.50722656 258.38847656 11.46679688 257.83398438 C12.42650391 257.27001953 13.38621094 256.70605469 14.375 256.125 C15.84356445 255.27325195 15.84356445 255.27325195 17.34179688 254.40429688 C19.75243348 253.00495173 22.1590851 251.59920071 24.5625 250.1875 C22.21343946 247.60123322 19.74193872 245.99059103 16.7109375 244.26953125 C15.77765625 243.73779297 14.844375 243.20605469 13.8828125 242.65820312 C12.42488281 241.83739258 12.42488281 241.83739258 10.9375 241 C9.9578125 240.44119141 8.978125 239.88238281 7.96875 239.30664062 C-0.90958112 234.27107748 -1.983722 235.9641115 -10.8125 241 Z M-110.4375 297.1875 C-112.00685594 300.32621188 -111.78951103 302.72605822 -111.4375 306.1875 C-108.72283131 309.65624333 -106.74580904 311.45477196 -102.4375 312.1875 C-97.66997838 312.44313119 -92.89866057 312.41882553 -88.125 312.4375 C-86.81853516 312.458125 -85.51207031 312.47875 -84.16601562 312.5 C-74.8585068 312.61600993 -74.8585068 312.61600993 -66.4375 309.1875 C-64.34112299 306.04293449 -64.07193555 304.02655324 -63.78125 300.3203125 C-64.84363978 296.8675457 -67.43465764 294.97836914 -70.4375 293.1875 C-73.33426162 292.70825976 -75.62329767 292.50547071 -78.50390625 292.55859375 C-79.26041977 292.55618179 -80.01693329 292.55376984 -80.79637146 292.55128479 C-82.38733185 292.55225964 -83.97832769 292.56556669 -85.5690918 292.59057617 C-87.9971071 292.62495903 -90.42149215 292.61120216 -92.84960938 292.59179688 C-94.40105707 292.59869442 -95.95249543 292.608366 -97.50390625 292.62109375 C-98.22485977 292.61613388 -98.94581329 292.61117401 -99.68861389 292.60606384 C-104.53289131 292.71871813 -107.03499926 293.74721602 -110.4375 297.1875 Z M-22.4375 297.1875 C-24.00685594 300.32621188 -23.78951103 302.72605822 -23.4375 306.1875 C-20.72283131 309.65624333 -18.74580904 311.45477196 -14.4375 312.1875 C-9.66997838 312.44313119 -4.89866057 312.41882553 -0.125 312.4375 C1.18146484 312.458125 2.48792969 312.47875 3.83398438 312.5 C13.1414932 312.61600993 13.1414932 312.61600993 21.5625 309.1875 C23.65887701 306.04293449 23.92806445 304.02655324 24.21875 300.3203125 C23.15636022 296.8675457 20.56534236 294.97836914 17.5625 293.1875 C14.66573838 292.70825976 12.37670233 292.50547071 9.49609375 292.55859375 C8.73958023 292.55618179 7.98306671 292.55376984 7.20362854 292.55128479 C5.61266815 292.55225964 4.02167231 292.56556669 2.4309082 292.59057617 C0.0028929 292.62495903 -2.42149215 292.61120216 -4.84960938 292.59179688 C-6.40105707 292.59869442 -7.95249543 292.608366 -9.50390625 292.62109375 C-10.22485977 292.61613388 -10.94581329 292.61117401 -11.68861389 292.60606384 C-16.53289131 292.71871813 -19.03499926 293.74721602 -22.4375 297.1875 Z M65.5625 296.1875 C63.47643074 298.84249724 63.56370545 300.25500504 63.625 303.6875 C64.7423298 307.85886458 65.9457204 308.9485412 69.5625 311.1875 C74.63274258 312.87758086 80.02535425 312.37342392 85.33154297 312.37280273 C87.42305988 312.37498493 89.51404541 312.39314122 91.60546875 312.41210938 C92.94270654 312.41504451 94.27994682 312.4170285 95.6171875 312.41796875 C96.82874512 312.42207764 98.04030273 312.42618652 99.28857422 312.43041992 C103.83190832 312.09331198 106.54885372 311.09444668 109.9375 308.0625 C111.85071419 304.67758258 111.85047248 302.91415435 111.5078125 299.15234375 C109.96704844 295.94984656 107.62410766 294.89006318 104.5625 293.1875 C101.80340526 292.81567629 99.46083895 292.64715088 96.71484375 292.69140625 C95.61336754 292.6892234 95.61336754 292.6892234 94.48963928 292.68699646 C92.94577036 292.68864816 91.40188372 292.7001275 89.8581543 292.72094727 C87.50302891 292.74996268 85.15015021 292.74153065 82.79492188 292.72851562 C81.28905163 292.73475242 79.78318844 292.74314291 78.27734375 292.75390625 C77.22872414 292.74950279 77.22872414 292.74950279 76.15892029 292.74501038 C71.79725173 292.82871289 69.05596277 293.56000409 65.5625 296.1875 Z " fill="#5E2697" transform="translate(519.4375,374.8125)"/>
<path d="M0 0 C1.36288147 -0.00422974 1.36288147 -0.00422974 2.7532959 -0.00854492 C4.25261658 -0.00550858 4.25261658 -0.00550858 5.78222656 -0.00241089 C6.83269165 -0.00416321 7.88315674 -0.00591553 8.9654541 -0.00772095 C12.45126987 -0.01213619 15.93703524 -0.0092026 19.42285156 -0.00582886 C21.83658864 -0.00650199 24.25032565 -0.00747209 26.6640625 -0.00872803 C31.72819666 -0.01020456 36.7923132 -0.00805187 41.85644531 -0.00338745 C48.3602641 0.0023098 54.86404162 -0.00096944 61.36785889 -0.00695992 C66.35368157 -0.01056673 71.33949441 -0.00942638 76.32531738 -0.00683212 C78.72399907 -0.00616319 81.12268165 -0.00699011 83.5213623 -0.00931168 C86.86875795 -0.01184015 90.21608598 -0.00799479 93.56347656 -0.00241089 C94.56302368 -0.00443512 95.5625708 -0.00645935 96.59240723 -0.00854492 C97.50099487 -0.0057251 98.40958252 -0.00290527 99.34570312 0 C100.13769104 0.00037703 100.92967896 0.00075405 101.7456665 0.0011425 C103.67285156 0.12698364 103.67285156 0.12698364 105.67285156 1.12698364 C105.79785156 3.50198364 105.79785156 3.50198364 105.67285156 6.12698364 C105.01285156 6.78698364 104.35285156 7.44698364 103.67285156 8.12698364 C101.69285156 8.12698364 99.71285156 8.12698364 97.67285156 8.12698364 C97.67285156 28.58698364 97.67285156 49.04698364 97.67285156 70.12698364 C99.98285156 70.12698364 102.29285156 70.12698364 104.67285156 70.12698364 C105.67285156 71.12698364 105.67285156 71.12698364 105.79785156 73.62698364 C105.67285156 76.12698364 105.67285156 76.12698364 104.67285156 77.12698364 C103.04610379 77.22038798 101.41531105 77.24443535 99.78588867 77.24050903 C98.7448851 77.2404335 97.70388153 77.24035797 96.6313324 77.24028015 C95.49905716 77.23511887 94.36678192 77.22995758 93.20019531 77.22463989 C91.47102623 77.22251747 91.47102623 77.22251747 89.70692444 77.22035217 C86.00804093 77.21473369 82.30921692 77.20217806 78.61035156 77.18948364 C76.10970139 77.18447102 73.60905028 77.17990771 71.10839844 77.17581177 C64.96319568 77.16475826 58.81802787 77.14800216 52.67285156 77.12698364 C52.77348423 78.72848977 52.89110753 80.32893417 53.01586914 81.92874146 C53.07954178 82.82006775 53.14321442 83.71139404 53.20881653 84.62973022 C53.95775732 88.66023401 56.22832742 90.45608187 59.36035156 92.87698364 C60.45178922 93.80111827 61.54293806 94.7255941 62.63378906 95.65042114 C64.138125 96.87631958 64.138125 96.87631958 65.67285156 98.12698364 C67.93969197 100.06648247 69.75377109 101.82408708 71.67285156 104.12698364 C71.54785156 107.00198364 71.54785156 107.00198364 70.67285156 109.12698364 C68.04003906 109.47073364 68.04003906 109.47073364 64.67285156 109.12698364 C62.44094485 107.33213438 60.6906424 105.72036916 58.79785156 103.62698364 C58.05148437 102.84001099 58.05148437 102.84001099 57.29003906 102.03713989 C56.07021241 100.74693863 54.86954907 99.43866632 53.67285156 98.12698364 C53.62386719 99.04221802 53.57488281 99.95745239 53.52441406 100.90042114 C53.44964844 102.08893677 53.37488281 103.27745239 53.29785156 104.50198364 C53.1934375 106.27702271 53.1934375 106.27702271 53.08691406 108.08792114 C52.67285156 111.12698364 52.67285156 111.12698364 50.67285156 113.12698364 C48.11035156 112.87698364 48.11035156 112.87698364 45.67285156 112.12698364 C44.2905914 109.36246332 44.57759769 107.08084734 44.61035156 104.00198364 C44.619375 102.90628052 44.62839844 101.81057739 44.63769531 100.68167114 C44.64929688 99.83862427 44.66089844 98.99557739 44.67285156 98.12698364 C43.42124918 99.20846531 42.17164776 100.29226286 40.92285156 101.37698364 C40.18808594 102.01249146 39.45332031 102.64799927 38.69628906 103.30276489 C36.57093412 105.14561076 36.57093412 105.14561076 34.54785156 107.56448364 C31.92949351 109.74644869 29.97336154 109.42703 26.67285156 109.12698364 C25.79003906 107.03713989 25.79003906 107.03713989 25.67285156 104.12698364 C27.37657407 101.59819292 29.56668766 99.62712346 31.79785156 97.56448364 C32.38050781 97.0005188 32.96316406 96.43655396 33.56347656 95.85549927 C36.14535132 93.38072021 38.48655108 91.24246964 41.54003906 89.34963989 C44.10456396 86.67708556 44.03409952 85.59448819 44.30615234 81.98806763 C44.37971954 81.07999863 44.45328674 80.17192963 44.52908325 79.23634338 C44.57652679 78.54025467 44.62397034 77.84416595 44.67285156 77.12698364 C44.04866837 77.12920425 43.42448517 77.13142487 42.78138733 77.13371277 C36.30942352 77.15576444 29.83747031 77.17088974 23.36547852 77.18191528 C20.94717984 77.18695713 18.52888423 77.19379042 16.1105957 77.2024231 C12.64305873 77.21449521 9.1755619 77.22021327 5.70800781 77.22463989 C4.61948013 77.22980118 3.53095245 77.23496246 2.40943909 77.24028015 C0.90799599 77.24039345 0.90799599 77.24039345 -0.6237793 77.24050903 C-1.95281532 77.24383995 -1.95281532 77.24383995 -3.30870056 77.24723816 C-5.32714844 77.12698364 -5.32714844 77.12698364 -6.32714844 76.12698364 C-6.45214844 73.62698364 -6.45214844 73.62698364 -6.32714844 71.12698364 C-5.83214844 70.63198364 -5.83214844 70.63198364 -5.32714844 70.12698364 C-3.67714844 70.12698364 -2.02714844 70.12698364 -0.32714844 70.12698364 C-0.32714844 49.66698364 -0.32714844 29.20698364 -0.32714844 8.12698364 C-3.29714844 7.63198364 -3.29714844 7.63198364 -6.32714844 7.12698364 C-6.32714844 5.14698364 -6.32714844 3.16698364 -6.32714844 1.12698364 C-3.98374906 -0.04471604 -2.61125398 0.00124309 0 0 Z M5.67285156 8.12698364 C5.67285156 28.58698364 5.67285156 49.04698364 5.67285156 70.12698364 C34.38285156 70.12698364 63.09285156 70.12698364 92.67285156 70.12698364 C92.67285156 49.66698364 92.67285156 29.20698364 92.67285156 8.12698364 C63.96285156 8.12698364 35.25285156 8.12698364 5.67285156 8.12698364 Z " fill="#5E2697" transform="translate(330.3271484375,524.8730163574219)"/>
<path d="M0 0 C2.14576637 -0.02685938 4.29162645 -0.04633088 6.4375 -0.0625 C7.63246094 -0.07410156 8.82742188 -0.08570313 10.05859375 -0.09765625 C13 0 13 0 14 1 C14.07179964 2.51928038 14.08392007 4.04167482 14.0625 5.5625 C14.05347656 6.38878906 14.04445313 7.21507812 14.03515625 8.06640625 C14.02355469 8.70449219 14.01195312 9.34257812 14 10 C14.66 10 15.32 10 16 10 C15.98839844 9.36191406 15.97679687 8.72382813 15.96484375 8.06640625 C15.95582031 7.24011719 15.94679688 6.41382813 15.9375 5.5625 C15.92589844 4.73878906 15.91429687 3.91507812 15.90234375 3.06640625 C16 1 16 1 17 0 C19.49238569 -0.12653198 21.94470441 -0.18519825 24.4375 -0.1875 C25.13166016 -0.19974609 25.82582031 -0.21199219 26.54101562 -0.22460938 C28.36220901 -0.22989842 30.1828692 -0.12169207 32 0 C32.66 0.66 33.32 1.32 34 2 C34.33 1.34 34.66 0.68 35 0 C37.14576637 -0.02685938 39.29162645 -0.04633088 41.4375 -0.0625 C42.63246094 -0.07410156 43.82742188 -0.08570313 45.05859375 -0.09765625 C48 0 48 0 49 1 C49.75361451 6.89521027 50.50885887 13.17580476 49 19 C45.76606121 22.53261467 42.29676777 24.04692374 38 26 C38 26.66 38 27.32 38 28 C40.31 28.66 42.62 29.32 45 30 C45 31.65 45 33.3 45 35 C42.03 35.495 42.03 35.495 39 36 C39.10135254 36.62567871 39.20270508 37.25135742 39.30712891 37.89599609 C39.7580397 40.72061889 40.19171358 43.54762248 40.625 46.375 C40.86476563 47.85226562 40.86476563 47.85226562 41.109375 49.359375 C41.25117187 50.30039062 41.39296875 51.24140625 41.5390625 52.2109375 C41.67521973 53.08024902 41.81137695 53.94956055 41.95166016 54.84521484 C41.97558838 55.9118335 41.97558838 55.9118335 42 57 C41.34 57.66 40.68 58.32 40 59 C38 58.9375 38 58.9375 36 58 C33.69879225 53.61918227 33.37017854 49.02969669 32.875 44.1875 C32.78863281 43.39923828 32.70226562 42.61097656 32.61328125 41.79882812 C32.40248936 39.86656916 32.20037104 37.93336737 32 36 C26.72 36 21.44 36 16 36 C15.9175 37.381875 15.835 38.76375 15.75 40.1875 C15.21281509 46.02087419 14.2474394 51.74334452 13.1875 57.5 C12.95788574 58.79780396 12.95788574 58.79780396 12.72363281 60.12182617 C11.43846727 66.88930435 9.42241342 72.3383631 7 79 C19.87 79.495 19.87 79.495 33 80 C33.33 81.65 33.66 83.3 34 85 C31.36008732 87.63991268 30.02053704 87.30240797 26.3359375 87.4140625 C25.21445312 87.45273437 24.09296875 87.49140625 22.9375 87.53125 C21.761875 87.5621875 20.58625 87.593125 19.375 87.625 C18.19164062 87.66367187 17.00828125 87.70234375 15.7890625 87.7421875 C12.85953309 87.83668845 9.93001403 87.92224558 7 88 C8.03765238 90.59081719 8.03765238 90.59081719 10 93 C13.02140194 93.70737792 13.02140194 93.70737792 16.49609375 93.5234375 C17.77677734 93.51183594 19.05746094 93.50023437 20.37695312 93.48828125 C21.73047239 93.45065168 23.08398799 93.41288992 24.4375 93.375 C25.78708437 93.35848835 27.13669708 93.34414144 28.48632812 93.33203125 C34.95620958 93.3964404 34.95620958 93.3964404 41.28930664 92.35791016 C41.85383545 92.2397998 42.41836426 92.12168945 43 92 C43.99 92.99 43.99 92.99 45 94 C44.67028521 97.29714793 44.3773161 98.6226839 42 101 C39.33455758 101.27331105 36.77737069 101.42472139 34.10546875 101.4765625 C33.3210994 101.49270599 32.53673004 101.50884949 31.72859192 101.52548218 C30.06679115 101.55316011 28.40487677 101.57460626 26.74291992 101.59033203 C24.20596596 101.62474948 21.67424099 101.71247171 19.13867188 101.80078125 C7.31130793 102.0282249 7.31130793 102.0282249 3.83203125 99.30004883 C2.5321809 97.21639449 1.76807924 95.32336455 1 93 C0.22574915 91.80107215 -0.56551799 90.6129281 -1.375 89.4375 C-3.40703771 85.1389587 -3.29212968 83.5604577 -2 79 C-1.24222514 77.43112539 -0.46959107 75.86939558 0.3125 74.3125 C4.26690252 66.03796987 5.45047277 56.96791211 7 48 C7.12004395 47.31470215 7.24008789 46.6294043 7.36376953 45.92333984 C7.93933006 42.6200856 8.48812534 39.3137149 9 36 C7.35 35.67 5.7 35.34 4 35 C3.375 33.125 3.375 33.125 3 31 C5 29 5 29 8.125 28.875 C9.548125 28.936875 9.548125 28.936875 11 29 C9.73953157 25.21859472 8.27125859 24.55893684 5 22.375 C0.02608696 19.02608696 0.02608696 19.02608696 -1 18 C-1.10002455 15.34346557 -1.13877463 12.71870728 -1.125 10.0625 C-1.12886719 9.32064453 -1.13273438 8.57878906 -1.13671875 7.81445312 C-1.12663501 2.25327002 -1.12663501 2.25327002 0 0 Z M6 6 C6 8.97 6 11.94 6 15 C6.99 15 7.98 15 9 15 C8.67 12.03 8.34 9.06 8 6 C7.34 6 6.68 6 6 6 Z M23 6 C22.67 8.97 22.34 11.94 22 15 C15.565 15.495 15.565 15.495 9 16 C14.20892475 21.20892475 16.65247316 21.2285498 23.6875 21.3125 C24.47833984 21.34150391 25.26917969 21.37050781 26.08398438 21.40039062 C31.89872599 21.46281147 35.18679763 20.26679197 40 17 C40 16.67 40 16.34 40 16 C35.71 15.67 31.42 15.34 27 15 C26.67 12.03 26.34 9.06 26 6 C25.01 6 24.02 6 23 6 Z M41 6 C41 8.97 41 11.94 41 15 C41.66 15 42.32 15 43 15 C43 12.03 43 9.06 43 6 C42.34 6 41.68 6 41 6 Z M18 28 C18 28.33 18 28.66 18 29 C22.29 29 26.58 29 31 29 C31 28.67 31 28.34 31 28 C26.71 28 22.42 28 18 28 Z " fill="#5E2697" transform="translate(617,495)"/>
<path d="M0 0 C1.093125 0.00257813 2.18625 0.00515625 3.3125 0.0078125 C4.405625 0.00523437 5.49875 0.00265625 6.625 0 C9.3125 0.1328125 9.3125 0.1328125 10.3125 1.1328125 C10.38429964 2.65209288 10.39642007 4.17448732 10.375 5.6953125 C10.36597656 6.52160156 10.35695313 7.34789062 10.34765625 8.19921875 C10.33605469 8.83730469 10.32445312 9.47539063 10.3125 10.1328125 C10.9725 10.1328125 11.6325 10.1328125 12.3125 10.1328125 C12.30089844 9.49472656 12.28929687 8.85664062 12.27734375 8.19921875 C12.26832031 7.37292969 12.25929688 6.54664063 12.25 5.6953125 C12.23839844 4.87160156 12.22679687 4.04789063 12.21484375 3.19921875 C12.3125 1.1328125 12.3125 1.1328125 13.3125 0.1328125 C15.4346998 0.00711747 17.56161345 -0.04295523 19.6875 -0.0546875 C20.85023438 -0.06886719 22.01296875 -0.08304688 23.2109375 -0.09765625 C26.3125 0.1328125 26.3125 0.1328125 29.3125 2.1328125 C29.9725 1.4728125 30.6325 0.8128125 31.3125 0.1328125 C33.84375 -0.1328125 33.84375 -0.1328125 36.8125 -0.1171875 C37.7921875 -0.12234375 38.771875 -0.1275 39.78125 -0.1328125 C42.3125 0.1328125 42.3125 0.1328125 44.3125 2.1328125 C45.14339492 7.37338545 45.69229489 12.94299458 44.3125 18.1328125 C41.47927397 21.55416307 38.41017269 23.46687344 34.3125 25.1328125 C33.6525 25.1328125 32.9925 25.1328125 32.3125 25.1328125 C32.3125 26.1228125 32.3125 27.1128125 32.3125 28.1328125 C33.26125 28.0915625 34.21 28.0503125 35.1875 28.0078125 C38.3125 28.1328125 38.3125 28.1328125 40.3125 30.1328125 C39.9375 32.2578125 39.9375 32.2578125 39.3125 34.1328125 C36.8375 34.6278125 36.8375 34.6278125 34.3125 35.1328125 C34.456875 35.9784375 34.60125 36.8240625 34.75 37.6953125 C35.76903267 43.92273436 36.5599335 49.82325835 36.3125 56.1328125 C32.5625 57.2578125 32.5625 57.2578125 30.3125 56.1328125 C29.81005859 54.09155273 29.81005859 54.09155273 29.4609375 51.44140625 C29.33203125 50.49716797 29.203125 49.55292969 29.0703125 48.58007812 C28.94398438 47.58685547 28.81765625 46.59363281 28.6875 45.5703125 C28.48640625 44.07467773 28.48640625 44.07467773 28.28125 42.54882812 C27.95021614 40.07789682 27.63032329 37.60547772 27.3125 35.1328125 C22.3625 35.1328125 17.4125 35.1328125 12.3125 35.1328125 C12.14234375 36.463125 11.9721875 37.7934375 11.796875 39.1640625 C8.19064952 66.37651347 8.19064952 66.37651347 3.3125 76.1328125 C11.5625 76.4628125 19.8125 76.7928125 28.3125 77.1328125 C28.6425 78.7828125 28.9725 80.4328125 29.3125 82.1328125 C27.56743385 83.87787865 25.12210857 83.36564034 22.74609375 83.44921875 C21.62138672 83.49111328 20.49667969 83.53300781 19.33789062 83.57617188 C18.15388672 83.61548828 16.96988281 83.65480469 15.75 83.6953125 C14.56212891 83.73849609 13.37425781 83.78167969 12.15039062 83.82617188 C9.20455216 83.93264796 6.2586257 84.03466091 3.3125 84.1328125 C4.3025 86.1128125 5.2925 88.0928125 6.3125 90.1328125 C10.7083194 90.16188834 15.10411399 90.1796369 19.5 90.1953125 C20.74587891 90.20369141 21.99175781 90.21207031 23.27539062 90.22070312 C25.0784668 90.22553711 25.0784668 90.22553711 26.91796875 90.23046875 C28.02293701 90.23570557 29.12790527 90.24094238 30.26635742 90.24633789 C33.29629051 90.21468497 33.29629051 90.21468497 36.1496582 89.56420898 C37.22026489 89.35066772 37.22026489 89.35066772 38.3125 89.1328125 C39.3125 90.1328125 39.3125 90.1328125 39.5 92.5703125 C39.3125 95.1328125 39.3125 95.1328125 37.3125 97.1328125 C34.71907604 97.40600282 32.23673248 97.55743668 29.63671875 97.609375 C28.87454544 97.62551849 28.11237213 97.64166199 27.32710266 97.65829468 C25.71238293 97.68597081 24.09754633 97.70741778 22.48266602 97.72314453 C20.01807489 97.7575601 17.55886847 97.84527996 15.09570312 97.93359375 C3.60832473 98.16109206 3.60832473 98.16109206 0.17578125 95.43725586 C-1.12525816 93.35506353 -1.90583236 91.45178695 -2.6875 89.1328125 C-3.46036072 87.8917351 -4.25146291 86.66178512 -5.0625 85.4453125 C-6.89909543 81.70148335 -6.7958204 80.98307138 -5.6875 77.1328125 C-4.93661736 75.44737809 -4.14168618 73.78113412 -3.3125 72.1328125 C2.04160896 60.5783992 3.33733583 47.61416908 5.3125 35.1328125 C3.6625 34.8028125 2.0125 34.4728125 0.3125 34.1328125 C-0.0175 32.8128125 -0.3475 31.4928125 -0.6875 30.1328125 C2.54041555 27.9808688 3.59650809 27.93194807 7.3125 28.1328125 C7.3125 27.1428125 7.3125 26.1528125 7.3125 25.1328125 C6.61125 24.8853125 5.91 24.6378125 5.1875 24.3828125 C1.71462479 22.87286676 -0.81562139 21.6501382 -3.6875 19.1328125 C-4.46050073 16.04609376 -4.3012317 13.10507241 -4.125 9.9453125 C-4.10630859 9.11322266 -4.08761719 8.28113281 -4.06835938 7.42382812 C-3.85023261 0.19027312 -3.85023261 0.19027312 0 0 Z M2.3125 7.1328125 C2.3125 9.7728125 2.3125 12.4128125 2.3125 15.1328125 C2.9725 15.1328125 3.6325 15.1328125 4.3125 15.1328125 C4.3125 12.4928125 4.3125 9.8528125 4.3125 7.1328125 C3.6525 7.1328125 2.9925 7.1328125 2.3125 7.1328125 Z M18.3125 7.1328125 C17.9825 9.7728125 17.6525 12.4128125 17.3125 15.1328125 C11.3725 15.6278125 11.3725 15.6278125 5.3125 16.1328125 C6.116875 16.7721875 6.92125 17.4115625 7.75 18.0703125 C10.3125 20.1328125 10.3125 20.1328125 11.3125 21.1328125 C14.05727321 21.31421138 16.75283412 21.41105856 19.5 21.4453125 C20.25603516 21.47431641 21.01207031 21.50332031 21.79101562 21.53320312 C27.24106737 21.5946521 30.1072599 20.64053271 34.3125 17.1328125 C34.3125 16.8028125 34.3125 16.4728125 34.3125 16.1328125 C33.53003906 16.07222656 32.74757813 16.01164063 31.94140625 15.94921875 C30.92949219 15.86542969 29.91757812 15.78164063 28.875 15.6953125 C27.36099609 15.57349609 27.36099609 15.57349609 25.81640625 15.44921875 C23.3125 15.1328125 23.3125 15.1328125 22.3125 14.1328125 C21.94489269 11.80463286 21.61008419 9.470974 21.3125 7.1328125 C20.3225 7.1328125 19.3325 7.1328125 18.3125 7.1328125 Z M36.3125 7.1328125 C35.6525 10.1028125 34.9925 13.0728125 34.3125 16.1328125 C35.3025 15.8028125 36.2925 15.4728125 37.3125 15.1328125 C37.3125 12.4928125 37.3125 9.8528125 37.3125 7.1328125 C36.9825 7.1328125 36.6525 7.1328125 36.3125 7.1328125 Z M13.3125 27.1328125 C13.3125 27.4628125 13.3125 27.7928125 13.3125 28.1328125 C17.6025 28.1328125 21.8925 28.1328125 26.3125 28.1328125 C26.3125 27.8028125 26.3125 27.4728125 26.3125 27.1328125 C22.0225 27.1328125 17.7325 27.1328125 13.3125 27.1328125 Z " fill="#5E2697" transform="translate(688.6875,607.8671875)"/>
<path d="M0 0 C2.31 0.66 4.62 1.32 7 2 C7.33 3.65 7.66 5.3 8 7 C11.465 6.505 11.465 6.505 15 6 C16.5625 7.6875 16.5625 7.6875 18 10 C17.71814575 12.88900605 16.91884332 15.24347003 16 18 C17.32 18.33 18.64 18.66 20 19 C20.25 24.625 20.25 24.625 18 28 C15.875 29.1875 15.875 29.1875 14 30 C14.0825 30.763125 14.165 31.52625 14.25 32.3125 C14 35 14 35 12.4375 36.875 C9.03118195 38.44714679 6.59718087 37.76094211 3 37 C2.34 37.99 1.68 38.98 1 40 C-2.5 40.375 -2.5 40.375 -6 40 C-8 37 -8 37 -8 34 C-8.9075 34.2475 -9.815 34.495 -10.75 34.75 C-14 35 -14 35 -16.4375 33.375 C-18 31 -18 31 -17.8125 28.4375 C-17.20833333 26.625 -16.60416667 24.8125 -16 23 C-17.32 22.34 -18.64 21.68 -20 21 C-20.125 15.25 -20.125 15.25 -19 13 C-16.9375 12.375 -16.9375 12.375 -15 12 C-14.9175 10.906875 -14.835 9.81375 -14.75 8.6875 C-14 5 -14 5 -12.3125 2.9375 C-10 2 -10 2 -6.75 2.8125 C-5.8425 3.204375 -4.935 3.59625 -4 4 C-2.68 2.68 -1.36 1.36 0 0 Z M1 5 C0.01 6.485 0.01 6.485 -1 8 C-3.9375 8.1875 -3.9375 8.1875 -7 8 C-7.99 8 -8.98 8 -10 8 C-10.0825 9.11375 -10.165 10.2275 -10.25 11.375 C-11 15 -11 15 -13.0625 16.4375 C-14.0215625 16.7159375 -14.0215625 16.7159375 -15 17 C-14.67 17.99 -14.34 18.98 -14 20 C-13.34 20 -12.68 20 -12 20 C-11.875 26.625 -11.875 26.625 -13 30 C-11.9275 30.061875 -10.855 30.12375 -9.75 30.1875 C-6 31 -6 31 -3.5625 33.5625 C-3.046875 34.366875 -2.53125 35.17125 -2 36 C-1.34 35.01 -0.68 34.02 0 33 C3.5797952 32.08600973 5.46474216 31.82158072 9 33 C9.66 30.36 10.32 27.72 11 25 C12.32 24.67 13.64 24.34 15 24 C14.67 23.01 14.34 22.02 14 21 C13.34 21 12.68 21 12 21 C11.875 14.375 11.875 14.375 13 11 C11.3603125 10.9071875 11.3603125 10.9071875 9.6875 10.8125 C6 10 6 10 4.1875 7.4375 C3.795625 6.633125 3.40375 5.82875 3 5 C2.34 5 1.68 5 1 5 Z " fill="#5E2697" transform="translate(671,551)"/>
<path d="M0 0 C2.48405436 2.23564893 2.93906627 3.64201436 3.5 6.9375 C2.833748 11.01829352 0.98573436 12.22257269 -2 15 C-3.01622658 16.99180409 -4.01712992 18.99152635 -5 21 C-7.36745572 23.73737067 -8.54129705 24.84709902 -12 26 C-15.49677201 26.19587727 -18.98729754 26.34414863 -22.48828125 26.4296875 C-28.46714255 26.68276099 -33.56257483 27.54800854 -37.9609375 31.97265625 C-38.42757813 32.66230469 -38.89421875 33.35195313 -39.375 34.0625 C-39.85710937 34.75472656 -40.33921875 35.44695313 -40.8359375 36.16015625 C-42.03698232 37.99038287 -42.03698232 37.99038287 -43 40 C-41.68 40 -40.36 40 -39 40 C-39 42.25 -39 42.25 -40 45 C-42.48318289 46.79279124 -45.06461296 48.12052606 -48 49 C-51 48 -51 48 -52.203125 46.00390625 C-52.54859375 45.19824219 -52.8940625 44.39257812 -53.25 43.5625 C-53.60578125 42.75941406 -53.9615625 41.95632813 -54.328125 41.12890625 C-55 39 -55 39 -54 37 C-52.02 37.33 -50.04 37.66 -48 38 C-47.690625 36.7315625 -47.690625 36.7315625 -47.375 35.4375 C-44.97593325 29.43983312 -40.89393158 24.79186233 -35 22 C-30.20988299 20.58626086 -25.24743323 20.75460933 -20.28710938 20.74609375 C-15.94502214 20.60097562 -14.43342559 20.36369817 -10.96484375 17.453125 C-10.31644531 16.64359375 -9.66804688 15.8340625 -9 15 C-9.309375 14.46375 -9.61875 13.9275 -9.9375 13.375 C-11.54176871 9.78898759 -12.4842681 6.58487741 -11.3125 2.75 C-8.16200575 -1.450659 -4.84423333 -1.44296312 0 0 Z M-6 5 C-5.67 6.32 -5.34 7.64 -5 9 C-4.01 8.67 -3.02 8.34 -2 8 C-2.33 7.01 -2.66 6.02 -3 5 C-3.99 5 -4.98 5 -6 5 Z " fill="#5E2697" transform="translate(408,540)"/>
<path d="M0 0 C2.31 0.33 4.62 0.66 7 1 C7.66 2.65 8.32 4.3 9 6 C9.763125 5.938125 10.52625 5.87625 11.3125 5.8125 C14 6 14 6 15.875 7.125 C17 9 17 9 16.75 12.0625 C16 15 16 15 15 17 C16.32 17.33 17.64 17.66 19 18 C19.125 21.375 19.125 21.375 19 25 C18.34 25.66 17.68 26.32 17 27 C15.68 27 14.36 27 13 27 C13.495 29.97 13.495 29.97 14 33 C11.875 35.0625 11.875 35.0625 9 37 C5.6875 36.75 5.6875 36.75 3 36 C2.34 36.99 1.68 37.98 1 39 C-1.64 38.67 -4.28 38.34 -7 38 C-7 36.35 -7 34.7 -7 33 C-8.093125 33.061875 -9.18625 33.12375 -10.3125 33.1875 C-14 33 -14 33 -16 31.8125 C-17 30 -17 30 -16.75 27.5 C-16.19717158 25.65723859 -15.60839041 23.82517122 -15 22 C-16.32 21.34 -17.64 20.68 -19 20 C-19.125 17.125 -19.125 17.125 -19 14 C-18.34 13.34 -17.68 12.68 -17 12 C-15.68 12 -14.36 12 -13 12 C-13.33 10.02 -13.66 8.04 -14 6 C-11.9375 3.875 -11.9375 3.875 -9 2 C-5.1875 2.75 -5.1875 2.75 -2 4 C-1.34 2.68 -0.68 1.36 0 0 Z M1 5 C0.608125 5.515625 0.21625 6.03125 -0.1875 6.5625 C-2 8 -2 8 -5.6875 7.6875 C-6.780625 7.460625 -7.87375 7.23375 -9 7 C-9.33 9.31 -9.66 11.62 -10 14 C-11.65 14.66 -13.3 15.32 -15 16 C-15 16.66 -15 17.32 -15 18 C-13.515 18.99 -13.515 18.99 -12 20 C-11.70703125 22.1640625 -11.70703125 22.1640625 -11.8125 24.625 C-11.83957031 25.44226563 -11.86664062 26.25953125 -11.89453125 27.1015625 C-11.92933594 27.72804688 -11.96414063 28.35453125 -12 29 C-10.88625 29.0825 -9.7725 29.165 -8.625 29.25 C-5 30 -5 30 -3.5625 32.0625 C-3.376875 32.701875 -3.19125 33.34125 -3 34 C-2.34 34 -1.68 34 -1 34 C-0.608125 33.484375 -0.21625 32.96875 0.1875 32.4375 C2 31 2 31 5.6875 31.3125 C6.780625 31.539375 7.87375 31.76625 9 32 C8.95875 31.236875 8.9175 30.47375 8.875 29.6875 C9 27 9 27 11 24 C13.125 23.3125 13.125 23.3125 15 23 C15 22.34 15 21.68 15 21 C14.01 20.34 13.02 19.68 12 19 C11.70703125 16.8359375 11.70703125 16.8359375 11.8125 14.375 C11.83957031 13.55773437 11.86664062 12.74046875 11.89453125 11.8984375 C11.92933594 11.27195312 11.96414063 10.64546875 12 10 C10.88625 9.9175 9.7725 9.835 8.625 9.75 C5 9 5 9 3.5625 6.9375 C3.376875 6.298125 3.19125 5.65875 3 5 C2.34 5 1.68 5 1 5 Z " fill="#5E2697" transform="translate(737,662)"/>
<path d="M0 0 C0.625 2.3125 0.625 2.3125 1 5 C0.01 6.485 0.01 6.485 -1 8 C0.02472412 8.02505615 1.04944824 8.0501123 2.10522461 8.07592773 C5.89409676 8.16984484 9.68277881 8.27010317 13.47143555 8.37231445 C15.11364303 8.41572297 16.75589739 8.45739358 18.39819336 8.49731445 C20.75388745 8.5548744 23.10934428 8.61860892 25.46484375 8.68359375 C26.20339096 8.70030624 26.94193817 8.71701874 27.7028656 8.73423767 C32.88612829 8.88612829 32.88612829 8.88612829 34 10 C34.125 12.5 34.125 12.5 34 15 C32.02170928 16.97829072 28.17672973 16.25503932 25.46484375 16.31640625 C24.71159317 16.33718735 23.95834259 16.35796844 23.18226624 16.37937927 C20.7674401 16.44495425 18.35250202 16.50379621 15.9375 16.5625 C14.30402471 16.6056777 12.6705609 16.64929173 11.03710938 16.69335938 C7.02485536 16.80064362 3.01248836 16.90188821 -1 17 C-0.34 17.99 0.32 18.98 1 20 C0.625 22.6875 0.625 22.6875 0 25 C-3.6862834 25.35742545 -5.45062946 25.39094741 -8.51953125 23.20703125 C-9.27621094 22.41683594 -10.03289063 21.62664063 -10.8125 20.8125 C-11.58207031 20.03519531 -12.35164062 19.25789062 -13.14453125 18.45703125 C-15.15576686 15.79373188 -15.94700664 14.33328232 -16 11 C-14.70703125 8.8671875 -14.70703125 8.8671875 -12.8125 6.875 C-12.20019531 6.21242188 -11.58789062 5.54984375 -10.95703125 4.8671875 C-7.26789152 1.34740947 -5.24008401 -0.43667367 0 0 Z " fill="#5E2697" transform="translate(573,560)"/>
<path d="M0 0 C3.9945789 0.55634804 5.9968544 2.85133027 8.6796875 5.640625 C9.19015625 6.13175781 9.700625 6.62289062 10.2265625 7.12890625 C13.76576301 10.71593379 13.76576301 10.71593379 13.921875 13.421875 C12.32147479 16.24216069 10.33287085 18.3354809 8.0546875 20.640625 C7.19359375 21.53265625 6.3325 22.4246875 5.4453125 23.34375 C2.8046875 25.390625 2.8046875 25.390625 0.0390625 25.75 C-2.1953125 25.390625 -2.1953125 25.390625 -3.1953125 24.390625 C-3.3828125 21.953125 -3.3828125 21.953125 -3.1953125 19.390625 C-2.5353125 18.730625 -1.8753125 18.070625 -1.1953125 17.390625 C-2.22003662 17.36556885 -3.24476074 17.3405127 -4.30053711 17.31469727 C-8.08940926 17.22078016 -11.87809131 17.12052183 -15.66674805 17.01831055 C-17.30895553 16.97490203 -18.95120989 16.93323142 -20.59350586 16.89331055 C-22.94919995 16.8357506 -25.30465678 16.77201608 -27.66015625 16.70703125 C-28.39870346 16.69031876 -29.13725067 16.67360626 -29.8981781 16.65638733 C-35.08144079 16.50449671 -35.08144079 16.50449671 -36.1953125 15.390625 C-36.3203125 12.890625 -36.3203125 12.890625 -36.1953125 10.390625 C-34.21702178 8.41233428 -30.37204223 9.13558568 -27.66015625 9.07421875 C-26.90690567 9.05343765 -26.15365509 9.03265656 -25.37757874 9.01124573 C-22.9627526 8.94567075 -20.54781452 8.88682879 -18.1328125 8.828125 C-16.49933721 8.7849473 -14.8658734 8.74133327 -13.23242188 8.69726562 C-9.22016786 8.58998138 -5.20780086 8.48873679 -1.1953125 8.390625 C-1.8553125 7.730625 -2.5153125 7.070625 -3.1953125 6.390625 C-3.3828125 3.828125 -3.3828125 3.828125 -3.1953125 1.390625 C-2.1953125 0.390625 -2.1953125 0.390625 0 0 Z " fill="#5E2697" transform="translate(467.1953125,559.609375)"/>
<path d="M0 0 C2.625 0.9375 2.625 0.9375 5 2 C4.125 6.875 4.125 6.875 3 8 C3.56509277 8.01981934 4.13018555 8.03963867 4.71240234 8.06005859 C7.26707997 8.15518236 9.82092541 8.26491058 12.375 8.375 C13.26445313 8.4059375 14.15390625 8.436875 15.0703125 8.46875 C15.92109375 8.50742187 16.771875 8.54609375 17.6484375 8.5859375 C18.43395996 8.6173584 19.21948242 8.6487793 20.02880859 8.68115234 C22 9 22 9 24 11 C24.1875 13.5625 24.1875 13.5625 24 16 C22.41596476 17.58403524 20.7228362 17.21974935 18.52734375 17.31640625 C17.62822266 17.35830078 16.72910156 17.40019531 15.80273438 17.44335938 C14.85720703 17.48267578 13.91167969 17.52199219 12.9375 17.5625 C11.98810547 17.60568359 11.03871094 17.64886719 10.06054688 17.69335938 C7.70718647 17.79979276 5.35371646 17.90181008 3 18 C3.66 18.66 4.32 19.32 5 20 C4.625 22.625 4.625 22.625 4 25 C1.8671875 25.8203125 1.8671875 25.8203125 -1 26 C-3.27146811 24.34637122 -4.96543716 22.87549441 -6.875 20.875 C-7.38546875 20.38773438 -7.8959375 19.90046875 -8.421875 19.3984375 C-10.6690181 17.11485424 -11.97361498 15.69445375 -12.09765625 12.4296875 C-10.71729523 9.37422646 -8.98605554 7.56110256 -6.5625 5.25 C-5.75941406 4.47140625 -4.95632813 3.6928125 -4.12890625 2.890625 C-2 1 -2 1 0 0 Z " fill="#5E2697" transform="translate(654,664)"/>
<path d="M0 0 C2.5549383 1.68088046 3.67561527 2.93064895 4.56640625 5.8671875 C5.20896973 9.45201533 5.2240209 11.48475194 3.75 14.875 C1.74645663 17.30787409 0.06344479 18.79288716 -3.0859375 19.40625 C-7.67472287 19.5941866 -9.41006237 19.49362128 -13.0625 16.4375 C-15.62102603 11.89817962 -15.75868078 8.73125079 -14.375 3.75 C-10.49685956 -1.18581511 -5.74055779 -1.59459939 0 0 Z M-9.875 5.6875 C-11.21199479 7.96574126 -11.21199479 7.96574126 -10.875 10.625 C-10.1432514 13.32987773 -10.1432514 13.32987773 -7 15 C-3.88695186 14.84239972 -3.88695186 14.84239972 -1 14 C0.39431504 11.21136993 0.25660094 9.07921132 0 6 C-3.69251238 3.53832508 -6.35152342 2.51637108 -9.875 5.6875 Z " fill="#5E2697" transform="translate(676,562)"/>
<path d="M0 0 C3.25415498 2.40524498 4.69571685 4.10616823 6 7.9375 C6 11.74724203 5.033189 13.80498871 3 17 C-0.68459187 19.45639458 -3.72230442 19.80884302 -8 19 C-11.31541064 16.60161784 -12.68360676 14.92940514 -14 11.0625 C-14 7.22476157 -13.10300954 5.1907731 -11 2 C-7.65274701 -0.62998449 -4.11567533 -0.50543381 0 0 Z M-7.1875 5.125 C-9.29688533 6.94043935 -9.29688533 6.94043935 -9.4375 10.0625 C-9.293125 11.031875 -9.14875 12.00125 -9 13 C-6.162422 15.35014158 -6.162422 15.35014158 -2.875 14.6875 C-0.11913578 14.29355679 -0.11913578 14.29355679 1 13 C1.41400106 8.8085289 1.41400106 8.8085289 -0.3125 5.125 C-2.90735178 3.39509881 -4.49260619 3.73905461 -7.1875 5.125 Z " fill="#5E2697" transform="translate(741,672)"/>
<path d="M0 0 C0.9075 0.37125 1.815 0.7425 2.75 1.125 C5.87447709 2.32136602 5.87447709 2.32136602 8.25 1.0625 C8.8275 0.711875 9.405 0.36125 10 0 C10.66 0.33 11.32 0.66 12 1 C11.814375 2.051875 11.62875 3.10375 11.4375 4.1875 C11.04920669 7.57119882 11.11752515 9.76425888 12 13 C10.1875 13.625 10.1875 13.625 8 14 C7.01 13.34 6.02 12.68 5 12 C2.32854463 12.80161791 2.32854463 12.80161791 0 14 C-1.125 12.25 -1.125 12.25 -2 10 C-1.33333333 8.66666667 -0.66666667 7.33333333 0 6 C-0.78309467 3.76529595 -0.78309467 3.76529595 -2 2 C-1.34 1.34 -0.68 0.68 0 0 Z " fill="#5E2697" transform="translate(382,572)"/>
<path d="M0 0 C1.0725 0.165 2.145 0.33 3.25 0.5 C6.63617619 0.95149016 8.75681674 0.88450453 12 0 C12.33 0.99 12.66 1.98 13 3 C12.649375 3.61875 12.29875 4.2375 11.9375 4.875 C10.68848842 7.07117281 10.68848842 7.07117281 11.875 9.75 C12.24625 10.4925 12.6175 11.235 13 12 C8.29561575 13.04541872 3.79792331 13 -1 13 C-0.835 12.236875 -0.67 11.47375 -0.5 10.6875 C0.02787057 7.85019567 0.1787954 5.6754493 -0.5625 2.875 C-0.706875 2.25625 -0.85125 1.6375 -1 1 C-0.67 0.67 -0.34 0.34 0 0 Z " fill="#5E2697" transform="translate(355,551)"/>
<path d="M0 0 C1.7015625 0.2784375 1.7015625 0.2784375 3.4375 0.5625 C4.613125 0.706875 5.78875 0.85125 7 1 C7.33 0.67 7.66 0.34 8 0 C9.66617115 -0.04063832 11.33388095 -0.042721 13 0 C12.835 0.763125 12.67 1.52625 12.5 2.3125 C11.78463166 6.15760484 12.18227242 9.21800993 13 13 C8.66666667 13 4.33333333 13 0 13 C0.185625 11.865625 0.37125 10.73125 0.5625 9.5625 C0.706875 8.386875 0.85125 7.21125 1 6 C0.67 5.67 0.34 5.34 0 5 C-0.04063832 3.33382885 -0.042721 1.66611905 0 0 Z " fill="#5E2697" transform="translate(378,541)"/>
</svg>
