<?xml version="1.0" encoding="UTF-8"?>
<svg version="1.1" xmlns="http://www.w3.org/2000/svg" width="1080" height="1080">
<path d="M0 0 C0.84401367 0.17160645 1.68802734 0.34321289 2.55761719 0.52001953 C40.21680748 8.27501289 73.53633075 25.63787946 102.52246094 50.7265625 C103.87318632 51.89070388 105.23674827 53.03990846 106.6015625 54.1875 C107.69597656 55.115625 107.69597656 55.115625 108.8125 56.0625 C109.43769531 56.58972656 110.06289063 57.11695313 110.70703125 57.66015625 C112 59 112 59 112 61 C112.66 61 113.32 61 114 61 C115.33984375 62.29296875 115.33984375 62.29296875 116.9375 64.1875 C117.56140625 64.92613281 118.1853125 65.66476562 118.828125 66.42578125 C119.54484375 67.27527344 120.2615625 68.12476563 121 69 C121.81984375 69.92167969 122.6396875 70.84335937 123.484375 71.79296875 C131.25516178 80.58900817 137.80317801 90.04264083 144 100 C144.43699219 100.70189453 144.87398437 101.40378906 145.32421875 102.12695312 C173.43369397 148.09675645 182.41512634 206.44945102 171 259 C170.81276367 259.86560547 170.62552734 260.73121094 170.43261719 261.62304688 C162.29354234 297.86231278 144.38834888 330.2371626 120 358 C119.28328125 358.85078125 118.5665625 359.7015625 117.828125 360.578125 C117.20421875 361.31546875 116.5803125 362.0528125 115.9375 362.8125 C115.41027344 363.43769531 114.88304687 364.06289063 114.33984375 364.70703125 C113 366 113 366 111 366 C111 366.66 111 367.32 111 368 C109.70703125 369.33984375 109.70703125 369.33984375 107.8125 370.9375 C107.07386719 371.56140625 106.33523438 372.1853125 105.57421875 372.828125 C104.72472656 373.54484375 103.87523437 374.2615625 103 375 C102.07832031 375.81984375 101.15664063 376.6396875 100.20703125 377.484375 C65.52476814 408.11549771 17.20325617 428.80840411 -29.30859375 429.23828125 C-30.18430023 429.2480751 -31.06000671 429.25786896 -31.96224976 429.26795959 C-50.99759755 429.43697711 -69.37178291 429.37754657 -88 425 C-88.9079834 424.79632812 -89.8159668 424.59265625 -90.75146484 424.3828125 C-122.78510332 417.03881896 -152.88867118 402.21604739 -178 381 C-178.54011719 380.54866699 -179.08023438 380.09733398 -179.63671875 379.63232422 C-190.86782222 370.23898134 -200.91365441 360.53384609 -210 349 C-210.61343262 348.23381348 -210.61343262 348.23381348 -211.23925781 347.45214844 C-227.02557441 327.72836719 -239.28171341 305.0620187 -247 281 C-247.26506348 280.19981445 -247.53012695 279.39962891 -247.80322266 278.57519531 C-259.322878 243.39823693 -261.68544793 202.10491461 -253 166 C-252.72712158 164.77531006 -252.72712158 164.77531006 -252.44873047 163.52587891 C-248.25200976 144.75502354 -241.13407234 126.89578407 -232 110 C-231.68063477 109.4013916 -231.36126953 108.8027832 -231.03222656 108.18603516 C-211.24736856 71.33799252 -180.24603603 42.28142175 -144 22 C-143.32678711 21.62004883 -142.65357422 21.24009766 -141.95996094 20.84863281 C-123.42719635 10.54209792 -102.7327917 4.08280286 -82 0 C-81.24058105 -0.16226074 -80.48116211 -0.32452148 -79.69873047 -0.49169922 C-54.65038543 -5.7238282 -24.98152488 -5.38168621 0 0 Z " fill="#5F2797" transform="translate(581,327)"/>
<path d="M0 0 C0.86481491 -0.01257339 1.72962982 -0.02514679 2.62065125 -0.0381012 C42.09650538 -0.49994504 75.8993631 6.60091968 111.01953125 24.9609375 C111.70241211 25.31720215 112.38529297 25.6734668 113.08886719 26.04052734 C117.61116813 28.46278898 121.70902152 31.2199504 125.83203125 34.2734375 C125.50203125 34.9334375 125.17203125 35.5934375 124.83203125 36.2734375 C124.11917969 36.17804688 123.40632813 36.08265625 122.671875 35.984375 C116.77858918 35.30224501 112.4003517 35.16984978 106.83203125 37.2734375 C106.83203125 37.9334375 106.83203125 38.5934375 106.83203125 39.2734375 C107.49203125 39.1084375 108.15203125 38.9434375 108.83203125 38.7734375 C111.84385558 38.27146678 114.6365794 38.30248576 117.6796875 38.41015625 C120.08511372 38.25736148 121.78412583 37.52209136 124.01953125 36.6484375 C127.66358042 35.72637306 128.72432802 36.21035979 132.046875 38.15625 C135.46832171 40.677316 138.65553565 43.45436394 141.83203125 46.2734375 C143.26906104 47.48232999 144.70644838 48.69079793 146.14453125 49.8984375 C147.03140625 50.6821875 147.91828125 51.4659375 148.83203125 52.2734375 C148.17203125 52.6034375 147.51203125 52.9334375 146.83203125 53.2734375 C145.84203125 52.9434375 144.85203125 52.6134375 143.83203125 52.2734375 C143.50203125 55.5734375 143.17203125 58.8734375 142.83203125 62.2734375 C143.82203125 62.6034375 144.81203125 62.9334375 145.83203125 63.2734375 C145.00703125 63.1290625 144.18203125 62.9846875 143.33203125 62.8359375 C136.61366427 61.69744761 136.61366427 61.69744761 129.83203125 61.2734375 C129.83203125 61.9334375 129.83203125 62.5934375 129.83203125 63.2734375 C126.36703125 64.2634375 126.36703125 64.2634375 122.83203125 65.2734375 C122.83203125 64.6134375 122.83203125 63.9534375 122.83203125 63.2734375 C119.20203125 64.2634375 115.57203125 65.2534375 111.83203125 66.2734375 C111.83203125 66.9334375 111.83203125 67.5934375 111.83203125 68.2734375 C110.84203125 67.9434375 109.85203125 67.6134375 108.83203125 67.2734375 C108.83203125 66.6134375 108.83203125 65.9534375 108.83203125 65.2734375 C107.51203125 65.2734375 106.19203125 65.2734375 104.83203125 65.2734375 C104.83203125 66.2634375 104.83203125 67.2534375 104.83203125 68.2734375 C105.49203125 68.2734375 106.15203125 68.2734375 106.83203125 68.2734375 C106.83203125 68.9334375 106.83203125 69.5934375 106.83203125 70.2734375 C104.85203125 70.2734375 102.87203125 70.2734375 100.83203125 70.2734375 C100.83203125 68.9534375 100.83203125 67.6334375 100.83203125 66.2734375 C99.92453125 66.1496875 99.01703125 66.0259375 98.08203125 65.8984375 C94.83203125 65.2734375 94.83203125 65.2734375 92.95703125 64.3046875 C90.50896534 63.11665551 88.25415818 62.64067141 85.58203125 62.1484375 C84.69 61.98085938 83.79796875 61.81328125 82.87890625 61.640625 C81.86570312 61.45886719 81.86570312 61.45886719 80.83203125 61.2734375 C80.83203125 60.6134375 80.83203125 59.9534375 80.83203125 59.2734375 C76.21203125 59.2734375 71.59203125 59.2734375 66.83203125 59.2734375 C66.68765625 60.7790625 66.54328125 62.2846875 66.39453125 63.8359375 C65.97958543 68.00317913 65.46198877 72.13371664 64.83203125 76.2734375 C65.82203125 74.2934375 65.82203125 74.2934375 66.83203125 72.2734375 C68.48203125 72.2734375 70.13203125 72.2734375 71.83203125 72.2734375 C70.5514064 73.9809373 69.21435568 75.64717346 67.83203125 77.2734375 C67.17203125 77.2734375 66.51203125 77.2734375 65.83203125 77.2734375 C66.16203125 79.9134375 66.49203125 82.5534375 66.83203125 85.2734375 C73.76203125 85.7684375 73.76203125 85.7684375 80.83203125 86.2734375 C77.90938691 87.73475967 75.90739979 88.61442996 72.83203125 89.2734375 C72.83203125 90.9234375 72.83203125 92.5734375 72.83203125 94.2734375 C69.86203125 93.7784375 69.86203125 93.7784375 66.83203125 93.2734375 C66.50203125 95.5834375 66.17203125 97.8934375 65.83203125 100.2734375 C65.0328125 100.304375 64.23359375 100.3353125 63.41015625 100.3671875 C57.41480571 101.09901433 53.53537499 102.04074211 49.61328125 106.68359375 C47.00178924 110.12410441 44.60206465 113.70812535 42.20458984 117.29980469 C37.85924601 123.54807212 32.2884226 128.99305878 26.83203125 134.2734375 C24.36403078 133.12170395 22.7841956 132.22560185 20.83203125 130.2734375 C20.17203125 130.9334375 19.51203125 131.5934375 18.83203125 132.2734375 C15.609375 132.43359375 15.609375 132.43359375 11.76953125 132.3359375 C9.4575676 132.28195256 7.14453454 132.25297287 4.83203125 132.2734375 C2.91148576 134.19398299 3.12749291 137.51126513 2.76953125 140.0859375 C2.50462891 141.95185547 2.50462891 141.95185547 2.234375 143.85546875 C1.75409318 147.36193806 1.75409318 147.36193806 1.83203125 151.2734375 C3.48203125 151.2734375 5.13203125 151.2734375 6.83203125 151.2734375 C7.64453125 153.9609375 7.64453125 153.9609375 7.83203125 157.2734375 C5.58203125 159.8984375 5.58203125 159.8984375 2.83203125 162.2734375 C0.51738336 164.84526848 -0.19079328 166.35864907 -1.10546875 169.7734375 C-2.22706447 173.46810574 -3.17617592 174.91626739 -6.16796875 177.2734375 C-7.15796875 177.6034375 -8.14796875 177.9334375 -9.16796875 178.2734375 C-10.37678971 180.27360216 -10.37678971 180.27360216 -11.16796875 182.2734375 C-11.82796875 182.2734375 -12.48796875 182.2734375 -13.16796875 182.2734375 C-13.82796875 184.5834375 -14.48796875 186.8934375 -15.16796875 189.2734375 C-15.82796875 189.2734375 -16.48796875 189.2734375 -17.16796875 189.2734375 C-17.29171875 189.9953125 -17.41546875 190.7171875 -17.54296875 191.4609375 C-18.15846185 194.23065644 -19.05241249 196.6704729 -20.16796875 199.2734375 C-19.50796875 199.2734375 -18.84796875 199.2734375 -18.16796875 199.2734375 C-17.95645554 205.77159346 -18.35796633 210.99876246 -20.16796875 217.2734375 C-20.09381388 221.57442003 -19.86067732 223.52300321 -16.91796875 226.7109375 C-16.01046875 227.5565625 -15.10296875 228.4021875 -14.16796875 229.2734375 C-13.40907663 230.50561718 -12.68198485 231.75771273 -11.98046875 233.0234375 C-8.72100833 238.39075087 -4.47178368 242.88766885 0.83203125 246.2734375 C4.50949014 245.93702831 4.50949014 245.93702831 7.83203125 244.2734375 C9.82166466 244.58925233 11.81131562 244.90560283 13.796875 245.24609375 C16.97781736 245.28883194 19.10158067 243.74798654 21.8125 242.21875 C25.39441023 240.54211117 27.93064391 240.67831062 31.83203125 241.2734375 C32.86216402 242.92164994 33.86317753 244.58847452 34.83203125 246.2734375 C38.45802547 246.69069428 38.45802547 246.69069428 41.83203125 246.2734375 C41.83203125 246.9334375 41.83203125 247.5934375 41.83203125 248.2734375 C42.49203125 248.2734375 43.15203125 248.2734375 43.83203125 248.2734375 C43.85945037 249.8150011 43.87861373 251.35671224 43.89453125 252.8984375 C43.90613281 253.75695312 43.91773438 254.61546875 43.9296875 255.5 C43.83203125 258.2734375 43.83203125 258.2734375 43.125 261.3125 C42.54825828 264.29674575 42.54825828 264.29674575 44.16015625 266.6953125 C44.794375 267.46359375 45.42859375 268.231875 46.08203125 269.0234375 C51.37968037 276.07289888 54.55538926 285.31008829 53.83203125 294.2734375 C52.3828125 296.4296875 52.3828125 296.4296875 50.83203125 298.2734375 C49.12524333 303.54896379 48.56296368 310.42171038 50.84375 315.546875 C51.27300781 316.30226563 51.70226562 317.05765625 52.14453125 317.8359375 C55.15406072 323.15135998 55.95857199 328.40856418 56.75512695 334.38500977 C57.35126273 338.57042965 58.1241261 341.05473887 60.83203125 344.2734375 C61.7109375 346.640625 61.7109375 346.640625 62.39453125 349.1484375 C63.43499212 352.89879929 64.58011451 356.58753671 65.83203125 360.2734375 C68.23020204 360.0170293 70.62446853 359.7438891 73.01953125 359.4609375 C74.02983398 359.35555664 74.02983398 359.35555664 75.06054688 359.24804688 C83.81530147 358.18039388 87.48385672 353.70140974 92.83203125 347.2734375 C94.00765625 346.0359375 94.00765625 346.0359375 95.20703125 344.7734375 C96.90189613 342.16595308 97.05712746 341.1438755 97.26953125 338.1484375 C97.83203125 334.2734375 97.83203125 334.2734375 100.26953125 332.2734375 C102.83203125 331.2734375 102.83203125 331.2734375 104.83203125 331.2734375 C104.96014329 325.65140603 104.96014329 325.65140603 104.01953125 320.1484375 C103.83203125 317.2734375 103.83203125 317.2734375 105.83203125 314.1484375 C107.87856544 311.93519125 109.91107992 310.58504262 112.58203125 309.2109375 C115.90451112 307.64858658 115.90451112 307.64858658 116.796875 305.15234375 C116.84993507 300.80731338 114.80212026 297.95259902 112.64453125 294.2734375 C105.29822166 280.97484268 101.37808704 267.90181192 104.33984375 252.66015625 C105.01953125 250.6484375 105.01953125 250.6484375 106.83203125 247.2734375 C107.14914062 246.6753125 107.46625 246.0771875 107.79296875 245.4609375 C112.20187406 238.20656847 120.46466758 234.16135346 128.3828125 231.73046875 C133.16640391 230.83783686 137.98980423 231.05221901 142.83203125 231.2734375 C143.16203125 228.9634375 143.49203125 226.6534375 143.83203125 224.2734375 C143.04699219 224.72976563 143.04699219 224.72976563 142.24609375 225.1953125 C139.25378535 226.53168324 136.44183495 227.0122947 133.20703125 227.5234375 C132.05976562 227.71421875 130.9125 227.905 129.73046875 228.1015625 C128.77398438 228.15828125 127.8175 228.215 126.83203125 228.2734375 C126.17203125 227.6134375 125.51203125 226.9534375 124.83203125 226.2734375 C124.83203125 224.9534375 124.83203125 223.6334375 124.83203125 222.2734375 C125.67507813 222.00789062 126.518125 221.74234375 127.38671875 221.46875 C129.03027344 220.93894531 129.03027344 220.93894531 130.70703125 220.3984375 C131.79757812 220.05039062 132.888125 219.70234375 134.01171875 219.34375 C136.91725848 218.46168519 136.91725848 218.46168519 138.83203125 216.2734375 C139.78078125 215.9846875 140.72953125 215.6959375 141.70703125 215.3984375 C144.91186819 214.49520679 144.91186819 214.49520679 146.95703125 212.1484375 C147.57578125 211.5296875 148.19453125 210.9109375 148.83203125 210.2734375 C150.15203125 210.2734375 151.47203125 210.2734375 152.83203125 210.2734375 C152.83203125 209.2834375 152.83203125 208.2934375 152.83203125 207.2734375 C153.82203125 207.2734375 154.81203125 207.2734375 155.83203125 207.2734375 C155.83203125 206.6134375 155.83203125 205.9534375 155.83203125 205.2734375 C156.49203125 204.9434375 157.15203125 204.6134375 157.83203125 204.2734375 C158.87921923 201.96089738 159.8754949 199.6249227 160.83203125 197.2734375 C161.48491752 195.93330253 162.1442872 194.59602222 162.83203125 193.2734375 C162.17203125 193.2734375 161.51203125 193.2734375 160.83203125 193.2734375 C160.50203125 192.6134375 160.17203125 191.9534375 159.83203125 191.2734375 C159.00703125 190.8403125 158.18203125 190.4071875 157.33203125 189.9609375 C154.83203125 188.2734375 154.83203125 188.2734375 154.01953125 185.5859375 C153.92671875 184.44125 153.92671875 184.44125 153.83203125 183.2734375 C152.74921875 184.48 152.74921875 184.48 151.64453125 185.7109375 C148.80687436 188.29635822 147.56036978 188.95386563 143.83203125 189.2734375 C143.17203125 187.2934375 142.51203125 185.3134375 141.83203125 183.2734375 C140.84203125 183.6034375 139.85203125 183.9334375 138.83203125 184.2734375 C138.37828125 183.3246875 137.92453125 182.3759375 137.45703125 181.3984375 C136.02964871 178.27030071 136.02964871 178.27030071 133.83203125 176.2734375 C134.20703125 173.6484375 134.20703125 173.6484375 134.83203125 171.2734375 C135.82203125 171.2734375 136.81203125 171.2734375 137.83203125 171.2734375 C140.83203125 175.49565972 140.83203125 175.49565972 140.83203125 178.2734375 C144.75641911 179.93832932 148.72303544 181.14547787 152.83203125 182.2734375 C153.16203125 181.6134375 153.49203125 180.9534375 153.83203125 180.2734375 C153.99703125 180.9128125 154.16203125 181.5521875 154.33203125 182.2109375 C155.74483643 184.62744042 155.74483643 184.62744042 159.08203125 185.0234375 C165.31005209 185.51937249 171.59006505 185.35233876 177.83203125 185.2734375 C178.12207031 185.90378906 178.41210938 186.53414062 178.7109375 187.18359375 C179.70467573 189.39224782 179.70467573 189.39224782 181.76953125 190.7109375 C183.83203125 192.2734375 183.83203125 192.2734375 185.33203125 194.8984375 C186.60083648 197.43925414 186.60083648 197.43925414 189.01953125 198.0859375 C189.61765625 198.1478125 190.21578125 198.2096875 190.83203125 198.2734375 C191.49203125 197.2834375 192.15203125 196.2934375 192.83203125 195.2734375 C193.08597656 196.43101562 193.33992188 197.58859375 193.6015625 198.78125 C193.94881079 200.3204046 194.29648992 201.85946203 194.64453125 203.3984375 C194.89299805 204.53925781 194.89299805 204.53925781 195.14648438 205.703125 C196.19141349 210.27715434 197.57497798 214.11897132 199.83203125 218.2734375 C200.51228762 220.26885618 201.17693622 222.26961741 201.83203125 224.2734375 C202.4836568 226.04986067 203.15143683 227.82041028 203.83203125 229.5859375 C204.16203125 230.44832031 204.49203125 231.31070313 204.83203125 232.19921875 C205.65061101 234.43750617 205.65061101 234.43750617 207.83203125 235.2734375 C208.16203125 234.6134375 208.49203125 233.9534375 208.83203125 233.2734375 C209.82203125 233.2734375 210.81203125 233.2734375 211.83203125 233.2734375 C208.14010189 263.36054 195.34986915 292.69675126 177.83203125 317.2734375 C177.41598633 317.85770508 176.99994141 318.44197266 176.57128906 319.04394531 C170.71281671 327.16032216 164.16569541 334.57111321 157.24755859 341.79052734 C155.96647574 343.1325931 154.70469908 344.49302271 153.4453125 345.85546875 C133.20674851 367.12485942 105.3740996 382.69761025 77.83203125 392.2734375 C76.68275146 392.67755859 76.68275146 392.67755859 75.51025391 393.08984375 C43.69110028 404.05602864 6.84103134 406.24897523 -26.16796875 399.2734375 C-27.03760254 399.09651367 -27.90723633 398.91958984 -28.80322266 398.73730469 C-47.12203468 394.94042187 -63.40416396 388.44786706 -80.16796875 380.2734375 C-79.50796875 379.2834375 -78.84796875 378.2934375 -78.16796875 377.2734375 C-78.16796875 375.9534375 -78.16796875 374.6334375 -78.16796875 373.2734375 C-75.19796875 372.6134375 -72.22796875 371.9534375 -69.16796875 371.2734375 C-68.83796875 368.9634375 -68.50796875 366.6534375 -68.16796875 364.2734375 C-68.82796875 364.2734375 -69.48796875 364.2734375 -70.16796875 364.2734375 C-70.16796875 363.2834375 -70.16796875 362.2934375 -70.16796875 361.2734375 C-71.15796875 360.9434375 -72.14796875 360.6134375 -73.16796875 360.2734375 C-70.09906688 358.73898656 -67.46702609 359.72359461 -64.16796875 360.2734375 C-63.71421875 359.3659375 -63.26046875 358.4584375 -62.79296875 357.5234375 C-61.58463542 355.10677083 -60.37630208 352.69010417 -59.16796875 350.2734375 C-58.85859375 349.6340625 -58.54921875 348.9946875 -58.23046875 348.3359375 C-57.16796875 346.2734375 -57.16796875 346.2734375 -55.54296875 344.0234375 C-54.13792073 341.21334147 -54.04488313 340.22653529 -54.16796875 337.2109375 C-54.16796875 333.2734375 -54.16796875 333.2734375 -52.91796875 330.7734375 C-51.16796875 329.2734375 -51.16796875 329.2734375 -47.16796875 329.2734375 C-46.83796875 328.2834375 -46.50796875 327.2934375 -46.16796875 326.2734375 C-45.05421875 326.0259375 -43.94046875 325.7784375 -42.79296875 325.5234375 C-38.94667784 324.64476593 -38.94667784 324.64476593 -37.4921875 321.3125 C-35.74449655 316.77129239 -35.61911284 312.21219934 -35.35546875 307.3984375 C-34.76970021 299.57373566 -33.6315982 294.19731835 -28.16796875 288.2734375 C-26.15100653 285.24799416 -25.90985779 284.66276368 -25.98046875 281.2734375 C-25.99013672 280.2525 -25.99013672 280.2525 -26 279.2109375 C-26.11099129 277.05585541 -26.11099129 277.05585541 -27.16796875 274.2734375 C-28.82494254 273.58303176 -30.49354485 272.920374 -32.16796875 272.2734375 C-32.86921875 271.6134375 -33.57046875 270.9534375 -34.29296875 270.2734375 C-38.55064098 267.31157856 -43.09886575 266.94813422 -48.16796875 266.2734375 C-48.66296875 264.7884375 -48.66296875 264.7884375 -49.16796875 263.2734375 C-49.82796875 263.2734375 -50.48796875 263.2734375 -51.16796875 263.2734375 C-51.3896875 263.964375 -51.61140625 264.6553125 -51.83984375 265.3671875 C-53.49724124 268.99396319 -55.83226256 271.7856644 -58.41796875 274.7734375 C-58.88332031 275.32902344 -59.34867187 275.88460938 -59.828125 276.45703125 C-62.99334174 280.16286352 -66.34929048 283.24560976 -70.16796875 286.2734375 C-86.54445796 274.09604808 -99.40934952 252.1941194 -103.16796875 232.2734375 C-103.16796875 230.9534375 -103.16796875 229.6334375 -103.16796875 228.2734375 C-103.82796875 228.2734375 -104.48796875 228.2734375 -105.16796875 228.2734375 C-105.49796875 227.6134375 -105.82796875 226.9534375 -106.16796875 226.2734375 C-108.18466702 225.13993216 -108.18466702 225.13993216 -110.16796875 224.2734375 C-110.49796875 224.9334375 -110.82796875 225.5934375 -111.16796875 226.2734375 C-111.82796875 225.9434375 -112.48796875 225.6134375 -113.16796875 225.2734375 C-112.83796875 224.2834375 -112.50796875 223.2934375 -112.16796875 222.2734375 C-113.49828125 223.2015625 -113.49828125 223.2015625 -114.85546875 224.1484375 C-118.16796875 226.2734375 -118.16796875 226.2734375 -120.91796875 227.2109375 C-123.42480934 228.11137635 -123.42480934 228.11137635 -124.48046875 230.8984375 C-124.82078125 232.0740625 -124.82078125 232.0740625 -125.16796875 233.2734375 C-125.77125 233.18964844 -126.37453125 233.10585938 -126.99609375 233.01953125 C-127.7953125 232.91769531 -128.59453125 232.81585937 -129.41796875 232.7109375 C-130.206875 232.60652344 -130.99578125 232.50210938 -131.80859375 232.39453125 C-134.16015608 232.15188784 -134.16015608 232.15188784 -136.328125 232.85546875 C-136.93527344 232.99339844 -137.54242188 233.13132812 -138.16796875 233.2734375 C-140.94130793 231.05476615 -142.03670317 229.66723425 -143.16796875 226.2734375 C-142.609375 223.35546875 -142.609375 223.35546875 -141.73046875 220.0859375 C-141.44300781 218.99925781 -141.15554688 217.91257812 -140.859375 216.79296875 C-140.51712891 215.54580078 -140.51712891 215.54580078 -140.16796875 214.2734375 C-141.15796875 214.2734375 -142.14796875 214.2734375 -143.16796875 214.2734375 C-143.16796875 213.6134375 -143.16796875 212.9534375 -143.16796875 212.2734375 C-146.46796875 212.6034375 -149.76796875 212.9334375 -153.16796875 213.2734375 C-151.28791141 207.25725403 -149.10734044 201.84810795 -146.16796875 196.2734375 C-149.28889033 196.65292063 -152.22545768 197.14372343 -155.16796875 198.2734375 C-157.02713699 201.24050796 -157.02713699 201.24050796 -158.16796875 204.2734375 C-161.63988142 206.13339072 -165.42793337 204.92075132 -169.16796875 204.2734375 C-172.88922046 196.08668374 -172.42270839 190.37969883 -169.48046875 181.9609375 C-167.55024144 177.5124208 -165.7673074 175.21931155 -161.16796875 173.2734375 C-158.40590102 172.98426795 -155.95940576 173.0809246 -153.16796875 173.2734375 C-153.16796875 173.9334375 -153.16796875 174.5934375 -153.16796875 175.2734375 C-151.18305233 175.00667546 -151.18305233 175.00667546 -149.16796875 174.2734375 C-148.83796875 173.2834375 -148.50796875 172.2934375 -148.16796875 171.2734375 C-145.52796875 171.2734375 -142.88796875 171.2734375 -140.16796875 171.2734375 C-140.16796875 171.9334375 -140.16796875 172.5934375 -140.16796875 173.2734375 C-138.51796875 172.9434375 -136.86796875 172.6134375 -135.16796875 172.2734375 C-134.66509941 174.231036 -134.16575885 176.18954127 -133.66796875 178.1484375 C-133.38953125 179.23898437 -133.11109375 180.32953125 -132.82421875 181.453125 C-132.16796875 184.2734375 -132.16796875 184.2734375 -132.16796875 186.2734375 C-130.49784604 185.23991104 -130.49784604 185.23991104 -129.16796875 183.2734375 C-129.10824057 179.84224612 -129.10824057 179.84224612 -129.48046875 176.0234375 C-129.66657532 172.10769896 -129.72217847 169.12036361 -127.50390625 165.73046875 C-122.44954091 161.2734375 -122.44954091 161.2734375 -118.16796875 161.2734375 C-118.16796875 160.6134375 -118.16796875 159.9534375 -118.16796875 159.2734375 C-117.40484375 158.8815625 -116.64171875 158.4896875 -115.85546875 158.0859375 C-112.86193762 156.06704441 -112.28776457 154.53613822 -111.0234375 151.24609375 C-109.00835164 146.59943457 -106.41530754 142.37507416 -101.77734375 140.1015625 C-99.58394214 139.37042863 -97.42810112 138.75559907 -95.16796875 138.2734375 C-95.12671875 137.5103125 -95.08546875 136.7471875 -95.04296875 135.9609375 C-94.16796875 133.2734375 -94.16796875 133.2734375 -91.35546875 131.4609375 C-88.16796875 130.2734375 -88.16796875 130.2734375 -84.16796875 130.2734375 C-83.50796875 130.9334375 -82.84796875 131.5934375 -82.16796875 132.2734375 C-81.52859375 131.8196875 -80.88921875 131.3659375 -80.23046875 130.8984375 C-76.32853227 128.82802223 -72.48357242 128.07262336 -68.16796875 127.2734375 C-68.49796875 125.9534375 -68.82796875 124.6334375 -69.16796875 123.2734375 C-70.03421875 124.046875 -70.03421875 124.046875 -70.91796875 124.8359375 C-73.16796875 126.2734375 -73.16796875 126.2734375 -75.41796875 125.9609375 C-75.99546875 125.7340625 -76.57296875 125.5071875 -77.16796875 125.2734375 C-76.66998505 121.53855973 -76.29305119 119.46106115 -74.16796875 116.2734375 C-76.14796875 116.2734375 -78.12796875 116.2734375 -80.16796875 116.2734375 C-79.83796875 115.6134375 -79.50796875 114.9534375 -79.16796875 114.2734375 C-77.09375 113.859375 -77.09375 113.859375 -74.48046875 113.6484375 C-73.12308594 113.53242188 -73.12308594 113.53242188 -71.73828125 113.4140625 C-69.16796875 113.2734375 -69.16796875 113.2734375 -65.85546875 113.3984375 C-62.53503592 113.24399876 -60.93563131 112.04758017 -58.16796875 110.2734375 C-55.35546875 109.5859375 -55.35546875 109.5859375 -53.16796875 109.2734375 C-53.07910691 106.07441111 -53.25738344 103.34666294 -54.16796875 100.2734375 C-55.81796875 99.9434375 -57.46796875 99.6134375 -59.16796875 99.2734375 C-60.16796875 96.2734375 -60.16796875 96.2734375 -60.10546875 92.7734375 C-59.85507115 89.15804813 -59.85507115 89.15804813 -62.16796875 86.2734375 C-63.31265625 87.2325 -63.31265625 87.2325 -64.48046875 88.2109375 C-67.16796875 90.2734375 -67.16796875 90.2734375 -70.16796875 91.2734375 C-70.82796875 90.2834375 -71.48796875 89.2934375 -72.16796875 88.2734375 C-71.17796875 86.2934375 -71.17796875 86.2934375 -70.16796875 84.2734375 C-73.91322674 80.52817951 -78.15067784 80.58433801 -83.16796875 80.2734375 C-83.60109375 81.3871875 -84.03421875 82.5009375 -84.48046875 83.6484375 C-86.16796875 87.2734375 -86.16796875 87.2734375 -89.16796875 89.2734375 C-89.29171875 90.3871875 -89.41546875 91.5009375 -89.54296875 92.6484375 C-90.16796875 96.2734375 -90.16796875 96.2734375 -92.48046875 98.7109375 C-95.16796875 100.2734375 -95.16796875 100.2734375 -99.16796875 100.2734375 C-99.49796875 102.9134375 -99.82796875 105.5534375 -100.16796875 108.2734375 C-101.81796875 108.9334375 -103.46796875 109.5934375 -105.16796875 110.2734375 C-106.39873798 104.85805288 -106.39873798 104.85805288 -105.23046875 101.8984375 C-104.87984375 101.3621875 -104.52921875 100.8259375 -104.16796875 100.2734375 C-105.24046875 100.0053125 -106.31296875 99.7371875 -107.41796875 99.4609375 C-110.83580026 98.37862419 -112.41789098 97.38183046 -115.16796875 95.2734375 C-117.81731697 94.55910629 -117.81731697 94.55910629 -120.16796875 94.2734375 C-119.67296875 92.2934375 -119.67296875 92.2934375 -119.16796875 90.2734375 C-119.82796875 90.2734375 -120.48796875 90.2734375 -121.16796875 90.2734375 C-118.80249496 84.66908422 -113.79369415 81.44042657 -108.35546875 79.0234375 C-107.63359375 78.7759375 -106.91171875 78.5284375 -106.16796875 78.2734375 C-105.17796875 77.6134375 -104.18796875 76.9534375 -103.16796875 76.2734375 C-99.48046875 76.6484375 -99.48046875 76.6484375 -96.16796875 77.2734375 C-96.16796875 77.9334375 -96.16796875 78.5934375 -96.16796875 79.2734375 C-95.26046875 78.7578125 -94.35296875 78.2421875 -93.41796875 77.7109375 C-90.16796875 76.2734375 -90.16796875 76.2734375 -87.79296875 76.5859375 C-87.25671875 76.8128125 -86.72046875 77.0396875 -86.16796875 77.2734375 C-87.15796875 75.6234375 -88.14796875 73.9734375 -89.16796875 72.2734375 C-88.50796875 72.2734375 -87.84796875 72.2734375 -87.16796875 72.2734375 C-87.16796875 71.6134375 -87.16796875 70.9534375 -87.16796875 70.2734375 C-86.23984375 70.0878125 -85.31171875 69.9021875 -84.35546875 69.7109375 C-80.93009678 68.16616191 -80.64737085 67.88722512 -79.29296875 64.6484375 C-78.73609375 62.9778125 -78.73609375 62.9778125 -78.16796875 61.2734375 C-75.52796875 61.2734375 -72.88796875 61.2734375 -70.16796875 61.2734375 C-69.83796875 61.9334375 -69.50796875 62.5934375 -69.16796875 63.2734375 C-69.49796875 63.9334375 -69.82796875 64.5934375 -70.16796875 65.2734375 C-69.50796875 65.2734375 -68.84796875 65.2734375 -68.16796875 65.2734375 C-68.16796875 65.9334375 -68.16796875 66.5934375 -68.16796875 67.2734375 C-67.50796875 67.2734375 -66.84796875 67.2734375 -66.16796875 67.2734375 C-65.83796875 66.6134375 -65.50796875 65.9534375 -65.16796875 65.2734375 C-65.16796875 66.2634375 -65.16796875 67.2534375 -65.16796875 68.2734375 C-67.14796875 68.9334375 -69.12796875 69.5934375 -71.16796875 70.2734375 C-71.16796875 70.9334375 -71.16796875 71.5934375 -71.16796875 72.2734375 C-75.62296875 72.7684375 -75.62296875 72.7684375 -80.16796875 73.2734375 C-80.16796875 74.2634375 -80.16796875 75.2534375 -80.16796875 76.2734375 C-77.52796875 75.9434375 -74.88796875 75.6134375 -72.16796875 75.2734375 C-71.95140625 76.4490625 -71.95140625 76.4490625 -71.73046875 77.6484375 C-70.45260018 80.42500513 -70.45260018 80.42500513 -68.03125 81.05078125 C-65.74822184 81.54179359 -63.48100948 81.95456151 -61.16796875 82.2734375 C-61.16796875 81.2834375 -61.16796875 80.2934375 -61.16796875 79.2734375 C-60.50796875 79.2734375 -59.84796875 79.2734375 -59.16796875 79.2734375 C-59.16796875 79.9334375 -59.16796875 80.5934375 -59.16796875 81.2734375 C-58.50796875 81.2734375 -57.84796875 81.2734375 -57.16796875 81.2734375 C-57.16796875 80.2834375 -57.16796875 79.2934375 -57.16796875 78.2734375 C-56.50796875 78.2734375 -55.84796875 78.2734375 -55.16796875 78.2734375 C-55.51583583 76.29807005 -55.51583583 76.29807005 -56.16796875 74.2734375 C-56.82796875 73.9434375 -57.48796875 73.6134375 -58.16796875 73.2734375 C-57.67296875 71.7884375 -57.67296875 71.7884375 -57.16796875 70.2734375 C-56.79671875 70.7890625 -56.42546875 71.3046875 -56.04296875 71.8359375 C-54.13623723 73.63663733 -54.13623723 73.63663733 -50.98046875 72.9609375 C-50.05234375 72.7340625 -49.12421875 72.5071875 -48.16796875 72.2734375 C-47.686886 73.68945464 -47.20818734 75.10628187 -46.73046875 76.5234375 C-46.46363281 77.31234375 -46.19679688 78.10125 -45.921875 78.9140625 C-45.25257385 81.008663 -44.70128883 83.14015717 -44.16796875 85.2734375 C-41.19796875 85.6034375 -38.22796875 85.9334375 -35.16796875 86.2734375 C-34.44609375 85.2215625 -33.72421875 84.1696875 -32.98046875 83.0859375 C-30.65113763 79.81693303 -28.08948163 77.03703076 -25.16796875 74.2734375 C-24.50796875 73.6134375 -23.84796875 72.9534375 -23.16796875 72.2734375 C-21.22265625 71.640625 -21.22265625 71.640625 -19.04296875 71.1484375 C-17.76421875 70.8596875 -16.48546875 70.5709375 -15.16796875 70.2734375 C-15.13058594 69.00628906 -15.09320312 67.73914063 -15.0546875 66.43359375 C-14.98897082 64.73434819 -14.92252552 63.0351307 -14.85546875 61.3359375 C-14.83291016 60.50513672 -14.81035156 59.67433594 -14.78710938 58.81835938 C-14.35591723 48.74414291 -11.53266764 40.42891199 -4.16796875 33.2734375 C-5.68869545 33.24589919 -7.20957549 33.22680375 -8.73046875 33.2109375 C-9.57738281 33.19933594 -10.42429687 33.18773437 -11.296875 33.17578125 C-14.1955419 33.21026475 -14.1955419 33.21026475 -17.125 33.77563477 C-22.30755061 34.53471932 -27.50069998 34.37706853 -32.7265625 34.3359375 C-33.82968277 34.33215088 -34.93280304 34.32836426 -36.0693512 34.32446289 C-40.76608898 34.30818699 -45.46273806 34.28003154 -50.15942383 34.25292969 C-53.59846592 34.23479304 -57.03749374 34.22273238 -60.4765625 34.2109375 C-61.52887558 34.20263916 -62.58118866 34.19434082 -63.66539001 34.18579102 C-69.25788086 34.16727816 -74.6573192 34.26508733 -80.16796875 35.2734375 C-81.15796875 36.2634375 -81.15796875 36.2634375 -82.16796875 37.2734375 C-82.74546875 37.1084375 -83.32296875 36.9434375 -83.91796875 36.7734375 C-87.08332941 36.07002402 -89.20127262 37.127214 -92.16796875 38.2734375 C-92.49796875 39.9234375 -92.82796875 41.5734375 -93.16796875 43.2734375 C-91.18796875 43.2734375 -89.20796875 43.2734375 -87.16796875 43.2734375 C-91.45331266 46.13033344 -95.13194948 45.61999397 -100.10546875 44.7734375 C-100.78609375 44.6084375 -101.46671875 44.4434375 -102.16796875 44.2734375 C-101.67296875 44.8921875 -101.17796875 45.5109375 -100.66796875 46.1484375 C-99.16796875 48.2734375 -99.16796875 48.2734375 -99.16796875 50.2734375 C-98.50796875 50.6034375 -97.84796875 50.9334375 -97.16796875 51.2734375 C-98.13734375 51.3971875 -99.10671875 51.5209375 -100.10546875 51.6484375 C-101.11609375 51.8546875 -102.12671875 52.0609375 -103.16796875 52.2734375 C-103.66296875 53.2634375 -103.66296875 53.2634375 -104.16796875 54.2734375 C-104.82796875 54.2734375 -105.48796875 54.2734375 -106.16796875 54.2734375 C-106.66296875 55.2634375 -106.66296875 55.2634375 -107.16796875 56.2734375 C-104.52796875 56.6034375 -101.88796875 56.9334375 -99.16796875 57.2734375 C-99.51859375 57.8921875 -99.86921875 58.5109375 -100.23046875 59.1484375 C-100.69453125 60.2003125 -100.69453125 60.2003125 -101.16796875 61.2734375 C-100.83796875 61.9334375 -100.50796875 62.5934375 -100.16796875 63.2734375 C-100.82796875 63.2734375 -101.48796875 63.2734375 -102.16796875 63.2734375 C-102.49796875 64.2634375 -102.82796875 65.2534375 -103.16796875 66.2734375 C-104.65296875 65.7784375 -104.65296875 65.7784375 -106.16796875 65.2734375 C-105.17796875 64.9434375 -104.18796875 64.6134375 -103.16796875 64.2734375 C-103.49796875 63.6134375 -103.82796875 62.9534375 -104.16796875 62.2734375 C-106.14796875 62.6034375 -108.12796875 62.9334375 -110.16796875 63.2734375 C-110.49796875 64.2634375 -110.82796875 65.2534375 -111.16796875 66.2734375 C-113.80796875 66.2734375 -116.44796875 66.2734375 -119.16796875 66.2734375 C-119.49796875 65.6134375 -119.82796875 64.9534375 -120.16796875 64.2734375 C-116.86796875 63.6134375 -113.56796875 62.9534375 -110.16796875 62.2734375 C-111.15796875 60.9534375 -112.14796875 59.6334375 -113.16796875 58.2734375 C-111.41796875 54.3984375 -111.41796875 54.3984375 -109.16796875 53.2734375 C-110.56015625 53.5209375 -110.56015625 53.5209375 -111.98046875 53.7734375 C-116.03585761 54.40957693 -119.18992198 54.13355572 -123.16796875 53.2734375 C-122.67296875 52.2834375 -122.67296875 52.2834375 -122.16796875 51.2734375 C-115.91255932 49.30414194 -109.69005392 48.72902433 -103.16796875 48.2734375 C-105.14796875 47.2834375 -107.12796875 46.2934375 -109.16796875 45.2734375 C-109.49796875 46.2634375 -109.82796875 47.2534375 -110.16796875 48.2734375 C-111.15796875 48.2734375 -112.14796875 48.2734375 -113.16796875 48.2734375 C-113.16796875 47.6134375 -113.16796875 46.9534375 -113.16796875 46.2734375 C-114.15796875 45.7784375 -114.15796875 45.7784375 -115.16796875 45.2734375 C-89.11104946 24.30297163 -60.2969349 11.10195847 -27.79296875 3.5859375 C-26.86524658 3.37114746 -25.93752441 3.15635742 -24.98168945 2.93505859 C-24.08667725 2.73348145 -23.19166504 2.5319043 -22.26953125 2.32421875 C-21.47885254 2.14544189 -20.68817383 1.96666504 -19.87353516 1.7824707 C-13.2361601 0.53369548 -6.73689804 0.08980289 0 0 Z " fill="#FDFDFE" transform="translate(527.16796875,338.7265625)"/>
<path d="M0 0 C3.80674385 1.58614327 7.40591486 3.22832711 11 5.25 C14.24609639 6.94525344 14.83600435 7.02779587 18.6875 6.375 C19.780625 6.25125 20.87375 6.1275 22 6 C24.3125 8.6875 24.3125 8.6875 25.48046875 10.37890625 C27.99964631 13.06646071 31.25111001 13.84609894 34.6953125 14.9453125 C37.43788465 16.20038789 38.48338151 17.41831287 40 20 C40.1875 22.75 40.1875 22.75 40 25 C41.65 25.33 43.3 25.66 45 26 C45.495 27.485 45.495 27.485 46 29 C47.8653245 30.01754868 47.8653245 30.01754868 50.0625 30.6875 C50.79597656 30.93886719 51.52945313 31.19023438 52.28515625 31.44921875 C52.85105469 31.63097656 53.41695313 31.81273437 54 32 C53.505 30.515 53.505 30.515 53 29 C54.32 28.34 55.64 27.68 57 27 C59.56110022 32.60562096 59.82805162 37.92488863 59 44 C57.62210116 46.77116457 56.40175404 47.94135368 54 50 C53.34 50 52.68 50 52 50 C51.67 53.63 51.34 57.26 51 61 C51.99 61.495 51.99 61.495 53 62 C52.34 62.66 51.68 63.32 51 64 C50.49968794 67.41571853 50.49968794 67.41571853 51 71 C51.57234375 71.56074219 52.1446875 72.12148438 52.734375 72.69921875 C55.8619875 75.87536317 57.60459949 79.49435167 59.625 83.4375 C60.01945312 84.18837891 60.41390625 84.93925781 60.8203125 85.71289062 C62.39330433 88.73399149 63.86616184 91.60177662 64.953125 94.8359375 C66.39827523 97.82330029 68.22880569 98.64863892 71.125 100.1875 C72.77792656 101.07483593 74.4120898 102.00096425 76 103 C76 103.66 76 104.32 76 105 C77.485 105.495 77.485 105.495 79 106 C81.78239496 113.48888679 81.41213288 121.47932519 81.5625 129.375 C81.62039574 132.09135427 81.6858024 134.8072958 81.75390625 137.5234375 C81.77783447 138.71888184 81.8017627 139.91432617 81.82641602 141.14599609 C81.80950693 143.94575462 81.80950693 143.94575462 83 146 C83.06996014 147.70702735 83.08440154 149.41668003 83.0625 151.125 C83.05347656 152.03507813 83.04445313 152.94515625 83.03515625 153.8828125 C83.02355469 154.58148437 83.01195312 155.28015625 83 156 C82.34 156.33 81.68 156.66 81 157 C74.34235824 151.99872805 68.06330549 146.70712771 62 141 C61.15211914 140.20311768 61.15211914 140.20311768 60.28710938 139.39013672 C28.66116622 109.42295576 6.62351381 67.35886814 1 24 C0.87238281 23.02933594 0.74476563 22.05867187 0.61328125 21.05859375 C-0.15431298 14.05055815 -0.10075944 7.04196559 0 0 Z " fill="#FDFDFE" transform="translate(339,545)"/>
<path d="M0 0 C5.34617213 4.12991797 8.24593296 9.45455556 10.0625 15.83203125 C12.22794221 37.73955702 0.30148173 58.3176613 -12.9375 74.83203125 C-15.22094907 77.54624086 -17.54355026 80.21485147 -19.9375 82.83203125 C-32.47449793 77.76088602 -41.62147066 57.18153102 -46.73095703 45.42504883 C-51.34752042 34.40162387 -53.6591321 21.1422104 -49.83984375 9.48046875 C-45.93682881 2.59034637 -40.74445343 -1.35110566 -33.375 -3.98046875 C-22.16415381 -6.94054043 -10.04474175 -6.05519715 0 0 Z " fill="#602A98" transform="translate(573.9375,376.16796875)"/>
<path d="M0 0 C4.29009282 3.56407711 6.66628814 7.64307132 7.33984375 13.26171875 C8.08925515 31.36113953 -1.95717771 46.99799168 -12.85546875 60.703125 C-14.96875 62.6875 -14.96875 62.6875 -18.96875 62.6875 C-20.79879631 60.76081758 -22.30009324 58.95009877 -23.84375 56.8125 C-24.28356201 56.21824219 -24.72337402 55.62398437 -25.17651367 55.01171875 C-35.55001473 40.81660234 -42.57434803 26.63819292 -39.96875 8.6875 C-38.33786139 3.19398046 -35.29132254 0.63227207 -30.46875 -2.25 C-20.58564903 -7.38294857 -9.09994048 -6.14541435 0 0 Z " fill="#622C99" transform="translate(680.96875,585.3125)"/>
<path d="M0 0 C4.12553199 3.42736504 6.61072194 7.4013736 7.3046875 12.82421875 C7.97471792 29.65229052 -0.47746513 43.89878221 -10.21875 56.9375 C-10.85526489 57.79831177 -10.85526489 57.79831177 -11.50463867 58.67651367 C-12.734375 60.265625 -12.734375 60.265625 -14.96875 62.6875 C-17.96875 62.6875 -17.96875 62.6875 -19.6953125 61.24609375 C-31.72460049 47.80596334 -40.40292409 32.16362863 -40.17578125 13.84765625 C-39.79666326 8.06074204 -38.08074299 4.47788079 -33.84375 0.4375 C-23.62512653 -7.50322199 -10.60602294 -7.162509 0 0 Z " fill="#632C9A" transform="translate(473.96875,547.3125)"/>
<path d="M0 0 C3.44968669 1.53319408 6.06948331 3.64129144 9 6 C10.2684375 6.5878125 10.2684375 6.5878125 11.5625 7.1875 C15.97314592 10.46721107 17.30783278 15.92349833 19 21 C21.64 21.33 24.28 21.66 27 22 C27.33 21.34 27.66 20.68 28 20 C26.515 19.505 26.515 19.505 25 19 C23.8125 16.9375 23.8125 16.9375 23 15 C23.99 15 24.98 15 26 15 C26 14.34 26 13.68 26 13 C27.65 13.33 29.3 13.66 31 14 C30.67 16.31 30.34 18.62 30 21 C30.66 21 31.32 21 32 21 C32.99 24.465 32.99 24.465 34 28 C34.66 28 35.32 28 36 28 C36 27.34 36 26.68 36 26 C37.98 26.33 39.96 26.66 42 27 C42.33 26.34 42.66 25.68 43 25 C43.9075 25.165 44.815 25.33 45.75 25.5 C49.11087503 26.10137146 49.11087503 26.10137146 53 26 C53.21755666 31.4389165 53.10428384 35.87080814 51 41 C50.31292969 40.98839844 49.62585938 40.97679687 48.91796875 40.96484375 C48.01691406 40.95582031 47.11585938 40.94679688 46.1875 40.9375 C45.29417969 40.92589844 44.40085937 40.91429687 43.48046875 40.90234375 C40.86586209 40.88990033 40.86586209 40.88990033 38 42 C34.8984375 41.2578125 34.8984375 41.2578125 31.375 40.125 C30.20710937 39.75632812 29.03921875 39.38765625 27.8359375 39.0078125 C25 38 25 38 24 37 C22.33382885 36.95936168 20.66611905 36.957279 19 37 C18.34 38.98 17.68 40.96 17 43 C15.51793505 42.745504 14.03931385 42.47088238 12.5625 42.1875 C11.73878906 42.03667969 10.91507813 41.88585937 10.06640625 41.73046875 C9.38449219 41.48941406 8.70257812 41.24835938 8 41 C7.67 40.01 7.34 39.02 7 38 C4.74674597 37.08723369 2.48290011 36.54218478 0.12890625 35.94140625 C-2 35 -2 35 -3.34765625 33.33984375 C-4.26755314 30.04033334 -3.63914723 27.32356561 -3 24 C-5.66740923 24.11518358 -8.33347241 24.24189546 -11 24.375 C-11.74378906 24.4059375 -12.48757813 24.436875 -13.25390625 24.46875 C-19.59640606 24.79966303 -25.60416553 25.40277702 -31 29 C-33.04296875 29.1953125 -33.04296875 29.1953125 -35.1875 29.125 C-36.445625 29.08375 -37.70375 29.0425 -39 29 C-39 28.01 -39 27.02 -39 26 C-37.3603125 25.5359375 -37.3603125 25.5359375 -35.6875 25.0625 C-33.44592006 24.41662103 -31.2130649 23.7376883 -29 23 C-28.54251246 21.00666144 -28.08792169 19.01247782 -27.6640625 17.01171875 C-26.64023905 13.91013593 -24.72906399 12.6374384 -22 11 C-21.34 11 -20.68 11 -20 11 C-19.67 9.35 -19.34 7.7 -19 6 C-18.07767578 5.92652344 -18.07767578 5.92652344 -17.13671875 5.8515625 C-16.32847656 5.77679688 -15.52023437 5.70203125 -14.6875 5.625 C-13.48673828 5.52058594 -13.48673828 5.52058594 -12.26171875 5.4140625 C-9.72775559 5.10435574 -9.72775559 5.10435574 -7 3 C-6.34 3.33 -5.68 3.66 -5 4 C-5 5.32 -5 6.64 -5 8 C-4.46375 8.2475 -3.9275 8.495 -3.375 8.75 C0.717302 10.90384316 5.1114863 13.30912139 8 17 C8 17.99 8 18.98 8 20 C6.865625 20.12375 5.73125 20.2475 4.5625 20.375 C3.386875 20.58125 2.21125 20.7875 1 21 C0.67 21.66 0.34 22.32 0 23 C2.31 23.66 4.62 24.32 7 25 C7 24.01 7 23.02 7 22 C7.495 21.525625 7.99 21.05125 8.5 20.5625 C10.46168789 18.88006936 10.46168789 18.88006936 10 15 C11.32 15.33 12.64 15.66 14 16 C12.36587557 14.29159719 11.13093906 13.06546953 9 12 C9 11.34 9 10.68 9 10 C8.443125 9.938125 7.88625 9.87625 7.3125 9.8125 C3.95735428 8.63366502 2.25870937 6.69790286 0 4 C0 2.68 0 1.36 0 0 Z " fill="#FCFBFD" transform="translate(577,466)"/>
<path d="M0 0 C5.06978984 2.83376899 9.28822545 6.24681689 11 12 C11.70326692 17.74213812 12.12220683 23.73644406 9.375 29 C5.39526886 34.0270288 0.84604263 38.47803707 -5.734375 39.37109375 C-12.8745219 39.52832496 -17.56586161 38.79096742 -23 34 C-28.41054861 28.30468568 -29.59992359 22.76321556 -29.4296875 15.07421875 C-28.71508443 9.96155862 -26.6814985 6.57214706 -23 3 C-15.55037814 -2.21106554 -8.53069189 -3.7321777 0 0 Z " fill="#FDFCFD" transform="translate(562,383)"/>
<path d="M0 0 C4.14339785 2.3618185 7.06512843 4.92815402 8.8125 9.4375 C9.65590947 14.93085726 9.76350544 20.39418133 7.1875 25.4375 C3.95594842 29.51945989 0.73906734 31.79531089 -4.1875 33.4375 C-9.80308189 33.80573488 -13.38136946 33.67641406 -18.1875 30.4375 C-22.819496 25.84889507 -25.30522822 22.2984963 -25.5 15.625 C-25.43624461 10.75125469 -24.48441479 8.16821937 -21.1875 4.4375 C-14.92152154 -1.5830746 -8.14316441 -3.60890241 0 0 Z " fill="#FCFBFD" transform="translate(672.1875,588.5625)"/>
<path d="M0 0 C4.39756733 2.65513499 7.18002663 5.28293878 9.3125 10 C10.26436914 15.47869721 10.24519709 20.93333343 7.75 26 C4.05840544 30.543501 1.13574567 32.63240962 -4.59765625 33.37890625 C-9.28900212 33.55911904 -12.79383128 33.38996453 -17.125 31.5 C-21.66000377 27.07560608 -24.9453782 22.90128319 -25.1875 16.375 C-24.78368196 10.33843808 -22.62503481 6.64378061 -18.125 2.6875 C-12.39698547 -2.00577643 -7.060134 -1.91461261 0 0 Z " fill="#FCFCFD" transform="translate(464.6875,550)"/>
<path d="M0 0 C-2.62451617 2.62451617 -4.4877828 2.5832868 -8.125 3.125 C-9.22070312 3.29257812 -10.31640625 3.46015625 -11.4453125 3.6328125 C-12.28835938 3.75398438 -13.13140625 3.87515625 -14 4 C-13.505 5.98 -13.505 5.98 -13 8 C-8.05 8.33 -3.1 8.66 2 9 C2.94148279 15.59037951 2.91679376 19.16641248 0 25 C1.98 24.67 3.96 24.34 6 24 C6 24.66 6 25.32 6 26 C4.35 26 2.7 26 1 26 C1 26.66 1 27.32 1 28 C-0.6875 28.6875 -0.6875 28.6875 -3 29 C-5.75 27.5625 -5.75 27.5625 -8 26 C-7.01 25.67 -6.02 25.34 -5 25 C-6.23115642 21.30653074 -7.12880649 21.13909926 -10.5 19.4375 C-14.89819724 17.20360551 -14.89819724 17.20360551 -16 15 C-18.91634122 14.80497718 -21.83279545 14.61870672 -24.75 14.4375 C-25.575 14.38142578 -26.4 14.32535156 -27.25 14.26757812 C-28.04921875 14.21923828 -28.8484375 14.17089844 -29.671875 14.12109375 C-30.4050293 14.0739624 -31.13818359 14.02683105 -31.89355469 13.97827148 C-34.12403467 14.00127945 -35.89581897 14.2591032 -38 15 C-39.28436734 16.9837767 -39.28436734 16.9837767 -40 19 C-40.66 19 -41.32 19 -42 19 C-41.24849977 22.27773504 -41.24849977 22.27773504 -38 24 C-38 24.66 -38 25.32 -38 26 C-43.45200373 27.33271202 -43.45200373 27.33271202 -45.75 25.9375 C-47.37369182 23.42077769 -48.17195084 20.866324 -49 18 C-49.99 18 -50.98 18 -52 18 C-51.505 16.515 -51.505 16.515 -51 15 C-50.34 15 -49.68 15 -49 15 C-48.67 14.01 -48.34 13.02 -48 12 C-43.05 11.67 -38.1 11.34 -33 11 C-33 10.34 -33 9.68 -33 9 C-31.576875 8.6596875 -31.576875 8.6596875 -30.125 8.3125 C-25.18576596 6.91574939 -18.6779188 4.6779188 -15 1 C-13.42926271 0.57531918 -11.84238275 0.2094946 -10.25 -0.125 C-9.38890625 -0.31320312 -8.5278125 -0.50140625 -7.640625 -0.6953125 C-4.83432846 -1.01911595 -2.72251133 -0.69531764 0 0 Z " fill="#FAF8FB" transform="translate(481,377)"/>
<path d="M0 0 C2.88106584 2.12771293 5.46278664 4.47596697 8 7 C7.34 7.33 6.68 7.66 6 8 C5.01 7.67 4.02 7.34 3 7 C2.67 10.3 2.34 13.6 2 17 C2.99 17.33 3.98 17.66 5 18 C3.7625 17.7834375 3.7625 17.7834375 2.5 17.5625 C-0.0246207 17.15675739 -2.52596082 16.80322954 -5.0625 16.5 C-9 16 -9 16 -11.625 15.4375 C-14.07978862 14.89411374 -14.07978862 14.89411374 -16.9375 15.125 C-20.60132405 14.97545616 -22.84609202 13.80223313 -26 12 C-25.34 10.02 -24.68 8.04 -24 6 C-23.34 6 -22.68 6 -22 6 C-22 5.01 -22 4.02 -22 3 C-7.3307746 -2.26587579 -7.3307746 -2.26587579 0 0 Z " fill="#FAF8FC" transform="translate(668,384)"/>
<path d="M0 0 C2.3046875 0.20703125 2.3046875 0.20703125 5 1 C6.6953125 3.07421875 6.6953125 3.07421875 8.125 5.6875 C8.62773438 6.59242188 9.13046875 7.49734375 9.6484375 8.4296875 C10.09445312 9.27789063 10.54046875 10.12609375 11 11 C11.5775 12.093125 12.155 13.18625 12.75 14.3125 C14 17 14 17 15 19.6875 C15.83171449 22.00054816 15.83171449 22.00054816 17.375 23.375 C23.13364577 29.13364577 23.71762536 35.19234113 24 43 C22.87411986 42.04270084 21.7493285 41.08412105 20.625 40.125 C19.99851562 39.59132813 19.37203125 39.05765625 18.7265625 38.5078125 C15.11907714 35.35738411 13.88364928 32.39518166 12 28 C11.34 27.34 10.68 26.68 10 26 C9.41848873 23.44996539 9.04732449 20.89863351 8.66015625 18.3125 C8.16853934 15.64449072 8.16853934 15.64449072 5 14 C4.12109375 12.01171875 4.12109375 12.01171875 3.4375 9.6875 C2.42573725 6.38595839 1.33698997 3.18820685 0 0 Z " fill="#F7F4FA" transform="translate(627,517)"/>
<path d="M0 0 C0.99 0.66 1.98 1.32 3 2 C3 2.66 3 3.32 3 4 C3.66 4.33 4.32 4.66 5 5 C4.030625 5.12375 3.06125 5.2475 2.0625 5.375 C0.5465625 5.684375 0.5465625 5.684375 -1 6 C-1.33 6.66 -1.66 7.32 -2 8 C-2.66 8 -3.32 8 -4 8 C-4.33 8.66 -4.66 9.32 -5 10 C-2.36 10.33 0.28 10.66 3 11 C2.4740625 11.928125 2.4740625 11.928125 1.9375 12.875 C1.628125 13.57625 1.31875 14.2775 1 15 C1.33 15.66 1.66 16.32 2 17 C1.34 17 0.68 17 0 17 C-0.33 17.99 -0.66 18.98 -1 20 C-1.99 19.67 -2.98 19.34 -4 19 C-3.01 18.67 -2.02 18.34 -1 18 C-1.33 17.34 -1.66 16.68 -2 16 C-3.98 16.33 -5.96 16.66 -8 17 C-8.33 17.99 -8.66 18.98 -9 20 C-11.64 20 -14.28 20 -17 20 C-17.33 19.34 -17.66 18.68 -18 18 C-14.7 17.34 -11.4 16.68 -8 16 C-8.99 14.68 -9.98 13.36 -11 12 C-9.25 8.125 -9.25 8.125 -7 7 C-8.3921875 7.2475 -8.3921875 7.2475 -9.8125 7.5 C-13.86788886 8.13613943 -17.02195323 7.86011822 -21 7 C-20.67 6.34 -20.34 5.68 -20 5 C-13.43675583 2.89480847 -6.85258827 2.43399726 0 2 C0 1.34 0 0.68 0 0 Z " fill="#EBE4F2" transform="translate(425,385)"/>
<path d="M0 0 C4.62 0 9.24 0 14 0 C14 0.66 14 1.32 14 2 C16.97 2 19.94 2 23 2 C23.33 2.99 23.66 3.98 24 5 C22.27450791 6.72549209 20.07749818 6.06747325 17.77954102 6.08813477 C11.51445684 5.97705444 11.51445684 5.97705444 6.1171875 8.62109375 C4.88498471 10.73761402 4.88498471 10.73761402 4 14 C-1.625 14.25 -1.625 14.25 -5 12 C-4.67 11.01 -4.34 10.02 -4 9 C-0.9375 7.8125 -0.9375 7.8125 2 7 C2.2236068 3.7018576 2.2236068 3.7018576 0 0 Z " fill="#7241A4" transform="translate(425,383)"/>
<path d="M0 0 C1.12588014 0.95729916 2.2506715 1.91587895 3.375 2.875 C4.00148438 3.40867187 4.62796875 3.94234375 5.2734375 4.4921875 C6.55836651 5.61432007 7.79371975 6.79371975 9 8 C8.7578125 10.3828125 8.7578125 10.3828125 8.125 13.125 C7.92132812 14.03507813 7.71765625 14.94515625 7.5078125 15.8828125 C7.25644531 16.93082031 7.25644531 16.93082031 7 18 C5.02 18.66 3.04 19.32 1 20 C-1.76818166 17.6720413 -2.46055679 16.07908346 -2.8125 12.5 C-2.90144531 11.7265625 -2.99039063 10.953125 -3.08203125 10.15625 C-3 8 -3 8 -1 5 C-0.61500109 3.34450469 -0.27206865 1.6777567 0 0 Z " fill="#642F9B" transform="translate(653,653)"/>
<path d="M0 0 C4.29 0 8.58 0 13 0 C11.6875 2.9375 11.6875 2.9375 10 6 C9.01 6.33 8.02 6.66 7 7 C7.75150023 10.27773504 7.75150023 10.27773504 11 12 C11 12.66 11 13.32 11 14 C5.54799627 15.33271202 5.54799627 15.33271202 3.25 13.9375 C1.62630818 11.42077769 0.82804916 8.866324 0 6 C-0.99 6 -1.98 6 -3 6 C-2.67 5.01 -2.34 4.02 -2 3 C-1.34 3 -0.68 3 0 3 C0 2.01 0 1.02 0 0 Z " fill="#8961B3" transform="translate(432,389)"/>
<path d="M0 0 C0 0.66 0 1.32 0 2 C-1.37285156 2.22042969 -1.37285156 2.22042969 -2.7734375 2.4453125 C-3.96195313 2.66960937 -5.15046875 2.89390625 -6.375 3.125 C-8.15003906 3.43824219 -8.15003906 3.43824219 -9.9609375 3.7578125 C-13.30202659 4.71753428 -13.30202659 4.71753428 -14.4140625 8.1171875 C-14.60742188 9.06851562 -14.80078125 10.01984375 -15 11 C-13.68 11.66 -12.36 12.32 -11 13 C-11 13.66 -11 14.32 -11 15 C-15.87664009 15.34833144 -18.77050005 14.41685712 -23 12 C-22.34 10.02 -21.68 8.04 -21 6 C-20.34 6 -19.68 6 -19 6 C-19 5.01 -19 4.02 -19 3 C-15.50028694 1.74369275 -11.98606143 0.6898984 -8.375 -0.1875 C-7.64023437 -0.36667969 -6.90546875 -0.54585938 -6.1484375 -0.73046875 C-3.8142119 -1.02330796 -2.22557657 -0.709969 0 0 Z " fill="#6A369E" transform="translate(665,384)"/>
<path d="M0 0 C3.44968669 1.53319408 6.06948331 3.64129144 9 6 C10.65661761 7.01656081 12.32111559 8.02065076 14 9 C15 10 15 10 15.0625 12.5625 C15.041875 13.366875 15.02125 14.17125 15 15 C13.02 14.01 11.04 13.02 9 12 C9 11.34 9 10.68 9 10 C8.443125 9.938125 7.88625 9.87625 7.3125 9.8125 C3.95735428 8.63366502 2.25870937 6.69790286 0 4 C0 2.68 0 1.36 0 0 Z " fill="#F4F1F8" transform="translate(577,466)"/>
<path d="M0 0 C0 0.66 0 1.32 0 2 C-7.05112439 4.21211746 -13.64657821 4.20177072 -21 4 C-21 3.34 -21 2.68 -21 2 C-14.16455608 -2.06871662 -7.67789969 -0.88386363 0 0 Z " fill="#7E51AB" transform="translate(655,374)"/>
<path d="M0 0 C-0.33 1.65 -0.66 3.3 -1 5 C-0.01 5.66 0.98 6.32 2 7 C2 7.66 2 8.32 2 9 C-3.43819188 10.32933579 -3.43819188 10.32933579 -5.8125 8.9375 C-7.3926824 6.35930766 -7.66902246 3.9787979 -8 1 C-2.25 -1.125 -2.25 -1.125 0 0 Z " fill="#F5F1F8" transform="translate(441,394)"/>
<path d="M0 0 C0.66 0 1.32 0 2 0 C4.04169485 2.90548882 5 4.40142046 5 8 C4.278125 7.79375 3.55625 7.5875 2.8125 7.375 C-0.44641585 6.94047789 -2.08304504 7.58319331 -5 9 C-5 8.34 -5 7.68 -5 7 C-5.66 7 -6.32 7 -7 7 C-6.25 5.0625 -6.25 5.0625 -5 3 C-2.9375 2.375 -2.9375 2.375 -1 2 C-0.67 1.34 -0.34 0.68 0 0 Z " fill="#7647A6" transform="translate(436,409)"/>
<path d="M0 0 C0.33 0.99 0.66 1.98 1 3 C-0.78460763 5.25424122 -1.59219106 5.94902388 -4.5 6.3125 C-7 6 -7 6 -10 4 C-9.67 3.01 -9.34 2.02 -9 1 C-3.79245283 -1.26415094 -3.79245283 -1.26415094 0 0 Z " fill="#69359E" transform="translate(430,391)"/>
<path d="M0 0 C0.33 0.66 0.66 1.32 1 2 C-0.11375 2.433125 -1.2275 2.86625 -2.375 3.3125 C-6.17512334 4.69911119 -6.17512334 4.69911119 -8 8 C-8.99 8 -9.98 8 -11 8 C-11 7.34 -11 6.68 -11 6 C-11.66 5.67 -12.32 5.34 -13 5 C-8.58490204 0.69258736 -6.42286118 -0.64228612 0 0 Z " fill="#EEE8F4" transform="translate(425,379)"/>
<path d="M0 0 C4.29 0 8.58 0 13 0 C10.07735566 1.46132217 8.07536854 2.34099246 5 3 C5 4.65 5 6.3 5 8 C3.35 7.67 1.7 7.34 0 7 C0 6.01 0 5.02 0 4 C0.66 4 1.32 4 2 4 C2 3.01 2 2.02 2 1 C1.34 0.67 0.68 0.34 0 0 Z " fill="#DDD1E9" transform="translate(595,425)"/>
<path d="M0 0 C0.98484375 0.00902344 1.9696875 0.01804687 2.984375 0.02734375 C4.10585938 0.04474609 4.10585938 0.04474609 5.25 0.0625 C4.64929688 0.35640625 4.04859375 0.6503125 3.4296875 0.953125 C1.70448313 1.831186 0.02855747 2.80598675 -1.625 3.8125 C-4.75 5.0625 -4.75 5.0625 -8.125 4.25 C-8.99125 3.858125 -9.8575 3.46625 -10.75 3.0625 C-9.75 1.0625 -9.75 1.0625 -8.046875 0.44140625 C-5.32835155 -0.00705765 -2.75442923 -0.03279082 0 0 Z " fill="#F2EEF6" transform="translate(414.75,388.9375)"/>
<path d="M0 0 C2.02045442 0.60183749 4.02111039 1.27306096 6 2 C6.33 2.66 6.66 3.32 7 4 C6.67 4.66 6.34 5.32 6 6 C3.67843403 6.40729228 1.3431213 6.74438677 -1 7 C-0.67 4.69 -0.34 2.38 0 0 Z " fill="#7546A6" transform="translate(482,395)"/>
<path d="M0 0 C-2.72106694 2.72106694 -4.84776311 2.60655572 -8.625 3.125 C-10.40777344 3.37636719 -10.40777344 3.37636719 -12.2265625 3.6328125 C-13.14179688 3.75398438 -14.05703125 3.87515625 -15 4 C-15 3.01 -15 2.02 -15 1 C-13.44033408 0.63355422 -11.87707349 0.28239138 -10.3125 -0.0625 C-9.44238281 -0.25972656 -8.57226562 -0.45695312 -7.67578125 -0.66015625 C-4.83998724 -1.02032279 -2.75210018 -0.70909969 0 0 Z " fill="#DBCEE7" transform="translate(481,377)"/>
<path d="M0 0 C2.97 0.33 5.94 0.66 9 1 C9.33 1.99 9.66 2.98 10 4 C9.071875 3.979375 8.14375 3.95875 7.1875 3.9375 C3.97713989 3.84230396 3.97713989 3.84230396 1 5 C0.67 3.35 0.34 1.7 0 0 Z " fill="#F3EFF7" transform="translate(617,409)"/>
<path d="M0 0 C2.875 -0.125 2.875 -0.125 6 0 C6.66 0.66 7.32 1.32 8 2 C7.34 2 6.68 2 6 2 C6 2.99 6 3.98 6 5 C1.25 4.125 1.25 4.125 -1 3 C-0.67 2.01 -0.34 1.02 0 0 Z " fill="#7241A4" transform="translate(578,486)"/>
<path d="M0 0 C1.98 0 3.96 0 6 0 C6 0.99 6 1.98 6 3 C3.69 3 1.38 3 -1 3 C-0.67 2.01 -0.34 1.02 0 0 Z " fill="#622B99" transform="translate(442,386)"/>
<path d="M0 0 C0.66 0.33 1.32 0.66 2 1 C2 2.65 2 4.3 2 6 C0.35 5.67 -1.3 5.34 -3 5 C-3 4.01 -3 3.02 -3 2 C-2.01 1.34 -1.02 0.68 0 0 Z " fill="#A282C3" transform="translate(598,427)"/>
<path d="M0 0 C1.65 0 3.3 0 5 0 C3.68 1.65 2.36 3.3 1 5 C0.01 4.67 -0.98 4.34 -2 4 C-1.34 2.68 -0.68 1.36 0 0 Z " fill="#F6F3F9" transform="translate(594,411)"/>
<path d="M0 0 C-2.35968744 2.09749995 -3.54616994 2.96905704 -6.75 3.1875 C-7.86375 3.0946875 -7.86375 3.0946875 -9 3 C-7 0 -7 0 -5.0625 -0.75 C-3 -1 -3 -1 0 0 Z " fill="#7343A4" transform="translate(426,380)"/>
<path d="M0 0 C-0.99 0.495 -0.99 0.495 -2 1 C-2 1.66 -2 2.32 -2 3 C-3.65 3.33 -5.3 3.66 -7 4 C-7 3.01 -7 2.02 -7 1 C-4.53721199 -0.231394 -2.7204945 -0.07159196 0 0 Z " fill="#713FA3" transform="translate(454,411)"/>
<path d="M0 0 C2.97 0.495 2.97 0.495 6 1 C6 1.66 6 2.32 6 3 C3.69 3.33 1.38 3.66 -1 4 C-0.67 2.68 -0.34 1.36 0 0 Z " fill="#6E3CA1" transform="translate(418,384)"/>
</svg>
