<?xml version="1.0" encoding="UTF-8"?>
<svg version="1.1" xmlns="http://www.w3.org/2000/svg" width="1080" height="1080">
<path d="M0 0 C1.69854881 -0.00929787 1.69854881 -0.00929787 3.43141174 -0.01878357 C5.81046699 -0.02584265 8.18957205 -0.0227768 10.56860352 -0.01000977 C14.17883482 0.00385796 17.78647096 -0.03028166 21.39648438 -0.06835938 C23.72265688 -0.06931078 26.04883257 -0.06745059 28.375 -0.0625 C29.43786728 -0.07575821 30.50073456 -0.08901642 31.59580994 -0.10267639 C42.66320872 0.0326905 51.86918543 3.74654046 59.84765625 11.46484375 C65.13782723 17.29704045 67.54999745 22.80388982 68.75390625 30.56640625 C69.45515625 30.25703125 70.15640625 29.94765625 70.87890625 29.62890625 C77.03561969 27.35359911 83.17180698 27.40641689 89.6484375 27.3984375 C90.59522873 27.3951091 91.54201996 27.3917807 92.51750183 27.38835144 C94.51532508 27.38330313 96.51315671 27.38094247 98.51098633 27.38110352 C101.54587919 27.37892101 104.58040591 27.36075378 107.61523438 27.34179688 C109.56380085 27.33886161 111.51236904 27.3368777 113.4609375 27.3359375 C114.35810989 27.32875198 115.25528229 27.32156647 116.17964172 27.31416321 C122.48477217 27.33669694 129.0207386 27.69982242 134.75390625 30.56640625 C134.83640625 29.74140625 134.91890625 28.91640625 135.00390625 28.06640625 C136.77857621 19.78461309 141.40223359 13.11899751 147.75390625 7.56640625 C154.52085845 3.41947913 160.8347477 0.47841207 168.80688477 0.3894043 C170.31479332 0.37015144 170.31479332 0.37015144 171.85316467 0.35050964 C172.93544846 0.34312271 174.01773224 0.33573578 175.1328125 0.328125 C176.25525864 0.32005325 177.37770477 0.31198151 178.53416443 0.30366516 C180.91216493 0.28983604 183.29018519 0.27910865 185.66821289 0.27124023 C188.08786884 0.25974351 190.50749989 0.23932866 192.92700195 0.2097168 C196.43327988 0.16680822 199.93880378 0.15083611 203.4453125 0.140625 C204.51342667 0.12311691 205.58154083 0.10560883 206.68202209 0.08757019 C217.38352063 0.11804504 226.90699692 3.08446945 234.75390625 10.56640625 C243.44903532 19.99633496 245.90364037 29.54066175 245.921875 42.140625 C245.9252034 42.94627396 245.9285318 43.75192291 245.93196106 44.58198547 C245.93700051 46.27543571 245.93937031 47.96889579 245.93920898 49.66235352 C245.94140818 52.25618597 245.95962963 54.84960131 245.97851562 57.44335938 C245.98144761 59.09244647 245.98343371 60.74153557 245.984375 62.390625 C245.99156052 63.16564865 245.99874603 63.9406723 246.00614929 64.73918152 C245.98987566 68.55378939 245.92181021 70.31455031 243.75390625 73.56640625 C240.05539312 74.79924396 236.64459522 74.69801972 232.79418945 74.67993164 C231.5792128 74.68015068 231.5792128 74.68015068 230.33969116 74.68037415 C227.6613294 74.67967725 224.98303712 74.67189528 222.3046875 74.6640625 C220.44809507 74.66219753 218.59150215 74.660774 216.73490906 74.65977478 C211.84734744 74.65595585 206.95981551 74.64613086 202.07226562 74.6350708 C197.08529054 74.62484329 192.09831067 74.62027428 187.11132812 74.61523438 C177.32550568 74.60450806 167.53971308 74.58691628 157.75390625 74.56640625 C157.75390625 79.84640625 157.75390625 85.12640625 157.75390625 90.56640625 C159.51541016 90.7365625 159.51541016 90.7365625 161.3125 90.91015625 C167.50612347 91.59739558 173.62944918 92.68380769 179.77194214 93.72232056 C191.07803269 95.62514878 202.26348412 97.36155269 213.75390625 97.56640625 C213.59341797 96.64408203 213.59341797 96.64408203 213.4296875 95.703125 C213.30980469 94.89488281 213.18992187 94.08664062 213.06640625 93.25390625 C212.87498047 92.05314453 212.87498047 92.05314453 212.6796875 90.828125 C212.75390625 88.56640625 212.75390625 88.56640625 213.92666626 87.03338623 C216.22620051 85.18722989 218.22098536 84.61516358 221.06396484 83.83300781 C222.14874115 83.52969543 223.23351746 83.22638306 224.35116577 82.91387939 C225.5230545 82.59811951 226.69494324 82.28235962 227.90234375 81.95703125 C229.10702301 81.62596375 230.31170227 81.29489624 231.55288696 80.95379639 C234.10207105 80.25628216 236.65199039 79.563034 239.20410156 78.87646484 C242.46862617 77.99754264 245.72758808 77.09970581 248.98535728 76.19610977 C252.10064174 75.334992 255.22043064 74.49054881 258.33984375 73.64453125 C259.50768402 73.32067444 260.67552429 72.99681763 261.87875366 72.66314697 C263.5153746 72.22709137 263.5153746 72.22709137 265.18505859 71.78222656 C266.14197601 71.52258118 267.09889343 71.26293579 268.08480835 70.99542236 C271.09219505 70.51203157 272.89854193 70.48197941 275.75390625 71.56640625 C278.10503779 74.94055107 279.38993483 78.15409187 280.46118164 82.10488892 C280.7638797 83.20653381 281.06657776 84.30817871 281.37844849 85.44320679 C281.69957611 86.6422464 282.02070374 87.84128601 282.3515625 89.07666016 C282.69831024 90.34719238 283.04505798 91.61772461 283.40231323 92.92675781 C284.35128482 96.40460111 285.29084808 99.88492407 286.22874069 103.36576891 C287.21480468 107.01896643 288.20955435 110.66979732 289.20336914 114.32089233 C291.08639403 121.24396172 292.96165154 128.16911009 294.83411121 135.09504354 C296.9542971 142.93582289 299.08298699 150.77428465 301.21247292 158.61254239 C304.85811387 172.03203382 308.49755459 185.45319291 312.12936401 198.87643433 C312.43206207 199.99499817 312.73476013 201.11356201 313.04663086 202.26602173 C313.33045624 203.32555683 313.61428162 204.38509193 313.90670776 205.47673416 C314.47349119 207.54375263 315.06433478 209.60431745 315.67849731 211.65775681 C316.10556473 213.10640562 316.10556473 213.10640562 316.54125977 214.58432007 C316.7988356 215.42735876 317.05641144 216.27039745 317.3217926 217.13898277 C317.82285252 219.95371589 317.60280405 221.84437613 316.75390625 224.56640625 C313.60542535 226.96833129 310.40137113 228.14628972 306.61572266 229.20800781 C305.6176358 229.49129944 304.61954895 229.77459106 303.59121704 230.06646729 C302.5234201 230.36035339 301.45562317 230.6542395 300.35546875 230.95703125 C299.24714691 231.26590271 298.13882507 231.57477417 296.99691772 231.89300537 C294.65625986 232.54230626 292.31448209 233.18758165 289.97167969 233.82910156 C286.39461433 234.81208962 282.82434096 235.81745064 279.25390625 236.82421875 C276.97564061 237.45320167 274.69700616 238.08085051 272.41796875 238.70703125 C270.82234604 239.1600058 270.82234604 239.1600058 269.19448853 239.62213135 C263.64844406 241.11678791 259.35827035 242.09870352 253.75390625 240.56640625 C251.93719809 238.35775522 251.6159963 236.35552113 250.75390625 233.56640625 C243.85554839 235.42553816 238.51004942 238.36156408 232.75390625 242.56640625 C232.98207031 243.23285156 233.21023438 243.89929688 233.4453125 244.5859375 C235.81428324 252.18151634 236.99658484 259.32157623 233.7734375 266.859375 C230.05219443 273.27821823 224.9470946 277.65547777 217.921875 280.07421875 C214.20449449 280.9181646 210.5396418 280.80301472 206.75390625 280.56640625 C206.54636719 281.26765625 206.33882812 281.96890625 206.125 282.69140625 C203.35044032 291.23565699 199.72435604 297.8458891 191.50390625 302.06640625 C186.33253078 304.10280281 181.22858279 303.9347957 175.75390625 303.56640625 C175.69203125 305.26796875 175.69203125 305.26796875 175.62890625 307.00390625 C174.82381564 313.22405833 171.5745009 318.28719253 166.71875 322.2109375 C161.4160404 325.65026503 157.33616363 326.70429027 151.00390625 326.62890625 C150.0190625 326.61988281 149.03421875 326.61085938 148.01953125 326.6015625 C147.271875 326.58996094 146.52421875 326.57835937 145.75390625 326.56640625 C145.66109375 328.29890625 145.66109375 328.29890625 145.56640625 330.06640625 C144.79522694 336.192394 141.73932459 340.63323576 137.37890625 344.87890625 C129.89463354 349.69022442 123.46453802 350.7285827 114.65625 349.203125 C107.97273882 347.18572019 102.90072806 342.07933641 97.75390625 337.56640625 C97.32980469 337.96472656 96.90570312 338.36304688 96.46875 338.7734375 C90.31948139 344.32805156 84.73409215 347.21746926 76.30859375 346.91015625 C69.09912926 345.9400754 64.29125144 342.8055843 59.84765625 337.15234375 C58.75390625 335.56640625 58.75390625 335.56640625 57.75390625 333.56640625 C56.78453125 333.89640625 55.81515625 334.22640625 54.81640625 334.56640625 C47.53368261 336.60733082 40.44165454 336.25417992 33.75390625 332.56640625 C30.66900942 329.892829 27.94356477 327.0237618 25.75390625 323.56640625 C25.75390625 322.57640625 25.75390625 321.58640625 25.75390625 320.56640625 C24.99207031 320.74558594 24.23023438 320.92476562 23.4453125 321.109375 C16.42257631 322.55600605 11.14175753 323.14027844 4.75390625 319.56640625 C-0.7107149 315.83704199 -4.47368504 312.10216338 -6.24609375 305.56640625 C-6.75680586 300.23323228 -6.82566466 295.4031017 -4.24609375 290.56640625 C-4.97699219 290.45296875 -5.70789063 290.33953125 -6.4609375 290.22265625 C-11.78775498 288.96752955 -16.47084517 285.99793024 -19.71484375 281.5546875 C-22.61397938 275.7874784 -23.18447549 269.9192506 -22.24609375 263.56640625 C-20.57585035 258.54715441 -17.71868643 254.5350836 -14.24609375 250.56640625 C-15.57147499 246.59026253 -17.25840289 244.45450741 -20.24609375 241.56640625 C-20.24609375 240.90640625 -20.24609375 240.24640625 -20.24609375 239.56640625 C-20.81585938 239.29828125 -21.385625 239.03015625 -21.97265625 238.75390625 C-24.33848242 237.51814825 -26.4372693 236.09891464 -28.62109375 234.56640625 C-34.5586558 230.58862776 -39.04099665 229.27820237 -46.24609375 229.56640625 C-46.43945312 230.26507812 -46.6328125 230.96375 -46.83203125 231.68359375 C-47.09242188 232.59367188 -47.3528125 233.50375 -47.62109375 234.44140625 C-47.87632812 235.34632813 -48.1315625 236.25125 -48.39453125 237.18359375 C-49.24609375 239.56640625 -49.24609375 239.56640625 -51.24609375 241.56640625 C-58.38940458 241.83972086 -65.52050855 239.64206592 -72.328125 237.73046875 C-73.34533127 237.45045013 -74.36253754 237.17043152 -75.41056824 236.88192749 C-77.54362229 236.29247935 -79.67555706 235.69896692 -81.80639648 235.1015625 C-85.06373569 234.18996723 -88.32541002 233.29534152 -91.58789062 232.40234375 C-93.668248 231.82522442 -95.74833605 231.2471332 -97.828125 230.66796875 C-98.79901566 230.40223053 -99.76990631 230.13649231 -100.7702179 229.86270142 C-110.11036915 227.22189917 -110.11036915 227.22189917 -113.24609375 224.56640625 C-114.42332003 220.71398636 -114.13130244 218.07167459 -113.07125854 214.22688293 C-112.78536362 213.16901077 -112.49946869 212.11113861 -112.20491028 211.02120972 C-111.88189438 209.87057037 -111.55887848 208.71993103 -111.22607422 207.53442383 C-110.89287674 206.31414993 -110.55967926 205.09387604 -110.21638489 203.83662415 C-109.30232487 200.4900712 -108.37470588 197.14741184 -107.44462729 193.80528092 C-106.46880492 190.28980645 -105.50549138 186.77090748 -104.540802 183.25236511 C-102.70685597 176.57081531 -100.86165661 169.89242745 -99.01243126 163.21509236 C-96.92821233 155.68709372 -94.85658733 148.15564982 -92.78603148 140.62388384 C-90.25343028 131.41236977 -87.71801749 122.20163282 -85.17453003 112.99311829 C-84.99475471 112.34198675 -84.81497939 111.69085521 -84.62975633 111.01999241 C-83.76358054 107.88426389 -82.89455096 104.74936507 -82.02174187 101.61547565 C-80.56095467 96.36616348 -79.11793207 91.11630096 -77.76812744 85.83724976 C-77.43703067 84.56761273 -77.43703067 84.56761273 -77.09924507 83.27232647 C-76.70643756 81.75878533 -76.32503327 80.24220908 -75.95847893 78.72209644 C-75.18963119 75.79149641 -74.46889355 73.80622249 -72.38987732 71.56842041 C-69.71659713 70.31891713 -68.55019042 70.48769665 -65.70678711 71.19555664 C-64.82546112 71.406409 -63.94413513 71.61726135 -63.03610229 71.83450317 C-62.11539948 72.07603119 -61.19469666 72.3175592 -60.24609375 72.56640625 C-59.34819122 72.78900116 -58.4502887 73.01159607 -57.525177 73.24093628 C-54.63461807 73.96881697 -51.75447568 74.72947821 -48.875 75.5 C-47.83085434 75.77860367 -46.78670868 76.05720734 -45.71092224 76.34425354 C-43.52301596 76.92989441 -41.33560751 77.51739805 -39.14868164 78.10668945 C-35.79627811 79.00721449 -32.44024883 79.89328615 -29.08398438 80.77929688 C-26.95158449 81.35197752 -24.81941444 81.92551481 -22.6875 82.5 C-21.68441299 82.76260117 -20.68132599 83.02520233 -19.64784241 83.29576111 C-18.71934982 83.54934891 -17.79085724 83.80293671 -16.83422852 84.06420898 C-16.01833755 84.28245834 -15.20244659 84.5007077 -14.36183167 84.72557068 C-12.00807202 85.66100074 -10.79909953 86.57568302 -9.24609375 88.56640625 C-9.171875 91.046875 -9.171875 91.046875 -9.55859375 93.75390625 C-9.67847656 94.65496094 -9.79835938 95.55601562 -9.921875 96.484375 C-10.02886719 97.17144531 -10.13585937 97.85851562 -10.24609375 98.56640625 C8.92467417 99.46659883 26.54169106 93.89716691 44.75390625 88.56640625 C45.08390625 83.94640625 45.41390625 79.32640625 45.75390625 74.56640625 C44.72073776 74.56862686 43.68756927 74.57084747 42.62309265 74.57313538 C32.89665718 74.5933882 23.17022598 74.60838874 13.44377422 74.61821842 C8.44305735 74.62344179 3.44235748 74.63052958 -1.55834961 74.6418457 C-6.38235326 74.65269392 -11.20634055 74.65868721 -16.03035545 74.66128349 C-17.87278692 74.66313424 -19.71521747 74.66674817 -21.55764198 74.67213631 C-24.13390682 74.67937236 -26.71010362 74.6803961 -29.28637695 74.67993164 C-30.43436516 74.68532455 -30.43436516 74.68532455 -31.60554504 74.69082642 C-34.75910853 74.68465546 -37.23084525 74.57148908 -40.24609375 73.56640625 C-42.79370119 69.7449951 -42.56969788 66.5969586 -42.58203125 62.1640625 C-42.59201645 60.91465126 -42.59201645 60.91465126 -42.60220337 59.63999939 C-42.61233424 57.87224533 -42.61702025 56.10445299 -42.61669922 54.33666992 C-42.62102748 51.66973847 -42.6572142 49.00452421 -42.6953125 46.33789062 C-42.7879953 32.5122743 -41.28856785 20.91756295 -31.24609375 10.56640625 C-22.3779733 2.16799557 -11.89695043 -0.05541158 0 0 Z M-24.78125 21.08203125 C-29.67589966 26.50467519 -30.50018173 31.82176028 -30.44140625 38.93359375 C-30.43857635 39.61318146 -30.43574646 40.29276917 -30.43283081 40.99295044 C-30.42172339 43.14262233 -30.39663766 45.29186239 -30.37109375 47.44140625 C-30.3610517 48.90754602 -30.351928 50.37369239 -30.34375 51.83984375 C-30.32181534 55.41550256 -30.28735189 58.99091219 -30.24609375 62.56640625 C-26.28609375 62.56640625 -22.32609375 62.56640625 -18.24609375 62.56640625 C-18.23151123 61.66809082 -18.21692871 60.76977539 -18.2019043 59.84423828 C-18.14089678 56.51534035 -18.06675747 53.18727742 -17.98364258 49.85888672 C-17.95036197 48.41759283 -17.92233971 46.97616762 -17.8996582 45.53466797 C-17.86616755 43.46394828 -17.81386075 41.39443532 -17.7578125 39.32421875 C-17.73162842 38.07785645 -17.70544434 36.83149414 -17.6784668 35.54736328 C-17.53578369 34.56364746 -17.39310059 33.57993164 -17.24609375 32.56640625 C-14.24609375 30.56640625 -14.24609375 30.56640625 -11.62109375 30.87890625 C-9.24609375 31.56640625 -9.24609375 31.56640625 -8.24609375 32.56640625 C-8.0873542 34.78328619 -7.99475538 37.00495923 -7.9296875 39.2265625 C-7.87252563 41.05006226 -7.87252563 41.05006226 -7.81420898 42.91040039 C-7.77110596 44.46750732 -7.72800293 46.02461426 -7.68359375 47.62890625 C-7.53921875 52.55828125 -7.39484375 57.48765625 -7.24609375 62.56640625 C6.61390625 62.56640625 20.47390625 62.56640625 34.75390625 62.56640625 C34.96393566 52.78374509 34.96393566 52.78374509 35.1418457 43.00048828 C35.19151489 41.18073486 35.19151489 41.18073486 35.2421875 39.32421875 C35.26837158 38.07785645 35.29455566 36.83149414 35.3215332 35.54736328 C35.46421631 34.56364746 35.60689941 33.57993164 35.75390625 32.56640625 C38.75390625 30.56640625 38.75390625 30.56640625 41.31640625 30.62890625 C43.75390625 31.56640625 43.75390625 31.56640625 44.8671875 33.54296875 C46.07247573 37.65262994 46.21740673 41.61599196 46.37890625 45.87890625 C46.41757812 46.71486328 46.45625 47.55082031 46.49609375 48.41210938 C46.58985784 50.46319884 46.6729487 52.5147714 46.75390625 54.56640625 C49.0602963 51.10682118 51.12818166 47.53440351 53.21875 43.94140625 C54.75390625 41.56640625 54.75390625 41.56640625 56.4140625 39.9453125 C58.06267924 38.51174615 58.06267924 38.51174615 58.25390625 35.50390625 C57.19322355 27.15103 53.18805257 21.09714706 46.6640625 15.90234375 C39.99176247 11.23582717 31.97274682 11.40989553 24.109375 11.3984375 C23.29954666 11.3951091 22.48971832 11.3917807 21.65534973 11.38835144 C19.95017052 11.38331427 18.24498156 11.38094212 16.53979492 11.38110352 C13.95930372 11.37892138 11.37924367 11.36074338 8.79882812 11.34179688 C-4.54278984 11.29419693 -14.84642868 11.27360714 -24.78125 21.08203125 Z M151.21875 21.08203125 C147.33850974 25.3808397 146.07201217 29.37942806 145.25390625 35.00390625 C145.85944879 39.31839684 147.24856832 40.62077888 150.15625 43.6796875 C154.16536619 48.41416945 156.12740391 54.45800839 156.75390625 60.56640625 C157.08390625 60.56640625 157.41390625 60.56640625 157.75390625 60.56640625 C157.76848877 59.72867676 157.78307129 58.89094727 157.7980957 58.02783203 C157.85911332 54.92261723 157.9332569 51.81807508 158.01635742 48.71337891 C158.06600584 46.70758289 158.10044789 44.70142938 158.13476562 42.6953125 C158.17021484 41.43847656 158.20566406 40.18164062 158.2421875 38.88671875 C158.26837158 37.72414551 158.29455566 36.56157227 158.3215332 35.36376953 C158.46421631 34.44063965 158.60689941 33.51750977 158.75390625 32.56640625 C161.75390625 30.56640625 161.75390625 30.56640625 164.37890625 30.87890625 C166.75390625 31.56640625 166.75390625 31.56640625 167.75390625 32.56640625 C167.9126458 34.78328619 168.00524462 37.00495923 168.0703125 39.2265625 C168.12747437 41.05006226 168.12747437 41.05006226 168.18579102 42.91040039 C168.22889404 44.46750732 168.27199707 46.02461426 168.31640625 47.62890625 C168.46078125 52.55828125 168.60515625 57.48765625 168.75390625 62.56640625 C182.61390625 62.56640625 196.47390625 62.56640625 210.75390625 62.56640625 C210.96393566 52.78374509 210.96393566 52.78374509 211.1418457 43.00048828 C211.19151489 41.18073486 211.19151489 41.18073486 211.2421875 39.32421875 C211.26837158 38.07785645 211.29455566 36.83149414 211.3215332 35.54736328 C211.46421631 34.56364746 211.60689941 33.57993164 211.75390625 32.56640625 C214.75390625 30.56640625 214.75390625 30.56640625 217.37890625 30.87890625 C219.75390625 31.56640625 219.75390625 31.56640625 220.75390625 32.56640625 C220.9126458 34.78328619 221.00524462 37.00495923 221.0703125 39.2265625 C221.0910936 39.8910289 221.11187469 40.5554953 221.13328552 41.24009705 C221.19884283 43.36959168 221.2576941 45.49921293 221.31640625 47.62890625 C221.35958564 49.06967472 221.40319974 50.51043024 221.44726562 51.95117188 C221.55453018 55.48944665 221.65577996 59.02786494 221.75390625 62.56640625 C225.71390625 62.56640625 229.67390625 62.56640625 233.75390625 62.56640625 C233.87886485 58.33473141 233.96887102 54.10407452 234.02856445 49.87109375 C234.0534848 48.43568177 234.087435 47.00039368 234.13110352 45.56542969 C234.43671033 35.25389613 233.60797327 27.30303091 226.69140625 19.12890625 C218.32268057 12.37993392 210.6684127 11.41382349 200.109375 11.3984375 C199.29954666 11.3951091 198.48971832 11.3917807 197.65534973 11.38835144 C195.95017052 11.38331427 194.24498156 11.38094212 192.53979492 11.38110352 C189.95930372 11.37892138 187.37924367 11.36074338 184.79882812 11.34179688 C171.45721016 11.29419693 161.15357132 11.27360714 151.21875 21.08203125 Z M62.75390625 48.56640625 C57.79963103 55.98842072 57.095543 62.43308461 57.44140625 71.19140625 C57.46396484 72.29097656 57.48652344 73.39054687 57.50976562 74.5234375 C57.56806108 77.20502836 57.65771609 79.88590717 57.75390625 82.56640625 C61.71390625 81.24640625 65.67390625 79.92640625 69.75390625 78.56640625 C70.08390625 72.29640625 70.41390625 66.02640625 70.75390625 59.56640625 C77.75390625 58.56640625 77.75390625 58.56640625 79.75390625 58.56640625 C80.08390625 65.16640625 80.41390625 71.76640625 80.75390625 78.56640625 C85.2887669 79.11818612 89.82366091 79.66967668 94.35864258 80.22045898 C95.89772514 80.40746839 97.43678809 80.59463938 98.97583008 80.78198242 C101.20258381 81.05300892 103.42941016 81.32343204 105.65625 81.59375 C106.66932472 81.71725075 106.66932472 81.71725075 107.7028656 81.84324646 C112.71698318 82.45107045 117.73326622 83.00855736 122.75390625 83.56640625 C123.08390625 75.31640625 123.41390625 67.06640625 123.75390625 58.56640625 C130.75390625 58.56640625 130.75390625 58.56640625 132.75390625 59.56640625 C133.08390625 68.14640625 133.41390625 76.72640625 133.75390625 85.56640625 C137.71390625 86.22640625 141.67390625 86.88640625 145.75390625 87.56640625 C145.83512944 83.06604003 145.89452348 78.56715257 145.94140625 74.06640625 C145.96654297 72.79796875 145.99167969 71.52953125 146.01757812 70.22265625 C146.09704731 60.05060068 145.13927277 53.12352548 137.75390625 45.56640625 C130.41072041 39.94183837 123.93623226 39.25057864 114.984375 39.23046875 C113.94879959 39.22381195 112.91322418 39.21715515 111.8462677 39.21029663 C109.66014373 39.20019497 107.47398908 39.19547884 105.2878418 39.19580078 C101.96285537 39.19143442 98.63920442 39.15510587 95.31445312 39.1171875 C93.18359826 39.11131729 91.05273713 39.10734927 88.921875 39.10546875 C87.93720749 39.09109772 86.95253998 39.07672668 85.93803406 39.06192017 C76.78807766 39.12175549 69.18411461 41.8439157 62.75390625 48.56640625 Z M-65.24609375 84.56640625 C-77.12609375 128.12640625 -89.00609375 171.68640625 -101.24609375 216.56640625 C-97.6645992 218.95406928 -94.0703786 219.85842581 -89.96484375 220.94921875 C-89.15494995 221.1683493 -88.34505615 221.38747986 -87.51062012 221.61325073 C-85.79995125 222.07474567 -84.08854455 222.53351302 -82.37646484 222.98974609 C-79.75423149 223.68923548 -77.13482579 224.39862474 -74.515625 225.109375 C-72.85302357 225.55658107 -71.19026813 226.00321507 -69.52734375 226.44921875 C-68.74290894 226.66168243 -67.95847412 226.87414612 -67.15026855 227.0930481 C-64.1012707 227.90134427 -61.41510222 228.56640625 -58.24609375 228.56640625 C-50.22159987 200.58993914 -42.579579 172.51175583 -34.97338867 144.41943359 C-34.67521067 143.31842379 -34.67521067 143.31842379 -34.37100887 142.19517136 C-33.3982936 138.60266799 -32.42696082 135.00980175 -31.45854187 131.4161377 C-29.77011393 125.15565299 -28.06710858 118.90043224 -26.30322266 112.66064453 C-26.01401443 111.62992325 -25.72480621 110.59920197 -25.42683411 109.5372467 C-24.89959914 107.66397958 -24.36565753 105.79258088 -23.8235321 103.92356873 C-23.59728653 103.11678177 -23.37104095 102.30999481 -23.13793945 101.47875977 C-22.93981155 100.7887941 -22.74168365 100.09882843 -22.53755188 99.38795471 C-22.06559735 97.33765542 -22.06559735 97.33765542 -23.24609375 94.56640625 C-25.93362 93.58048269 -28.49980552 92.797899 -31.26171875 92.0859375 C-32.0696991 91.86822189 -32.87767944 91.65050629 -33.71014404 91.42619324 C-35.42348797 90.96731567 -37.13850035 90.51463033 -38.85498047 90.06762695 C-41.47509929 89.38438096 -44.0892263 88.68123513 -46.703125 87.97460938 C-48.36817237 87.53135878 -50.03352792 87.08926389 -51.69921875 86.6484375 C-52.4796051 86.43911087 -53.25999146 86.22978424 -54.06402588 86.01411438 C-54.80118835 85.82358994 -55.53835083 85.63306549 -56.29785156 85.43676758 C-56.94103333 85.26816727 -57.58421509 85.09956696 -58.24688721 84.92585754 C-60.72773159 84.41894004 -60.72773159 84.41894004 -65.24609375 84.56640625 Z M259.80566406 85.43676758 C259.06850159 85.62729202 258.33133911 85.81781647 257.57183838 86.01411438 C256.79145203 86.22344101 256.01106567 86.43276764 255.20703125 86.6484375 C254.395224 86.86328293 253.58341675 87.07812836 252.74700928 87.29948425 C251.03829692 87.75435885 249.33048447 88.21262579 247.62353516 88.67407227 C245.0024964 89.37928558 242.37663676 90.06402177 239.75 90.74804688 C238.08951067 91.19276863 236.42934221 91.63869055 234.76953125 92.0859375 C233.98104797 92.28919144 233.1925647 92.49244537 232.38018799 92.70185852 C230.47566887 93.22751649 228.60876149 93.88594947 226.75390625 94.56640625 C225.58130639 98.08420583 225.98795795 99.24717674 226.95565796 102.76635742 C227.24733353 103.84315765 227.53900909 104.91995789 227.83952332 106.02938843 C228.16882339 107.210784 228.49812347 108.39217957 228.83740234 109.609375 C229.17702499 110.85345123 229.51664764 112.09752747 229.86656189 113.37930298 C230.79913072 116.79456498 231.74216058 120.20686012 232.68709898 123.61871719 C233.6735401 127.1871322 234.65053515 130.75813135 235.62857056 134.32885742 C237.27258555 140.32590735 238.92268396 146.32125451 240.57714844 152.31542969 C242.91081491 160.77038724 245.23401318 169.22819363 247.55487323 177.68667412 C250.83360666 189.63414533 254.11756491 201.58018163 257.41162109 213.5234375 C257.73687271 214.70483307 258.06212433 215.88622864 258.39723206 217.10342407 C258.69454727 218.1802243 258.99186249 219.25702454 259.29818726 220.36645508 C259.55666632 221.30370926 259.81514538 222.24096344 260.08145714 223.20661926 C260.59436002 225.00651983 261.16206916 226.79089498 261.75390625 228.56640625 C270.95204946 226.90232865 279.87930676 224.43312683 288.87890625 221.94140625 C290.42308985 221.51660984 291.96736007 221.0921282 293.51171875 220.66796875 C297.26012276 219.6377393 301.00733021 218.60326272 304.75390625 217.56640625 C297.98672776 190.65147317 290.59567035 163.90897484 283.22485352 137.15447998 C281.58690923 131.20699597 279.95179311 125.25873451 278.31640625 119.31054688 C275.13160193 107.72842389 271.9437737 96.14713573 268.75390625 84.56640625 C265.60311759 84.49033993 262.85356208 84.63780749 259.80566406 85.43676758 Z M57.81640625 97.81640625 C56.76376019 98.81588344 55.7103757 99.81458348 54.65625 100.8125 C54.15464355 101.29187012 53.65303711 101.77124023 53.13623047 102.26513672 C51.43514804 103.86647359 49.66678541 105.3755498 47.87890625 106.87890625 C33.80123114 119.15629167 17.53127487 134.52905849 15.48046875 154.1875 C15.18623143 160.38483544 15.18623143 160.38483544 18.12890625 165.69140625 C22.63653456 168.91114076 26.3119979 169.12936229 31.75390625 168.56640625 C44.80319742 165.38018741 56.68002919 157.50885501 67.484375 149.80859375 C78.87428877 141.99758957 90.46815062 134.53533705 104.75390625 136.56640625 C111.99763972 139.26297856 117.44079253 144.79371405 122.984375 150.00390625 C125.58417502 152.40936296 128.24687427 154.6569427 131.00390625 156.87890625 C135.43659211 160.46036509 139.76802844 164.13872361 144.06640625 167.87890625 C144.69998047 168.43006104 145.33355469 168.98121582 145.98632812 169.54907227 C147.2723908 170.66818784 148.55836073 171.78741001 149.84423828 172.90673828 C156.98781866 179.11513248 164.15036497 185.29464597 171.50390625 191.25390625 C175.8854242 194.80908529 180.07101306 198.53410162 184.2421875 202.33203125 C187.63712787 205.35210262 191.16686971 208.18997514 194.69921875 211.046875 C198.29429527 214.01212354 201.80635008 217.06397864 205.31640625 220.12890625 C211.01257923 225.09970495 216.78798008 229.92000257 222.75390625 234.56640625 C223.43195313 234.11910156 224.11 233.67179688 224.80859375 233.2109375 C230.95302741 229.21960871 237.14154405 225.71346633 243.75390625 222.56640625 C245.08806165 221.90138626 246.4215171 221.23495795 247.75390625 220.56640625 C244.83202017 207.64385369 241.45788672 194.87437114 237.9296875 182.10546875 C237.37704329 180.09677914 236.82465452 178.08801923 236.27250671 176.07919312 C235.12553935 171.90871685 233.97657695 167.73879785 232.82592773 163.56933594 C231.3503916 158.22257021 229.87834948 152.87485065 228.40757465 147.52677345 C226.99941416 142.4068592 225.58964951 137.28738713 224.1796875 132.16796875 C223.91159082 131.19408833 223.64349415 130.2202079 223.36727333 129.21681595 C222.61202524 126.47454013 221.85564607 123.73257906 221.09887695 120.99072266 C220.87498795 120.17729904 220.65109894 119.36387543 220.42042542 118.52580261 C219.58860167 115.51575993 218.74164415 112.52961995 217.75390625 109.56640625 C217.12339355 109.53200439 216.49288086 109.49760254 215.84326172 109.4621582 C190.73414247 108.00965758 166.44317895 103.55290521 141.85198975 98.54641724 C117.45765729 93.55757998 117.45765729 93.55757998 92.75390625 90.56640625 C91.76874023 90.48422852 90.78357422 90.40205078 89.76855469 90.31738281 C86.74398249 90.07897874 83.71970503 89.87604944 80.69140625 89.69140625 C79.34187866 89.59859375 79.34187866 89.59859375 77.96508789 89.50390625 C69.36314402 89.10996168 63.95507497 91.80780275 57.81640625 97.81640625 Z M22.6138916 106.90393066 C14.22568757 109.36193 6.36061871 109.83105318 -2.359375 109.6953125 C-3.50748657 109.68600708 -4.65559814 109.67670166 -5.83850098 109.66711426 C-8.64127135 109.64304675 -11.44355883 109.60928536 -14.24609375 109.56640625 C-19.08215298 127.01511818 -23.91574667 144.46451057 -28.74475098 161.91517639 C-29.14933162 163.37720773 -29.55391331 164.83923878 -29.95849609 166.30126953 C-30.15468159 167.01022716 -30.35086708 167.71918478 -30.55299759 168.44962597 C-31.76050691 172.81285814 -32.96900348 177.17581552 -34.17822266 181.53857422 C-35.51099446 186.34727867 -36.84154112 191.15659132 -38.16976929 195.96655273 C-38.63617323 197.65397666 -39.10347442 199.34115286 -39.57168579 201.02807617 C-40.20770732 203.32015538 -40.84062011 205.61306922 -41.47265625 207.90625 C-41.99206787 209.78364868 -41.99206787 209.78364868 -42.52197266 211.69897461 C-43.32770921 214.39668507 -43.32770921 214.39668507 -43.24609375 216.56640625 C-41.70501953 216.98599609 -41.70501953 216.98599609 -40.1328125 217.4140625 C-26.36847467 221.32650557 -14.43136548 227.28849866 -6.24609375 239.56640625 C-4.24625841 238.77522721 -4.24625841 238.77522721 -2.24609375 237.56640625 C-1.91609375 236.57640625 -1.58609375 235.58640625 -1.24609375 234.56640625 C0.50390625 233.50390625 0.50390625 233.50390625 2.75390625 232.56640625 C3.49511719 232.22480469 4.23632812 231.88320313 5 231.53125 C11.22583954 229.34999842 19.10427598 229.41063127 25.19140625 232.06640625 C29.48116228 234.58014864 32.11207307 238.44354537 34.75390625 242.56640625 C35.29917969 242.34984375 35.84445312 242.13328125 36.40625 241.91015625 C42.94672845 239.49521036 48.66702714 238.10163984 55.40234375 240.515625 C61.42936218 243.31703972 65.20018187 246.05008265 67.94140625 252.25390625 C69.02230839 256.66066111 69.41465393 261.04899375 69.75390625 265.56640625 C70.40617187 265.77394531 71.0584375 265.98148438 71.73046875 266.1953125 C78.08175923 268.43418923 82.06107592 270.87745141 85.75390625 276.56640625 C86.13289062 277.13875 86.511875 277.71109375 86.90234375 278.30078125 C88.14435694 281.60522002 87.96431848 284.84078543 87.87890625 288.31640625 C87.86988281 289.01378906 87.86085938 289.71117187 87.8515625 290.4296875 C87.82810513 292.14207583 87.79223729 293.85428629 87.75390625 295.56640625 C88.40617188 295.77394531 89.0584375 295.98148438 89.73046875 296.1953125 C96.07188439 298.43070828 100.1492332 300.80649162 103.75390625 306.56640625 C106.42985362 312.2832029 106.56741165 318.08069531 104.62890625 324.00390625 C104.3902869 327.62560514 104.3902869 327.62560514 106.73828125 329.93359375 C113.39845725 336.33447481 113.39845725 336.33447481 122.03515625 338.53515625 C125.98400891 337.7008916 128.96035466 336.90796074 131.75390625 333.87890625 C133.99712134 330.16358126 134.75390625 327.90085445 134.75390625 323.56640625 C132.76435945 318.51654961 129.75559165 315.28401453 125.75390625 311.75390625 C125.1815625 311.23691162 124.60921875 310.71991699 124.01953125 310.18725586 C119.53435884 306.16908218 114.91406013 302.33793043 110.19140625 298.6015625 C107.51986751 296.37099891 105.04942851 294.18750527 102.75390625 291.56640625 C102.94140625 287.75390625 102.94140625 287.75390625 103.75390625 284.56640625 C106.58205089 284.0130736 108.00396072 283.85674289 110.75390625 284.56640625 C113.42064993 286.51900501 115.70778738 288.70130026 118.08203125 291 C120.70393976 293.51841213 123.41726384 295.79468838 126.25390625 298.06640625 C129.95356022 301.04595832 133.47312872 304.13370324 136.94140625 307.37890625 C143.57926595 313.50810996 143.57926595 313.50810996 152.07421875 315.5625 C156.25006995 314.90786986 158.50908099 313.76626361 161.81640625 311.06640625 C164.22209118 307.60559635 164.59342245 304.22695334 164.3515625 300.078125 C162.5528631 292.51888502 154.68715368 287.71253957 148.92578125 283.12890625 C145.19591915 280.14883717 141.60273276 277.01493724 138.00390625 273.87890625 C137.3903125 273.34434814 136.77671875 272.80979004 136.14453125 272.2590332 C134.94721887 271.21573932 133.7517852 270.17028498 132.55834961 269.12255859 C131.31010795 268.04607471 130.04385962 266.99025015 128.76391602 265.95166016 C127.80956665 265.17121338 127.80956665 265.17121338 126.8359375 264.375 C126.2581958 263.91279053 125.6804541 263.45058105 125.08520508 262.97436523 C123.75390625 261.56640625 123.75390625 261.56640625 123.19140625 258.31640625 C123.75390625 255.56640625 123.75390625 255.56640625 125.75390625 253.56640625 C131.71403531 253.68047571 134.34887404 255.43433001 138.50390625 259.56640625 C139.55234542 260.58185086 140.60317152 261.59483619 141.65625 262.60546875 C142.17687012 263.10981445 142.69749023 263.61416016 143.23388672 264.13378906 C145.41670127 266.19109003 147.72693872 268.06564838 150.06640625 269.94140625 C155.32436191 274.16764096 160.40456321 278.57683797 165.45239258 283.05029297 C173.08867827 290.04019566 173.08867827 290.04019566 182.75390625 292.56640625 C186.82421083 291.24840286 189.90459989 289.5218759 192.75390625 286.31640625 C194.06605328 282.70800193 194.61329434 279.30846621 193.75390625 275.56640625 C190.90974639 270.44970689 187.23905254 267.07036877 182.81640625 263.37890625 C182.15326416 262.81502197 181.49012207 262.2511377 180.80688477 261.67016602 C178.79504235 259.96188917 176.77507771 258.26362689 174.75390625 256.56640625 C173.62570328 255.61138402 172.49806152 254.65569825 171.37109375 253.69921875 C169.79019717 252.35794673 168.20825178 251.01807914 166.62182617 249.68334961 C163.70557554 247.22952466 160.81121949 244.75356996 157.9375 242.25 C157.30207275 241.69836182 156.66664551 241.14672363 156.01196289 240.57836914 C154.78262104 239.50968807 153.55639331 238.43741111 152.33374023 237.36108398 C149.81693451 235.17756225 147.94863315 233.63131522 144.75390625 232.56640625 C144.62890625 225.81640625 144.62890625 225.81640625 145.75390625 223.56640625 C148.98859261 223.18171849 151.63691684 222.91078203 154.52832031 224.60791016 C156.3900865 226.12826513 158.13811316 227.7213715 159.87890625 229.37890625 C161.20236298 230.58286943 162.52659495 231.78598093 163.8515625 232.98828125 C164.50785645 233.59349609 165.16415039 234.19871094 165.84033203 234.82226562 C168.60003494 237.33761617 171.45094483 239.73564743 174.31640625 242.12890625 C178.27708533 245.46209668 182.21613278 248.81862951 186.13623047 252.19946289 C188.46640992 254.2059888 190.80482851 256.20268618 193.14648438 258.19580078 C194.63982483 259.46913209 196.12682338 260.74989082 197.61328125 262.03125 C203.94952453 267.41526112 203.94952453 267.41526112 211.75390625 269.56640625 C217.42317246 268.00247074 220.64669767 265.55677155 223.75390625 260.56640625 C224.73127095 256.2711456 224.31003504 253.56065601 222.15234375 249.703125 C219.36863631 246.06254345 216.32028003 243.30349435 212.81640625 240.37890625 C212.15326416 239.81502197 211.49012207 239.2511377 210.80688477 238.67016602 C208.79504235 236.96188917 206.77507771 235.26362689 204.75390625 233.56640625 C203.62570328 232.61138402 202.49806152 231.65569825 201.37109375 230.69921875 C199.25304653 228.90260609 197.13155873 227.11018335 195.0078125 225.3203125 C191.52876368 222.38317819 188.07966446 219.41166726 184.62890625 216.44140625 C180.56769749 212.94816769 176.47871654 209.50191918 172.31640625 206.12890625 C167.26456908 202.02660676 162.35084645 197.77938647 157.44384766 193.50634766 C152.86293987 189.51936866 148.24649118 185.57828944 143.60253906 181.66503906 C140.19340864 178.79034672 136.80310683 175.89499473 133.42333984 172.98583984 C127.81560737 168.15937513 122.17650095 163.38438755 116.4140625 158.7421875 C114.54049297 157.2097672 112.69642062 155.64092697 110.875 154.046875 C109.92753906 153.22832031 108.98007812 152.40976562 108.00390625 151.56640625 C107.1634375 150.82390625 106.32296875 150.08140625 105.45703125 149.31640625 C102.04764473 147.10917336 99.81393249 146.62772272 95.75390625 146.56640625 C93.10463646 147.47625648 90.9937044 148.37655478 88.56640625 149.69140625 C87.88715088 150.04396484 87.20789551 150.39652344 86.50805664 150.75976562 C79.78807364 154.34940636 73.47548829 158.55835607 67.13061523 162.76367188 C51.91423878 172.81097518 38.56915589 180.1289924 19.75390625 178.56640625 C14.5970393 177.45582889 10.98800536 174.69886623 7.75390625 170.56640625 C3.83442272 162.33391674 4.14525869 154.44198069 6.37890625 145.75390625 C6.55711914 145.05958496 6.73533203 144.36526367 6.91894531 143.64990234 C11.02326518 128.63892538 21.45627028 117.76985279 31.75390625 106.56640625 C28.38326715 105.21645256 26.01076108 105.90743165 22.6138916 106.90393066 Z M1.56054688 249.6015625 C1.10873047 250.20871094 0.65691406 250.81585937 0.19140625 251.44140625 C-0.72570383 252.64778867 -1.64366654 253.85352341 -2.5625 255.05859375 C-3.00480957 255.64406982 -3.44711914 256.2295459 -3.90283203 256.83276367 C-5.23298161 258.54948344 -6.61532487 260.20629628 -8.0234375 261.859375 C-10.35678633 264.70122165 -11.24609375 265.91815412 -11.24609375 269.56640625 C-10.04071716 273.45039749 -9.07294492 275.87363905 -5.93359375 278.50390625 C-2.53185868 279.84877826 -0.87832636 280.27860872 2.75390625 279.56640625 C11.50387896 274.24703958 20.16093408 262.67580105 24.75390625 253.56640625 C25.15621945 249.63836649 24.30843442 246.4314702 22.19140625 243.12890625 C13.51961747 237.57006729 7.20835899 242.24739013 1.56054688 249.6015625 Z M35.25390625 258.81640625 C31.70358751 263.36295379 28.09069295 267.84939714 24.44140625 272.31640625 C20.09000477 277.6609242 15.7704897 283.02888362 11.50390625 288.44140625 C11.03815186 289.03018555 10.57239746 289.61896484 10.0925293 290.22558594 C6.71863294 294.52346185 5.35374979 296.91989247 5.39453125 302.52734375 C5.99713645 305.94647323 8.12176692 307.49829677 10.75390625 309.56640625 C13.77169562 311.07530094 15.37713262 311.06666901 18.75390625 310.56640625 C25.54104908 306.49709086 30.16302792 299.43270897 34.890625 293.25390625 C37.60826527 289.71568883 40.46972131 286.32250292 43.37890625 282.94140625 C45.1778542 280.82248097 46.96730772 278.69574804 48.75390625 276.56640625 C49.42510498 275.77290771 49.42510498 275.77290771 50.10986328 274.96337891 C56.00086581 268.35991566 56.00086581 268.35991566 58.62890625 260.19140625 C57.46549563 255.37156225 56.62497161 253.7264596 52.75390625 250.56640625 C44.558623 248.6398478 40.1110096 252.5021719 35.25390625 258.81640625 Z M61.75390625 278.56640625 C53.81950152 285.87797375 47.2524037 294.97804547 40.75390625 303.56640625 C40.28178711 304.16493408 39.80966797 304.76346191 39.32324219 305.38012695 C36.6123317 308.90134876 36.6123317 308.90134876 35.30859375 313.078125 C35.87121075 316.89980387 36.34719504 319.06109838 38.81640625 322.12890625 C42.59034908 323.97572934 45.69207609 324.56241058 49.75390625 323.56640625 C55.08432512 320.58695815 58.76960214 315.30422617 62.42578125 310.546875 C64.20574399 308.26816431 66.01769742 306.0637574 67.89453125 303.8671875 C68.43891846 303.2187085 68.98330566 302.57022949 69.54418945 301.90209961 C70.61888736 300.62287938 71.70552289 299.35356664 72.80541992 298.09594727 C76.53233581 293.59865317 77.66212778 290.44022862 77.75390625 284.56640625 C75.86665566 280.32009242 74.58590774 278.92946144 70.31640625 277.06640625 C66.39192293 276.51560157 65.2001832 276.78294481 61.75390625 278.56640625 Z M70.81640625 317.12890625 C68.76956676 320.23038846 67.75390625 322.77719022 67.75390625 326.56640625 C69.24624944 329.77494411 71.03723463 332.30251323 73.75390625 334.56640625 C76.82142169 335.25573556 79.66835248 335.12990277 82.75390625 334.56640625 C85.56536202 332.67502139 85.56536202 332.67502139 87.75390625 329.56640625 C88.67236328 328.54933594 88.67236328 328.54933594 89.609375 327.51171875 C93.92921161 322.54757017 93.92921161 322.54757017 95.44140625 316.31640625 C94.68925541 312.21376529 93.72065518 310.44589786 90.75390625 307.56640625 C81.92658107 303.15274366 75.80011668 310.69460575 70.81640625 317.12890625 Z " fill="#5E2697" transform="translate(438.24609375,395.43359375)"/>
<path d="M0 0 C6.84351114 7.30357911 8.53341826 14.06383493 8.26953125 23.98828125 C7.44603327 31.52930209 3.70279714 38.24829301 -2.078125 43.171875 C-9.9399604 47.97356561 -17.56067427 50.74668842 -26.76171875 48.5234375 C-35.02510274 45.84156253 -41.4631841 41.79518874 -45.515625 33.921875 C-48.68405182 26.81777899 -49.38482838 19.15974849 -47.39453125 11.5625 C-43.86906038 3.07796431 -38.80508136 -2.11235903 -30.453125 -5.890625 C-19.95445364 -10.03483738 -8.38947246 -7.38021261 0 0 Z M-32.828125 9.859375 C-35.99580444 14.03495245 -37.47383491 18.22158212 -36.76953125 23.47265625 C-35.17880619 29.35142278 -32.19224396 32.91743566 -27.078125 36.171875 C-22.09733117 37.83213961 -17.77538871 37.77090925 -12.890625 36.046875 C-7.94998084 32.75311223 -5.18113668 29.46606263 -3.578125 23.796875 C-2.74062704 18.95890134 -3.42384775 15.31428803 -6.078125 11.171875 C-10.2479544 6.65864789 -13.62032871 4.33304197 -19.890625 3.921875 C-25.50755623 4.0247492 -28.8184444 5.94082351 -32.828125 9.859375 Z " fill="#5E2697" transform="translate(648.078125,341.828125)"/>
<path d="M0 0 C6.84351114 7.30357911 8.53341826 14.06383493 8.26953125 23.98828125 C7.44603327 31.52930209 3.70279714 38.24829301 -2.078125 43.171875 C-9.9399604 47.97356561 -17.56067427 50.74668842 -26.76171875 48.5234375 C-35.02510274 45.84156253 -41.4631841 41.79518874 -45.515625 33.921875 C-48.68405182 26.81777899 -49.38482838 19.15974849 -47.39453125 11.5625 C-43.86906038 3.07796431 -38.80508136 -2.11235903 -30.453125 -5.890625 C-19.95445364 -10.03483738 -8.38947246 -7.38021261 0 0 Z M-32.828125 9.859375 C-35.99580444 14.03495245 -37.47383491 18.22158212 -36.76953125 23.47265625 C-35.17880619 29.35142278 -32.19224396 32.91743566 -27.078125 36.171875 C-22.14370651 37.81668116 -17.81402001 37.7620793 -12.953125 36.109375 C-8.73254073 33.26506821 -5.13892574 30.11854372 -3.375 25.21875 C-2.44978375 20.10994724 -3.37767256 15.59660281 -6.078125 11.171875 C-10.23431824 6.65299509 -13.6306569 4.33236471 -19.890625 3.921875 C-25.50755623 4.0247492 -28.8184444 5.94082351 -32.828125 9.859375 Z " fill="#5E2697" transform="translate(472.078125,341.828125)"/>
<path d="M0 0 C6.98063573 4.84220155 11.23459742 10.15893573 13.21875 18.5390625 C14.36722618 27.35849277 13.23657435 34.1509399 8.21875 41.5390625 C3.99900431 46.67118564 -2.10338044 51.34266174 -8.78125 52.5390625 C-19.20897452 53.52814206 -26.47549559 51.90157168 -34.59375 45.2265625 C-41.83707083 36.32762549 -43.93982004 29.09812916 -42.78125 17.5390625 C-40.38845321 9.77052046 -35.55751412 3.37786499 -28.56640625 -0.77734375 C-19.1920257 -5.13787409 -8.99446764 -5.22730425 0 0 Z M-28.15625 13.7265625 C-31.08535974 18.79617551 -32.10342047 23.4270561 -31.21875 29.2265625 C-29.27723251 33.70049411 -26.97760783 37.00161202 -22.90625 39.8515625 C-17.03362784 41.75152849 -12.58872746 41.78055308 -6.86328125 39.60546875 C-2.78673157 37.51747989 -0.64698396 34.65751749 1.06640625 30.46484375 C2.52862845 25.447758 2.3364338 21.47117097 0.3828125 16.62109375 C-2.13288445 12.12154182 -5.21037929 9.31786047 -10.1796875 7.8125 C-17.63533644 6.64253663 -22.69399971 8.69554249 -28.15625 13.7265625 Z " fill="#5E2697" transform="translate(554.78125,365.4609375)"/>
</svg>
