<?xml version="1.0" encoding="UTF-8"?>
<svg version="1.1" xmlns="http://www.w3.org/2000/svg" width="1080" height="1080">
<path d="M0 0 C1.632006 -0.01429802 1.632006 -0.01429802 3.29698181 -0.02888489 C5.05952049 -0.02751778 5.05952049 -0.02751778 6.85766602 -0.02612305 C8.06471695 -0.03040817 9.27176788 -0.0346933 10.51539612 -0.03910828 C13.06999077 -0.04485548 15.62460178 -0.04534899 18.17919922 -0.04101562 C22.09248724 -0.0378572 26.00501847 -0.06130594 29.91821289 -0.08666992 C32.39802964 -0.08894297 34.87784843 -0.08964639 37.35766602 -0.08862305 C38.53066757 -0.09783279 39.70366913 -0.10704254 40.91221619 -0.11653137 C42.54895042 -0.10718819 42.54895042 -0.10718819 44.21875 -0.09765625 C45.65745705 -0.09860039 45.65745705 -0.09860039 47.12522888 -0.0995636 C50.29011183 0.36510528 51.44758639 0.9680096 53.67407227 3.2746582 C54.06701401 5.87597293 54.19772343 8.05682431 54.15509033 10.65873718 C54.15850803 11.41675764 54.16192573 12.17477811 54.165447 12.95576888 C54.17205153 15.50344573 54.15000838 18.05007599 54.12817383 20.59765625 C54.1270459 22.42073542 54.12767814 24.24381642 54.12994385 26.06689453 C54.13109407 31.02332871 54.107535 35.97937766 54.07964802 40.93572211 C54.05468558 46.11271204 54.05229644 51.28971027 54.04754639 56.4667511 C54.03510142 66.27341795 54.00225924 76.07990696 53.96214843 85.88649541 C53.91747801 97.04956813 53.89545558 108.21264923 53.87536669 119.37578905 C53.83352795 142.34217745 53.76314635 165.30840788 53.67407227 188.2746582 C54.62639236 188.57732605 55.57871246 188.8799939 56.55989075 189.1918335 C59.50009729 190.21416577 60.85370393 190.95015348 62.99829102 193.1027832 C63.55194336 193.65579102 64.1055957 194.20879883 64.67602539 194.77856445 C65.23225586 195.35477539 65.78848633 195.93098633 66.36157227 196.5246582 C66.9294043 197.08540039 67.49723633 197.64614258 68.08227539 198.22387695 C72.44902381 202.65717605 75.49628742 206.60788545 75.92407227 213.0246582 C75.07665213 218.25041572 71.2774996 221.52178786 67.70532227 225.1730957 C65.63291985 227.10692621 65.63291985 227.10692621 64.67407227 229.2746582 C65.28167709 231.6240635 65.94536754 233.95994908 66.67407227 236.2746582 C67.77106445 236.23985352 68.86805664 236.20504883 69.99829102 236.16918945 C71.45270272 236.14103955 72.90713107 236.11374068 74.36157227 236.0871582 C75.08280273 236.06202148 75.8040332 236.03688477 76.54711914 236.01098633 C81.13788243 235.94809916 84.19294326 236.18241208 87.67407227 239.2746582 C90.94577503 244.87512756 91.13486079 249.88817905 91.04907227 256.2746582 C91.06067383 257.13833008 91.07227539 258.00200195 91.08422852 258.8918457 C91.05906045 264.41204177 90.55669932 268.50676873 87.67407227 273.2746582 C83.22902692 276.45061089 79.09882237 276.66243946 73.79907227 276.4621582 C73.11071289 276.44862305 72.42235352 276.43508789 71.71313477 276.42114258 C70.03310226 276.3861419 68.35347877 276.33234774 66.67407227 276.2746582 C64.86493461 280.16472561 64.86493461 280.16472561 64.67407227 284.2746582 C66.68999035 286.95526077 68.90361725 289.00699828 71.43969727 291.1965332 C74.11254186 293.68246559 75.47966961 295.67844049 75.92529297 299.33740234 C75.46420355 306.55732811 72.02334426 309.95682495 66.86157227 314.7121582 C66.13647461 315.41791992 65.41137695 316.12368164 64.66430664 316.85083008 C57.04218222 324.15216976 57.04218222 324.15216976 51.04907227 324.4621582 C45.72692207 323.69329223 42.5529704 319.9567047 38.87329102 316.3059082 C36.76025578 314.07484345 36.76025578 314.07484345 33.67407227 313.2746582 C30.52386866 314.15785114 30.52386866 314.15785114 27.67407227 315.2746582 C27.70887695 316.37165039 27.74368164 317.46864258 27.77954102 318.59887695 C27.80769092 320.05328866 27.83498979 321.50771701 27.86157227 322.9621582 C27.89927734 324.04400391 27.89927734 324.04400391 27.93774414 325.14770508 C28.00074458 329.74673711 27.55979523 332.64900627 24.67407227 336.2746582 C19.62374538 339.6415428 13.73113308 338.68543721 7.79907227 338.7121582 C6.5190332 338.7450293 5.23899414 338.77790039 3.92016602 338.81176758 C-6.57998682 338.87211328 -6.57998682 338.87211328 -9.64624023 335.93481445 C-12.46306727 331.47374652 -12.45043095 327.69526896 -12.38842773 322.5871582 C-12.38391602 321.88526367 -12.3794043 321.18336914 -12.37475586 320.46020508 C-12.362997 318.73165282 -12.34506227 317.00314455 -12.32592773 315.2746582 C-16.2301061 313.56947782 -16.2301061 313.56947782 -20.32592773 313.2746582 C-23.44871397 315.52968665 -25.78804562 318.3969301 -28.32592773 321.2746582 C-31.18774576 323.45509098 -32.72351961 324.18493784 -36.26342773 324.7121582 C-42.59952515 323.80700143 -46.92613851 318.950459 -51.20092773 314.5246582 C-51.69850586 314.01805664 -52.19608398 313.51145508 -52.70874023 312.98950195 C-53.91915976 311.75580513 -55.12322626 310.51588036 -56.32592773 309.2746582 C-57.31592773 310.1202832 -58.30592773 310.9659082 -59.32592773 311.8371582 C-59.9769043 312.38887695 -60.62788086 312.9405957 -61.29858398 313.5090332 C-62.56478153 314.61177172 -63.80699074 315.7434435 -65.00952148 316.9152832 C-83.45906588 334.50193132 -107.92269901 338.95135306 -132.44311523 338.5793457 C-154.57341005 337.85464593 -173.28565068 327.03132108 -189.19702148 312.19262695 C-191.37502076 310.13734581 -191.37502076 310.13734581 -194.32592773 308.2746582 C-194.72908203 308.68828613 -195.13223633 309.10191406 -195.54760742 309.52807617 C-197.38506449 311.40722167 -199.23037083 313.27846857 -201.07592773 315.1496582 C-201.71014648 315.80063477 -202.34436523 316.45161133 -202.99780273 317.12231445 C-203.61655273 317.74750977 -204.23530273 318.37270508 -204.87280273 319.0168457 C-205.43837891 319.59289551 -206.00395508 320.16894531 -206.58666992 320.76245117 C-209.33600075 323.1528716 -211.59105329 324.17880501 -215.20092773 324.6496582 C-222.1865645 323.81138179 -226.70549279 318.14115181 -231.32592773 313.2746582 C-233.63592773 313.9346582 -235.94592773 314.5946582 -238.32592773 315.2746582 C-239.25048557 318.04833172 -239.31229145 320.10647152 -239.26342773 323.0871582 C-239.23321367 327.14339572 -239.79066599 330.47305769 -241.32592773 334.2746582 C-244.99908058 337.90856097 -247.42097959 338.78436713 -252.54467773 338.8059082 C-253.72416992 338.81106445 -254.90366211 338.8162207 -256.11889648 338.8215332 C-257.3422168 338.80606445 -258.56553711 338.7905957 -259.82592773 338.7746582 C-261.04924805 338.79012695 -262.27256836 338.8055957 -263.53295898 338.8215332 C-264.71245117 338.81637695 -265.89194336 338.8112207 -267.10717773 338.8059082 C-268.71689453 338.79914063 -268.71689453 338.79914063 -270.35913086 338.79223633 C-274.00718495 338.15580819 -275.68323918 336.81762266 -278.32592773 334.2746582 C-279.9809013 330.96471107 -279.42677109 327.2834282 -279.38842773 323.6496582 C-279.38391602 322.84786133 -279.3794043 322.04606445 -279.37475586 321.2199707 C-279.36295942 319.23816814 -279.34502378 317.25640387 -279.32592773 315.2746582 C-282.3768916 313.88261086 -284.95413355 313.08620445 -288.32592773 313.2746582 C-291.0606746 315.27579837 -293.08746834 317.4648807 -295.28295898 320.0402832 C-298.41049981 323.46084411 -300.33061739 324.22317663 -304.95092773 324.4621582 C-311.17447444 323.4788841 -315.10539602 318.58838778 -319.32592773 314.2746582 C-320.12256836 313.5218457 -320.91920898 312.7690332 -321.73999023 311.9934082 C-325.19025527 308.53095142 -327.82544494 305.71890272 -328.26342773 300.7121582 C-327.74937848 295.15460682 -324.12882267 292.02055044 -320.32592773 288.2746582 C-318.98000676 286.61814008 -317.63994283 284.95659753 -316.32592773 283.2746582 C-316.65592773 282.6765332 -316.98592773 282.0784082 -317.32592773 281.4621582 C-318.32592773 279.2746582 -318.32592773 279.2746582 -318.32592773 276.2746582 C-319.41131836 276.32106445 -320.49670898 276.3674707 -321.61499023 276.4152832 C-323.06027505 276.45282307 -324.50558984 276.48922085 -325.95092773 276.5246582 C-326.6637793 276.55817383 -327.37663086 276.59168945 -328.11108398 276.6262207 C-333.30857619 276.72158753 -336.2481159 275.77692302 -340.32592773 272.2746582 C-343.40288969 267.42232341 -342.69432315 261.95411522 -342.70092773 256.3996582 C-342.73766602 254.78510742 -342.73766602 254.78510742 -342.77514648 253.13793945 C-342.79818483 246.90990795 -342.6815001 242.90531935 -338.32592773 238.2746582 C-334.74810838 235.45430511 -330.42437424 236.04978222 -326.07592773 236.1496582 C-325.33084961 236.15868164 -324.58577148 236.16770508 -323.81811523 236.17700195 C-321.98724715 236.20047462 -320.15654535 236.23634295 -318.32592773 236.2746582 C-317.31569499 233.15547243 -316.85898858 230.53831715 -317.32592773 227.2746582 C-319.39349005 224.52356912 -321.64078254 222.38994818 -324.22436523 220.12231445 C-327.09057632 217.60239282 -327.5675453 215.85744608 -327.82592773 212.1496582 C-327.75349015 207.11122199 -325.92531332 204.8302863 -322.46655273 201.3293457 C-321.76014648 200.65129883 -321.05374023 199.97325195 -320.32592773 199.2746582 C-319.55764648 198.47286133 -318.78936523 197.67106445 -317.99780273 196.8449707 C-309.90209976 188.45439114 -309.90209976 188.45439114 -305.14233398 188.12231445 C-301.01275111 188.51594887 -298.8654491 188.83323163 -295.57592773 191.5246582 C-294.04509138 193.39568041 -292.54593821 195.29297785 -291.07592773 197.2121582 C-288.59571764 199.55975212 -288.59571764 199.55975212 -286.08862305 199.03857422 C-285.28521484 198.829021 -284.48180664 198.61946777 -283.65405273 198.40356445 C-282.84355469 198.19932861 -282.03305664 197.99509277 -281.19799805 197.78466797 C-280.27132324 197.53221313 -280.27132324 197.53221313 -279.32592773 197.2746582 C-279.33258957 196.38960602 -279.3392514 195.50455383 -279.34611511 194.59268188 C-279.40615221 186.26399631 -279.45186435 177.9353831 -279.48136425 169.60653114 C-279.49704016 165.32426368 -279.51831323 161.04217457 -279.55224609 156.76000977 C-279.58477138 152.629767 -279.60276623 148.49969609 -279.61055946 144.36933517 C-279.61611532 142.79120552 -279.6269642 141.21308559 -279.6431179 139.63502884 C-279.66480212 137.42957259 -279.66789855 135.22483229 -279.66650391 133.01928711 C-279.67316574 131.76242096 -279.67982758 130.50555481 -279.68669128 129.21060181 C-279.56763931 128.24174042 -279.44858734 127.27287903 -279.32592773 126.2746582 C-275.95850681 124.02971092 -274.83155631 124.02227082 -270.89233398 124.01586914 C-269.78108154 124.00956482 -268.6698291 124.0032605 -267.52490234 123.99676514 C-265.72484741 124.00283783 -265.72484741 124.00283783 -263.88842773 124.0090332 C-262.65680908 124.00711975 -261.42519043 124.0052063 -260.15625 124.00323486 C-256.88253754 124.00152386 -253.60901444 124.009581 -250.33532715 124.02075195 C-248.32790074 124.02465437 -246.32064921 124.02076602 -244.31323242 124.01391602 C-240.46321452 124.00158533 -236.61345631 124.00305177 -232.76342773 124.0090332 C-231.56339111 124.00498474 -230.36335449 124.00093628 -229.12695312 123.99676514 C-227.46007446 124.00622162 -227.46007446 124.00622162 -225.75952148 124.01586914 C-224.29083618 124.01825592 -224.29083618 124.01825592 -222.79248047 124.02069092 C-220.32592773 124.2746582 -220.32592773 124.2746582 -217.32592773 126.2746582 C-216.96516418 128.868927 -216.96516418 128.868927 -216.98535156 132.19311523 C-216.98557816 133.43425079 -216.98580475 134.67538635 -216.98603821 135.95413208 C-217.00135926 137.31358192 -217.01700726 138.67302811 -217.03295898 140.0324707 C-217.03855346 141.41966291 -217.04282426 142.80686103 -217.04582214 144.19406128 C-217.05728277 147.84715101 -217.08675987 151.49988354 -217.11993408 155.15283203 C-217.15060907 158.87958951 -217.16432194 162.60640465 -217.17944336 166.33325195 C-217.21162887 173.64721698 -217.26283935 180.96088756 -217.32592773 188.2746582 C-216.21894531 188.40606201 -215.11196289 188.53746582 -213.97143555 188.67285156 C-210.02701122 189.32400385 -208.82931375 190.06698325 -206.07592773 192.8371582 C-203.2841961 195.84472966 -203.2841961 195.84472966 -199.32592773 196.2746582 C-197.67243544 194.54396965 -197.67243544 194.54396965 -196.20092773 192.3371582 C-195.68272461 191.60625977 -195.16452148 190.87536133 -194.63061523 190.12231445 C-194.20006836 189.51258789 -193.76952148 188.90286133 -193.32592773 188.2746582 C-192.99592773 187.9446582 -192.66592773 187.6146582 -192.32592773 187.2746582 C-192.22376536 185.42128011 -192.19238509 183.56398043 -192.18789673 181.70779419 C-192.18244339 180.49911682 -192.17699005 179.29043945 -192.17137146 178.0451355 C-192.17025156 176.69342046 -192.16920105 175.34170537 -192.16821289 173.98999023 C-192.16354713 172.5760075 -192.15840397 171.16202627 -192.15281677 169.74804688 C-192.14151696 166.69616969 -192.13309192 163.64430238 -192.12669754 160.59241104 C-192.11604169 155.7691608 -192.09580364 150.9459813 -192.07357788 146.12277222 C-192.01157146 132.40504188 -191.95761822 118.68731528 -191.92456055 104.96948242 C-191.9062355 97.39858636 -191.87732611 89.82780828 -191.83655584 82.2569989 C-191.81544948 78.24780112 -191.80002348 74.23875227 -191.79774857 70.229496 C-191.79560652 66.45869445 -191.77978313 62.68820293 -191.75335884 58.91749573 C-191.74614725 57.53197309 -191.74407386 56.14641296 -191.74746132 54.7608757 C-191.75134152 52.87239196 -191.73517695 50.98389844 -191.71792603 49.0954895 C-191.71461588 48.03764818 -191.71130573 46.97980686 -191.70789528 45.88990974 C-191.32592773 43.2746582 -191.32592773 43.2746582 -189.95796013 41.43508625 C-187.57055407 39.73756299 -185.70899198 39.88636885 -182.80053711 39.87060547 C-181.66926392 39.8579213 -180.53799072 39.84523712 -179.37243652 39.83216858 C-178.15052612 39.83510422 -176.92861572 39.83803986 -175.66967773 39.84106445 C-174.41586304 39.8358226 -173.16204834 39.83058075 -171.87023926 39.82518005 C-169.21696675 39.81875099 -166.56455255 39.81867294 -163.91137695 39.82861328 C-160.51136565 39.84011046 -157.11239177 39.81988285 -153.71251678 39.79069614 C-150.46906477 39.76794184 -147.22569091 39.77479989 -143.98217773 39.77856445 C-142.76026733 39.76733047 -141.53835693 39.7560965 -140.27941895 39.74452209 C-139.14814575 39.75390305 -138.01687256 39.763284 -136.85131836 39.77294922 C-135.85442993 39.77311539 -134.8575415 39.77328156 -133.83044434 39.77345276 C-131.32592773 40.2746582 -131.32592773 40.2746582 -129.69194317 42.0078001 C-128.11897692 44.61808634 -127.95508685 46.02239432 -127.96516418 49.04559326 C-127.9589782 50.48004036 -127.9589782 50.48004036 -127.95266724 51.94346619 C-127.96345306 52.98571854 -127.97423889 54.02797089 -127.98535156 55.10180664 C-127.98491348 56.20454422 -127.9844754 57.3072818 -127.98402405 58.44343567 C-127.98611503 62.09048125 -128.00946144 65.73706787 -128.03295898 69.3840332 C-128.03855382 71.91180164 -128.04282445 74.43957334 -128.04582214 76.96734619 C-128.05610848 82.94197873 -128.07975566 88.91641408 -128.10987061 94.89096761 C-128.14341545 101.69380968 -128.15990082 108.49665968 -128.17495692 115.29956388 C-128.20630538 129.29135325 -128.25906532 143.2829967 -128.32592773 157.2746582 C-127.39361328 157.26378174 -126.46129883 157.25290527 -125.50073242 157.24169922 C-123.64303223 157.22901001 -123.64303223 157.22901001 -121.74780273 157.21606445 C-120.52673828 157.20518799 -119.30567383 157.19431152 -118.04760742 157.18310547 C-112.27266102 157.32516824 -105.57561141 157.64981637 -100.32592773 160.2746582 C-100.33592049 158.87524239 -100.33592049 158.87524239 -100.34611511 157.44755554 C-100.40688378 148.6629895 -100.45187989 139.87846601 -100.48136425 131.0937376 C-100.49703197 126.57721394 -100.5182903 122.06085973 -100.55224609 117.54443359 C-100.58480028 113.18725223 -100.60277241 108.83023402 -100.61055946 104.47294044 C-100.61611008 102.80911502 -100.62694891 101.1452987 -100.6431179 99.48154259 C-100.66484024 97.15416417 -100.66789691 94.82746319 -100.66650391 92.5 C-100.67728973 91.80948044 -100.68807556 91.11896088 -100.69918823 90.40751648 C-100.68146977 87.67848327 -100.58900879 85.70583503 -99.14997864 83.34733582 C-96.61600249 81.85716935 -94.73554602 81.89350169 -91.80053711 81.88647461 C-90.66926392 81.87701813 -89.53799072 81.86756165 -88.37243652 81.8578186 C-86.53957092 81.86692764 -86.53957092 81.86692764 -84.66967773 81.8762207 C-83.41586304 81.87335052 -82.16204834 81.87048035 -80.87023926 81.86752319 C-78.21697023 81.86547993 -75.56452802 81.86952352 -72.91137695 81.88354492 C-69.51151139 81.90063734 -66.11235628 81.89079503 -62.71251678 81.87282753 C-59.46904496 81.85937731 -56.22565883 81.86879587 -52.98217773 81.8762207 C-51.76026733 81.87014801 -50.53835693 81.86407532 -49.27941895 81.8578186 C-47.58250916 81.87200333 -47.58250916 81.87200333 -45.85131836 81.88647461 C-44.85442993 81.88886139 -43.8575415 81.89124817 -42.83044434 81.89370728 C-39.84823585 82.3473178 -39.15837973 82.93632204 -37.32592773 85.2746582 C-36.95678425 87.25239086 -36.95678425 87.25239086 -36.96516418 89.54570007 C-36.9589782 90.85187286 -36.9589782 90.85187286 -36.95266724 92.18443298 C-36.96345306 93.13677322 -36.97423889 94.08911346 -36.98535156 95.0703125 C-36.98491348 96.07536835 -36.9844754 97.08042419 -36.98402405 98.11593628 C-36.98611698 101.44377959 -37.00947224 104.77112146 -37.03295898 108.09887695 C-37.03855313 110.40387191 -37.04282408 112.70887044 -37.04582214 115.01387024 C-37.05728512 121.08519309 -37.08676499 127.15630116 -37.11993408 133.22753906 C-37.15060355 139.42095026 -37.16432081 145.61439611 -37.17944336 151.80786133 C-37.21163314 163.96355473 -37.26284718 176.11908862 -37.32592773 188.2746582 C-35.90884521 188.47502686 -35.90884521 188.47502686 -34.46313477 188.67944336 C-30.96485966 189.34316279 -29.73145088 190.22158538 -27.20092773 192.6496582 C-25.9145944 193.86366758 -24.62299009 195.07211861 -23.32592773 196.2746582 C-22.73038086 196.88567383 -22.13483398 197.49668945 -21.52124023 198.1262207 C-19.16284185 199.65852873 -19.16284185 199.65852873 -15.57592773 198.4621582 C-14.50342773 198.0702832 -13.43092773 197.6784082 -12.32592773 197.2746582 C-12.34913086 196.16606445 -12.37233398 195.0574707 -12.39624023 193.9152832 C-12.4150035 192.45174829 -12.43320311 190.98820607 -12.45092773 189.5246582 C-12.46768555 188.79504883 -12.48444336 188.06543945 -12.50170898 187.3137207 C-12.55286525 181.68653172 -12.55286525 181.68653172 -11.33070469 179.46840763 C-9.90678055 176.35952585 -10.06563749 173.69634425 -10.05418396 170.28404236 C-10.04909712 169.58037035 -10.04401029 168.87669834 -10.0387693 168.15170294 C-10.02410734 165.79411357 -10.02357497 163.43673332 -10.02294922 161.07910156 C-10.01528808 159.38881524 -10.00674172 157.69853274 -9.99737549 156.008255 C-9.97909551 152.36874408 -9.96705783 148.72928456 -9.95983696 145.08973503 C-9.94835886 139.33788838 -9.92290672 133.58615563 -9.89552307 127.83436584 C-9.85386805 118.73972953 -9.82145497 109.64508776 -9.79304892 100.55040127 C-9.74207399 84.25619502 -9.67997561 67.96203619 -9.60770851 51.66791064 C-9.58276032 45.94686008 -9.56334043 40.22582459 -9.54832637 34.50473964 C-9.538138 30.95043129 -9.52399209 27.39614636 -9.5088501 23.841856 C-9.50268331 22.1902471 -9.49823034 20.53863079 -9.49559212 18.88701248 C-9.49179266 16.63739483 -9.481988 14.38788101 -9.47068787 12.13829041 C-9.46683295 10.87786391 -9.46297804 9.61743742 -9.45900631 8.31881618 C-9.32592773 5.2746582 -9.32592773 5.2746582 -8.32592773 2.2746582 C-4.98702657 0.04872409 -3.89763088 0.01873851 0 0 Z M2.67407227 12.2746582 C2.67407227 65.4046582 2.67407227 118.5346582 2.67407227 173.2746582 C7.95407227 173.6046582 13.23407227 173.9346582 18.67407227 174.2746582 C24.67407227 177.2746582 24.67407227 177.2746582 26.01000977 179.47387695 C26.84657786 183.00222592 27.13329709 186.47809439 27.29907227 190.0871582 C27.33774414 190.7800293 27.37641602 191.47290039 27.41625977 192.18676758 C27.50980795 193.88232835 27.5929959 195.57845532 27.67407227 197.2746582 C30.31407227 198.2646582 32.95407227 199.2546582 35.67407227 200.2746582 C40.40990047 196.32728887 40.40990047 196.32728887 42.41235924 190.69400978 C42.43732513 189.34412824 42.42975206 187.99338763 42.39559937 186.64370728 C42.40328919 185.52120766 42.40328919 185.52120766 42.41113436 184.37603128 C42.42098598 181.87862401 42.38807584 179.3836574 42.35522461 176.88647461 C42.35353148 175.09250953 42.35448349 173.2985403 42.35787964 171.50457764 C42.35960021 166.64108652 42.32434019 161.77848438 42.28243589 156.91519976 C42.24491222 151.83034308 42.24140224 146.74546571 42.23428345 141.66049194 C42.21563943 132.03443542 42.16640831 122.40878806 42.10618651 112.78291166 C42.03910765 101.82294217 42.00612888 90.86295309 41.9760139 79.90282941 C41.91330883 57.35982662 41.80328163 34.81738468 41.67407227 12.2746582 C28.80407227 12.2746582 15.93407227 12.2746582 2.67407227 12.2746582 Z M-179.32592773 51.2746582 C-179.32592773 92.1946582 -179.32592773 133.1146582 -179.32592773 175.2746582 C-174.70592773 172.6346582 -170.08592773 169.9946582 -165.32592773 167.2746582 C-162.77625036 166.09485295 -160.19907292 164.96809284 -157.57592773 163.9621582 C-156.42608398 163.51227539 -155.27624023 163.06239258 -154.09155273 162.59887695 C-149.55431341 161.0033125 -144.93270043 159.65669001 -140.32592773 158.2746582 C-140.32592773 122.9646582 -140.32592773 87.6546582 -140.32592773 51.2746582 C-153.19592773 51.2746582 -166.06592773 51.2746582 -179.32592773 51.2746582 Z M-88.32592773 93.2746582 C-88.85040897 105.62450746 -88.85040897 105.62450746 -89.20483398 117.97583008 C-89.31208045 123.02417665 -89.43819088 128.06659633 -89.68383789 133.11035156 C-91.36306086 150.62613844 -91.36306086 150.62613844 -86.6088562 166.82357788 C-82.44598652 170.66020702 -77.8456453 172.5926544 -72.53614807 174.36782837 C-68.94960834 175.83934737 -66.37512119 178.27447397 -63.63842773 180.9621582 C-62.70901367 181.86192383 -61.77959961 182.76168945 -60.82202148 183.6887207 C-57.99266512 186.61991619 -55.24336623 189.58986239 -52.63061523 192.71606445 C-51.26288375 194.39658889 -51.26288375 194.39658889 -49.32592773 196.2746582 C-49.32592773 162.2846582 -49.32592773 128.2946582 -49.32592773 93.2746582 C-62.19592773 93.2746582 -75.06592773 93.2746582 -88.32592773 93.2746582 Z M-268.32592773 135.2746582 C-268.32592773 147.8146582 -268.32592773 160.3546582 -268.32592773 173.2746582 C-262.2985944 173.5234876 -262.2985944 173.5234876 -256.27050781 173.75268555 C-246.64754994 174.2041607 -246.64754994 174.2041607 -242.55639648 177.8527832 C-240.7105784 181.48582198 -240.75521373 185.00054655 -240.63842773 189.0246582 C-240.5871875 190.21381836 -240.5871875 190.21381836 -240.53491211 191.42700195 C-240.45273669 193.37573325 -240.38764728 195.32517182 -240.32592773 197.2746582 C-237.35592773 198.2646582 -234.38592773 199.2546582 -231.32592773 200.2746582 C-228.0963615 197.65287927 -228.0963615 197.65287927 -227.96516418 194.56013489 C-227.97182602 193.46537338 -227.97848785 192.37061188 -227.98535156 191.24267578 C-227.98557816 190.00161575 -227.98580475 188.76055573 -227.98603821 187.48188782 C-228.00135805 186.12765137 -228.01700604 184.77341859 -228.03295898 183.41918945 C-228.03855522 182.0334265 -228.04282519 180.64765761 -228.04582214 179.2618866 C-228.05726891 175.61703057 -228.08673415 171.97253398 -228.11993408 168.32781982 C-228.15063888 164.60767568 -228.16449273 160.88747165 -228.17944336 157.16723633 C-228.21001238 149.86939298 -228.26873101 142.57253628 -228.32592773 135.2746582 C-241.52592773 135.2746582 -254.72592773 135.2746582 -268.32592773 135.2746582 Z M-184.32592773 195.2746582 C-191.55478537 203.75310905 -196.5901769 212.77017072 -200.32592773 223.2746582 C-200.66495117 224.16668945 -201.00397461 225.0587207 -201.35327148 225.9777832 C-207.54543441 245.49593731 -203.65718137 267.97007554 -194.45629883 285.75561523 C-191.58077364 291.05402443 -188.39609162 295.80843283 -184.32592773 300.2746582 C-183.61049805 301.08161133 -182.89506836 301.88856445 -182.15795898 302.7199707 C-168.36082418 317.4399155 -149.58584367 326.38481206 -129.40014648 327.48950195 C-105.27693655 328.24387037 -84.64496553 319.76514765 -67.01342773 303.5246582 C-52.27627524 287.87038678 -44.76470936 266.91808732 -45.11499023 245.63012695 C-45.86785612 224.78689538 -54.45872963 204.28300826 -69.80810547 189.88427734 C-85.80791293 176.12449249 -105.09325113 167.6947068 -126.53295898 168.0637207 C-149.21863366 169.77704439 -168.53715988 178.58433553 -184.32592773 195.2746582 Z M-268.32592773 185.2746582 C-268.49588665 190.31451123 -268.49588665 190.31451123 -268.6237793 195.35546875 C-268.85498733 200.16763799 -269.66372783 202.85948696 -273.32592773 206.2746582 C-278.27490927 209.16447253 -283.34600411 211.14266329 -289.07592773 211.5246582 C-292.98025959 210.02299211 -295.4312331 207.93556752 -298.43139648 205.0637207 C-300.5843718 202.96308476 -300.5843718 202.96308476 -304.32592773 200.2746582 C-307.95592773 203.9046582 -311.58592773 207.5346582 -315.32592773 211.2746582 C-314.41842773 212.3059082 -313.51092773 213.3371582 -312.57592773 214.3996582 C-304.53923073 223.90276675 -304.53923073 223.90276675 -304.87670898 229.91918945 C-305.84280242 234.98487939 -307.55443436 239.92405814 -310.32592773 244.2746582 C-316.52131757 248.40491809 -323.08823076 247.9332574 -330.32592773 248.2746582 C-330.32592773 253.5546582 -330.32592773 258.8346582 -330.32592773 264.2746582 C-325.61521301 264.48388094 -325.61521301 264.48388094 -320.90332031 264.66259766 C-316.58196312 264.90244611 -313.69779414 265.53501675 -310.32592773 268.2746582 C-306.8392936 273.52613184 -304.34233381 279.76500286 -304.69702148 286.13793945 C-305.95812186 290.42254758 -309.15650069 293.2749007 -312.32592773 296.2746582 C-313.32705704 297.27352762 -314.32746501 298.27312329 -315.32592773 299.2746582 C-313.78948921 302.95535708 -311.54441828 305.26241024 -308.70092773 308.0246582 C-307.88366211 308.82387695 -307.06639648 309.6230957 -306.22436523 310.4465332 C-305.59788086 311.04981445 -304.97139648 311.6530957 -304.32592773 312.2746582 C-303.24074663 311.36017974 -302.15788036 310.44295413 -301.07592773 309.5246582 C-300.42881836 308.97938477 -299.78170898 308.43411133 -299.11499023 307.87231445 C-297.20760443 306.25467744 -297.20760443 306.25467744 -295.45092773 303.9621582 C-291.94711773 301.17972085 -288.73176152 300.78723119 -284.32592773 301.2746582 C-273.08749221 305.05087564 -273.08749221 305.05087564 -269.98608398 308.96606445 C-268.99158062 312.44388393 -268.85376761 315.93328325 -268.70092773 319.5246582 C-268.57717773 322.0821582 -268.45342773 324.6396582 -268.32592773 327.2746582 C-262.71592773 327.2746582 -257.10592773 327.2746582 -251.32592773 327.2746582 C-251.07705173 322.18965744 -251.07705173 322.18965744 -250.84790039 317.10375977 C-250.44870807 309.93274836 -250.44870807 309.93274836 -248.32592773 307.2746582 C-245.53295898 305.5715332 -245.53295898 305.5715332 -242.13842773 304.0246582 C-241.03112305 303.50387695 -239.92381836 302.9830957 -238.78295898 302.4465332 C-234.9974402 301.1633065 -232.2949024 300.86567721 -228.32592773 301.2746582 C-226.03295898 302.4465332 -226.03295898 302.4465332 -224.13842773 304.0246582 C-223.47456055 304.56864258 -222.81069336 305.11262695 -222.12670898 305.6730957 C-220.10896945 307.46761459 -218.15814008 309.2897615 -216.32592773 311.2746582 C-212.33159992 309.65404787 -209.53034452 306.88126647 -206.51342773 303.8996582 C-205.99844727 303.41754883 -205.4834668 302.93543945 -204.95288086 302.4387207 C-202.16983123 299.86072627 -202.16983123 299.86072627 -201.29467773 296.34887695 C-201.63499023 295.66438477 -201.97530273 294.97989258 -202.32592773 294.2746582 C-202.81706055 293.23696289 -203.30819336 292.19926758 -203.81420898 291.13012695 C-204.10666504 290.54303955 -204.39912109 289.95595215 -204.70043945 289.35107422 C-214.9361075 268.73853813 -217.43021702 245.52987955 -211.32592773 223.2746582 C-210.29820725 220.35207808 -209.22126777 217.48773177 -207.99780273 214.6418457 C-207.16816219 211.71880982 -207.34524272 210.14304678 -208.32592773 207.2746582 C-209.91366508 205.20706756 -209.91366508 205.20706756 -211.88842773 203.4621582 C-212.5290918 202.85758789 -213.16975586 202.25301758 -213.82983398 201.63012695 C-214.32354492 201.18282227 -214.81725586 200.73551758 -215.32592773 200.2746582 C-216.41110884 201.18913666 -217.49397511 202.10636228 -218.57592773 203.0246582 C-219.22174805 203.56993164 -219.86756836 204.11520508 -220.53295898 204.67700195 C-222.44427927 206.30236489 -222.44427927 206.30236489 -224.26342773 208.5871582 C-227.43451083 211.18168074 -230.3627778 211.65179666 -234.32592773 211.2746582 C-240.89440419 209.36306313 -246.70545357 207.36744691 -250.32592773 201.2746582 C-250.91196854 198.49845029 -251.01932466 195.79317825 -251.07592773 192.9621582 C-251.15842773 190.4252832 -251.24092773 187.8884082 -251.32592773 185.2746582 C-256.93592773 185.2746582 -262.54592773 185.2746582 -268.32592773 185.2746582 Z M-0.32592773 185.2746582 C-0.42905273 187.4609082 -0.53217773 189.6471582 -0.63842773 191.8996582 C-0.88400643 197.10592646 -1.47917725 200.84850253 -4.32592773 205.2746582 C-9.60630861 209.28736641 -16.64226719 211.90689636 -23.32592773 211.2746582 C-28.57652966 208.75436928 -32.32724083 204.43329258 -36.32592773 200.2746582 C-38.63592773 202.2546582 -40.94592773 204.2346582 -43.32592773 206.2746582 C-42.90827148 207.52569336 -42.90827148 207.52569336 -42.48217773 208.80200195 C-42.10061523 209.94797852 -41.71905273 211.09395508 -41.32592773 212.2746582 C-40.92374023 213.47219727 -40.52155273 214.66973633 -40.10717773 215.90356445 C-31.7930259 241.16616443 -32.46230794 265.85634829 -44.51342773 289.8996582 C-45.00198242 290.82004883 -45.49053711 291.74043945 -45.99389648 292.6887207 C-47.5568745 295.62241967 -47.5568745 295.62241967 -49.32592773 300.2746582 C-45.36592773 304.2346582 -41.40592773 308.1946582 -37.32592773 312.2746582 C-36.27405273 311.3671582 -35.22217773 310.4596582 -34.13842773 309.5246582 C-24.5466918 301.3114916 -24.5466918 301.3114916 -21.51342773 301.2199707 C-15.22875357 301.7362118 -9.40393799 303.41573706 -4.32592773 307.2746582 C-0.27220841 313.5774209 -0.6707486 319.9644558 -0.32592773 327.2746582 C4.95407227 327.2746582 10.23407227 327.2746582 15.67407227 327.2746582 C15.8438429 322.60899003 15.8438429 322.60899003 15.97192383 317.94213867 C16.22822617 312.96852421 17.43616567 310.0249608 20.67407227 306.2746582 C23.47875977 304.5949707 23.47875977 304.5949707 26.54907227 303.3996582 C27.55711914 302.98973633 28.56516602 302.57981445 29.60375977 302.1574707 C34.19119789 300.83843633 37.35882945 300.57506096 41.61157227 302.8371582 C45.25252537 305.73505966 48.47360743 308.90375441 51.67407227 312.2746582 C56.20023219 308.59633803 60.06832226 304.86379458 63.67407227 300.2746582 C63.04758789 299.67137695 62.42110352 299.0680957 61.77563477 298.4465332 C60.95836914 297.64731445 60.14110352 296.8480957 59.29907227 296.0246582 C58.48696289 295.23575195 57.67485352 294.4468457 56.83813477 293.6340332 C54.35872396 290.93084886 52.80251406 288.96745518 52.52172852 285.2668457 C53.15435453 279.03260384 55.00307605 273.41034482 58.67407227 268.2746582 C62.66629201 265.08231075 66.54410659 264.75397654 71.48657227 264.5871582 C73.85844727 264.4840332 76.23032227 264.3809082 78.67407227 264.2746582 C78.67407227 258.9946582 78.67407227 253.7146582 78.67407227 248.2746582 C73.96335754 248.06543546 73.96335754 248.06543546 69.25146484 247.88671875 C64.93722527 247.64726534 62.0726888 246.96265492 58.67407227 244.2746582 C57.38110352 242.4074707 57.38110352 242.4074707 56.48657227 240.3996582 C56.16817383 239.69325195 55.84977539 238.9868457 55.52172852 238.2590332 C55.24200195 237.60418945 54.96227539 236.9493457 54.67407227 236.2746582 C54.26157227 235.4084082 53.84907227 234.5421582 53.42407227 233.6496582 C52.46449792 230.61100611 52.28529382 228.44968215 52.67407227 225.2746582 C55.42338672 220.10594704 59.4691769 216.2669465 63.67407227 212.2746582 C59.9957521 207.74849828 56.26320864 203.88040821 51.67407227 200.2746582 C51.07079102 200.90114258 50.46750977 201.52762695 49.84594727 202.1730957 C49.04672852 202.99036133 48.24750977 203.80762695 47.42407227 204.6496582 C46.24071289 205.86782227 46.24071289 205.86782227 45.03344727 207.1105957 C41.50539941 210.34658661 39.81459319 211.31331993 34.98657227 211.1496582 C28.47961873 210.11584316 21.79831521 207.60180534 17.67407227 202.2746582 C15.86209763 196.8387343 16.03929227 190.96165541 15.67407227 185.2746582 C10.39407227 185.2746582 5.11407227 185.2746582 -0.32592773 185.2746582 Z " fill="#5E2697" transform="translate(643.325927734375,415.725341796875)"/>
<path d="M0 0 C0.99112793 -0.00945648 1.98225586 -0.01891296 3.00341797 -0.02865601 C4.07221191 -0.02258331 5.14100586 -0.01651062 6.2421875 -0.01025391 C7.34062988 -0.01312408 8.43907227 -0.01599426 9.57080078 -0.01895142 C11.89421097 -0.02099377 14.21763828 -0.01545204 16.54101562 -0.00292969 C20.10325462 0.01312082 23.66435892 -0.00277338 27.2265625 -0.02197266 C29.48177335 -0.01999026 31.73698348 -0.01614665 33.9921875 -0.01025391 C35.06098145 -0.0163266 36.12977539 -0.02239929 37.23095703 -0.02865601 C38.71764893 -0.01447128 38.71764893 -0.01447128 40.234375 0 C41.10690918 0.00238678 41.97944336 0.00477356 42.87841797 0.00723267 C45.1171875 0.38818359 45.1171875 0.38818359 46.89810181 1.60726929 C48.50114434 3.94909103 48.49763305 5.44220382 48.50537109 8.27099609 C48.51482758 9.26212402 48.52428406 10.25325195 48.5340271 11.27441406 C48.52491806 12.87760498 48.52491806 12.87760498 48.515625 14.51318359 C48.51849518 15.61162598 48.52136536 16.71006836 48.52432251 17.84179688 C48.52636486 20.16520706 48.52082313 22.48863438 48.50830078 24.81201172 C48.49225028 28.37425071 48.50814448 31.93535501 48.52734375 35.49755859 C48.52536135 37.75276944 48.52151774 40.00797958 48.515625 42.26318359 C48.52169769 43.33197754 48.52777039 44.40077148 48.5340271 45.50195312 C48.52457062 46.49308105 48.51511414 47.48420898 48.50537109 48.50537109 C48.50298431 49.37790527 48.50059753 50.25043945 48.49813843 51.14941406 C48.1171875 53.38818359 48.1171875 53.38818359 46.81948853 55.20507812 C45.1171875 56.38818359 45.1171875 56.38818359 41.4921875 56.20068359 C40.3784375 55.93255859 39.2646875 55.66443359 38.1171875 55.38818359 C36.64512737 52.44406333 36.87911558 49.42532444 36.80078125 46.19287109 C36.78000015 45.48542755 36.75921906 44.77798401 36.73780823 44.04910278 C36.67237672 41.78722934 36.61345776 39.52523897 36.5546875 37.26318359 C36.51149617 35.73061938 36.46788168 34.19806702 36.42382812 32.66552734 C36.31670195 28.90653286 36.2154166 25.14742067 36.1171875 21.38818359 C35.62795996 21.88294189 35.13873241 22.3777002 34.63467979 22.88745117 C22.73287248 34.92173083 10.8145398 46.93936911 -1.12247658 58.9387207 C-6.89472269 64.74191249 -12.66122214 70.55060633 -18.41455078 76.37255859 C-23.42883305 81.44662076 -28.45355302 86.51006808 -33.49111784 91.5610199 C-36.15845978 94.23618794 -38.82025726 96.91639365 -41.46962357 99.609375 C-43.96340444 102.14387436 -46.47090092 104.66394249 -48.98962784 107.17364502 C-50.35122707 108.53768258 -51.69786084 109.91660761 -53.04400635 111.29589844 C-54.26801651 112.50753662 -54.26801651 112.50753662 -55.51675415 113.74365234 C-56.2191604 114.45158936 -56.92156666 115.15952637 -57.64525795 115.88891602 C-60.56095189 117.84256912 -62.43956145 117.73861128 -65.8828125 117.38818359 C-68.07006836 116.36938477 -68.07006836 116.36938477 -70.09765625 114.93115234 C-71.23835571 114.13656616 -71.23835571 114.13656616 -72.40209961 113.32592773 C-73.59911499 112.45955688 -73.59911499 112.45955688 -74.8203125 111.57568359 C-75.66150635 110.98327881 -76.5027002 110.39087402 -77.36938477 109.78051758 C-83.0008286 105.79724914 -88.57301748 101.72927276 -94.11376953 97.62084961 C-99.24287536 93.82405863 -104.45874187 90.15992918 -109.6953125 86.51318359 C-117.94284973 80.76790427 -126.12009843 74.93239277 -134.2578125 69.03271484 C-134.89976562 68.57074707 -135.54171875 68.1087793 -136.203125 67.6328125 C-137.55539251 66.630798 -138.8541618 65.55680303 -140.1328125 64.46240234 C-141.80731141 63.18183136 -141.80731141 63.18183136 -143.72460938 63.62915039 C-146.29872167 64.53445753 -148.0105914 65.7817295 -150.1640625 67.45849609 C-150.99574951 68.09996582 -151.82743652 68.74143555 -152.68432617 69.40234375 C-153.57482666 70.0989209 -154.46532715 70.79549805 -155.3828125 71.51318359 C-157.28455868 72.98270724 -159.18691722 74.45143873 -161.08984375 75.91943359 C-162.05615723 76.66708984 -163.0224707 77.41474609 -164.01806641 78.18505859 C-168.33576906 81.50557579 -172.7026035 84.75891341 -177.0703125 88.01318359 C-184.33494206 93.44022196 -191.51851712 98.96213925 -198.66357422 104.54541016 C-203.57507147 108.38084796 -208.52950077 112.15002727 -213.52734375 115.87255859 C-218.00573843 119.21769669 -222.44020901 122.6207669 -226.8828125 126.01318359 C-233.91774442 131.38403275 -240.97897806 136.71706221 -248.0703125 142.01318359 C-255.4127137 147.49806093 -262.67948755 153.07141948 -269.88549805 158.734375 C-271.87695296 160.29583278 -273.877717 161.84429815 -275.8828125 163.38818359 C-276.51823975 163.88761475 -277.15366699 164.3870459 -277.80834961 164.90161133 C-282.43005754 168.40974335 -282.43005754 168.40974335 -286.8203125 168.20068359 C-287.8309375 167.93255859 -288.8415625 167.66443359 -289.8828125 167.38818359 C-291.1953125 164.76318359 -291.1953125 164.76318359 -291.8828125 161.38818359 C-288.21972328 156.02063653 -283.44917499 152.61240008 -278.1953125 148.88818359 C-276.4854802 147.65327722 -274.77718394 146.4162417 -273.0703125 145.17724609 C-272.20535156 144.54979492 -271.34039062 143.92234375 -270.44921875 143.27587891 C-266.47023267 140.34917415 -262.58055341 137.31266074 -258.6953125 134.26318359 C-252.37272348 129.30931724 -245.99548537 124.44095218 -239.55859375 119.63671875 C-235.05928884 116.27677559 -230.59391773 112.87632975 -226.14916992 109.44433594 C-218.34277222 103.42061253 -210.48688247 97.46153402 -202.64111328 91.48925781 C-199.94810259 89.43791687 -197.25693508 87.38418455 -194.56640625 85.32958984 C-184.20731912 77.42151525 -173.81898556 69.55497407 -163.375 61.75927734 C-160.61007208 59.69285141 -157.86325946 57.60765289 -155.140625 55.48583984 C-154.59092041 55.06101318 -154.04121582 54.63618652 -153.47485352 54.19848633 C-152.0759502 53.11441999 -150.68408344 52.02128916 -149.29296875 50.92724609 C-146.65789822 49.24455924 -144.98068839 48.69570614 -141.8828125 48.38818359 C-139.82495117 49.27758789 -139.82495117 49.27758789 -137.80078125 50.71240234 C-137.04216797 51.24027344 -136.28355469 51.76814453 -135.50195312 52.31201172 C-134.69951172 52.89402344 -133.89707031 53.47603516 -133.0703125 54.07568359 C-131.80670898 54.96610352 -131.80670898 54.96610352 -130.51757812 55.87451172 C-124.57223406 60.09046406 -118.73816225 64.45271187 -112.93969727 68.86767578 C-107.13673157 73.26392726 -101.15013094 77.35968972 -95.12280273 81.44042969 C-87.82774496 86.39115264 -80.67365356 91.52470283 -73.54296875 96.70849609 C-72.89473145 97.17674805 -72.24649414 97.645 -71.57861328 98.12744141 C-70.22040668 99.13719938 -68.91452763 100.21718312 -67.62890625 101.31787109 C-65.95476092 102.59087415 -65.95476092 102.59087415 -64.01491928 102.17376804 C-61.3607443 101.19582519 -60.01818558 99.89277436 -58.02301025 97.8891449 C-57.26865189 97.13891052 -56.51429352 96.38867615 -55.73707581 95.6157074 C-54.91924118 94.78708694 -54.10140656 93.95846649 -53.25878906 93.10473633 C-52.39013718 92.23652252 -51.52148529 91.36830872 -50.62651062 90.4737854 C-48.24735889 88.09290142 -45.87506028 85.70555435 -43.50554752 83.31510043 C-41.02719405 80.81799671 -38.54034572 78.32938269 -36.05438232 75.83985901 C-31.34877952 71.12493089 -26.65087647 66.40240744 -21.95568538 61.67711359 C-16.60974426 56.29764363 -11.25528491 50.92668692 -5.90008974 45.55643165 C5.11518136 34.50980051 16.11969541 23.45251649 27.1171875 12.38818359 C26.16352295 12.37360107 25.2098584 12.35901855 24.22729492 12.34399414 C20.68785165 12.28600567 17.14904426 12.20877401 13.61010742 12.12573242 C12.07863691 12.09248542 10.54704394 12.06445266 9.01538086 12.04174805 C6.81310863 12.00819641 4.61195838 11.95588449 2.41015625 11.89990234 C1.72567917 11.89351242 1.04120209 11.8871225 0.33598328 11.88053894 C-2.52291525 11.79217826 -4.44918818 11.69689781 -6.81518555 10.01245117 C-8.35802796 7.66519972 -8.29488877 6.13535875 -7.8828125 3.38818359 C-5.55822843 0.27416099 -3.79198136 0.0103728 0 0 Z " fill="#5E2697" transform="translate(628.8828125,325.61181640625)"/>
<path d="M0 0 C5.32501296 5.00614991 8.06100035 8.89032603 8.3125 16.25 C8.36857422 17.30960938 8.36857422 17.30960938 8.42578125 18.390625 C6.90471181 27.71240837 -0.08861173 33.66269321 -6.49609375 39.9921875 C-7.53280787 41.02905686 -8.56885323 42.06659527 -9.60426331 43.10476685 C-11.76578293 45.26766416 -13.93404982 47.42347998 -16.10766602 49.57421875 C-18.88810471 52.32618565 -21.65260352 55.09354164 -24.41247463 57.86611748 C-26.54558703 60.00619297 -28.68601813 62.13882309 -30.82881355 64.26919937 C-31.85110263 65.28698638 -32.87132757 66.30685116 -33.88940239 67.32885361 C-35.3127186 68.75509023 -36.74684584 70.17051304 -38.18139648 71.58544922 C-38.99317856 72.39182831 -39.80496063 73.1982074 -40.64134216 74.02902222 C-44.75094717 77.46315329 -48.53536422 78.31992292 -53.8125 78.4375 C-55.27623047 78.49744141 -55.27623047 78.49744141 -56.76953125 78.55859375 C-65.81927337 76.99376531 -72.0751383 69.38231534 -78.25 63.125 C-79.13429688 62.25230469 -80.01859375 61.37960937 -80.9296875 60.48046875 C-92.57420561 48.78318092 -92.57420561 48.78318092 -92.5625 40.0625 C-92.29537699 33.16900289 -90.27259971 29.09120851 -85.30859375 24.40234375 C-80.52625601 20.81808644 -75.86798427 20.19886013 -69.9765625 20.4375 C-63.74628445 21.61487538 -59.2977634 25.54157255 -55 30 C-50.87048119 28.37905584 -48.15788474 25.37774744 -45.1328125 22.2578125 C-44.57560516 21.69303192 -44.01839783 21.12825134 -43.44430542 20.5463562 C-41.06898654 18.13847082 -38.70562426 15.7189756 -36.34130859 13.30029297 C-34.60933993 11.53195248 -32.87124667 9.76979361 -31.1328125 8.0078125 C-30.60761017 7.46601349 -30.08240784 6.92421448 -29.54129028 6.36599731 C-21.08414559 -2.20130974 -11.35048678 -6.60391958 0 0 Z M-28.9140625 23.02734375 C-29.53643799 23.66448807 -30.15881348 24.30163239 -30.80004883 24.95808411 C-33.40714002 27.62909614 -36.01381633 30.29990436 -38.59667969 32.99438477 C-40.50127016 34.97758115 -42.42434712 36.94115982 -44.3515625 38.90234375 C-44.92983795 39.51472397 -45.5081134 40.12710419 -46.10391235 40.75804138 C-48.87529903 43.54783079 -50.26177597 44.87582739 -54.22802734 45.54296875 C-58.32770037 44.73993257 -60.36401781 42.08632853 -63 39.0625 C-66.90045341 34.53835049 -66.90045341 34.53835049 -72.19921875 32.0234375 C-75.12814379 31.76880833 -75.12814379 31.76880833 -77.8125 33.5625 C-80.11038869 35.87776632 -80.11038869 35.87776632 -81.25 38.75 C-80.96444369 42.46223206 -80.41354182 43.01973799 -77.98828125 45.67578125 C-77.35003418 46.37751465 -76.71178711 47.07924805 -76.05419922 47.80224609 C-75.03737061 48.89013428 -75.03737061 48.89013428 -74 50 C-73.34660645 50.70334473 -72.69321289 51.40668945 -72.02001953 52.13134766 C-70.01631091 54.25780246 -67.98195626 56.35024827 -65.9375 58.4375 C-64.9155957 59.51547852 -64.9155957 59.51547852 -63.87304688 60.61523438 C-61.04578155 63.49138614 -58.67059786 65.6843731 -55.00390625 67.41015625 C-51.59556409 66.94477793 -50.89515902 66.29724813 -48.40795898 64.04858398 C-47.70102402 63.40952621 -46.99408905 62.77046844 -46.26573181 62.11204529 C-39.48674497 55.79288291 -32.89519073 49.28318371 -26.30664062 42.76660156 C-24.42826887 40.91502635 -22.54277064 39.07065429 -20.65039062 37.23339844 C-17.90624486 34.56806378 -15.18551134 31.88070743 -12.46875 29.1875 C-11.61889526 28.37063721 -10.76904053 27.55377441 -9.89343262 26.7121582 C-5.24934764 22.15258946 -5.24934764 22.15258946 -3.36914062 16.078125 C-3.80754128 12.9574223 -3.80754128 12.9574223 -5.625 10.5625 C-7.93501548 8.8552567 -7.93501548 8.8552567 -10.75 8.3125 C-18.21749782 9.892163 -23.73624866 17.71341731 -28.9140625 23.02734375 Z " fill="#5E2697" transform="translate(561,626)"/>
<path d="M0 0 C6.55071041 4.60049891 10.69435122 9.74709973 14 17 C14.4125 17.886875 14.825 18.77375 15.25 19.6875 C18.6011793 30.02030284 17.4204046 39.98298814 12.7109375 49.64453125 C7.28409048 59.32289211 -0.29289416 65.10982621 -10.859375 68.6171875 C-21.68041509 70.55233701 -32.07016599 69.23916946 -41.46484375 63.4921875 C-50.30516686 57.16716431 -54.78498971 48.85321829 -57.6875 38.5625 C-58.97507474 28.00438716 -57.18592959 17.79592391 -50.75 9.0625 C-37.85784515 -5.88254575 -17.31151132 -10.50418654 0 0 Z M-42 17 C-46.22760168 23.23314856 -46.87524015 29.6261017 -46 37 C-44.55312412 44.26021647 -40.07737645 50.06462733 -34.1171875 54.35546875 C-27.43465183 58.10255859 -20.27445942 58.82716713 -12.875 57 C-5.63716149 54.4661884 -0.79251045 49.92017927 3 43.3125 C5.94949842 36.70120932 6.30044526 30.181707 4.1484375 23.26171875 C1.09135002 16.40926755 -3.47002389 11.14981917 -10.3046875 7.90625 C-22.57185444 3.44546202 -33.60898411 7.24181248 -42 17 Z " fill="#5E2697" transform="translate(404,640)"/>
<path d="M0 0 C6.33963461 4.63631324 11.58658312 9.881777 15 17 C15.31710937 17.65097656 15.63421875 18.30195312 15.9609375 18.97265625 C19.58811238 27.87420927 19.38985343 38.37815308 16.0625 47.3125 C11.11850172 57.60210986 3.54715888 64.66927264 -7 69 C-16.21712249 71.43499346 -27.33966913 71.14699431 -36 67 C-46.00361931 60.70503955 -52.92766365 52.53106662 -56 41 C-57.29829291 29.5976014 -55.88579774 19.44221027 -49.375 9.75 C-37.76751706 -4.48890224 -16.21466693 -9.33344254 0 0 Z M-39 16 C-43.74772015 22.25568089 -45.46031606 28.47620733 -44.8125 36.25 C-43.62519915 43.37380512 -40.32011737 49.22645186 -34.76953125 53.86328125 C-28.12447327 58.28979841 -21.46980455 60.00323369 -13.55078125 58.55078125 C-5.65934346 56.23292261 -0.06226249 52.21038843 3.99609375 45.03125 C7.19063521 38.56758635 7.5725501 32.94198105 6 26 C3.48886526 18.65060134 -0.14237663 13.72376323 -7 10 C-18.61492145 4.82250112 -29.92407047 6.92407047 -39 16 Z " fill="#5E2697" transform="translate(670,639)"/>
</svg>
